<svg width="600" height="400" xmlns="http://www.w3.org/2000/svg">
 <!-- Created with ImageBot - http://www.imagebot.com/ -->

 <g id="imagebot_1" width="0" height="0">
  <title width="0" height="0">Layer 1</title>
  <g transform="translate(-86 -153) matrix(1 0 0 1 88.3333 157.333)" id="imagebot_3" width="0" height="0">
   <path fill="#f7d411" transform="matrix(5.55556 0 0 5.55556 0 0)" id="imagebot_6" d="M4,6.75C4,4.131 6.131,2 8.75,2L17.883,2C17.554,0.849 16.505,0 15.25,0L3.75,0C2.233,0 1,1.233 1,2.75L1,18.25C1,19.767 2.233,21 3.75,21L4,21L4,6.75z" width="0" height="0"/>
   <path fill="#f7d411" transform="matrix(5.55556 0 0 5.55556 0 0)" id="imagebot_7" d="M20.25,4L8.75,4C7.233,4 6,5.233 6,6.75L6,21.25C6,22.767 7.233,24 8.75,24L20.25,24C21.767,24 23,22.767 23,21.25L23,6.75C23,5.233 21.767,4 20.25,4zM18.25,21L10.75,21C10.336,21 10,20.664 10,20.25S10.336,19.5 10.75,19.5L18.25,19.5C18.664,19.5 19,19.836 19,20.25S18.664,21 18.25,21zM18.25,17L10.75,17C10.336,17 10,16.664 10,16.25S10.336,15.5 10.75,15.5L18.25,15.5C18.664,15.5 19,15.836 19,16.25S18.664,17 18.25,17zM18.25,13.5L10.75,13.5C10.336,13.5 10,13.164 10,12.75S10.336,12 10.75,12L18.25,12C18.664,12 19,12.336 19,12.75S18.664,13.5 18.25,13.5zM18.25,9.5L10.75,9.5C10.336,9.5 10,9.164 10,8.75S10.336,8 10.75,8L18.25,8C18.664,8 19,8.336 19,8.75S18.664,9.5 18.25,9.5z" width="0" height="0"/>
  </g>
 </g>
</svg>