<svg width="600" height="400" xmlns="http://www.w3.org/2000/svg">
 <!-- Created with ImageBot - http://www.imagebot.com/ -->

 <g id="imagebot_1" width="0" height="0">
  <title width="0" height="0">Layer 1</title>
  <g id="imagebot_37" transform="scale(0.287914 0.287914)" width="0" height="0">
   <g id="imagebot_40" width="0" height="0">
    <g id="imagebot_41" width="0" height="0">
     <path fill="#edc917" id="imagebot_42" d="M451.2,42.401C444.6,42.401 439.2,47.801 439.2,54.401L439.2,372.901C439.2,406.601 411.8,433.901 378.2,433.901L85,433.901C51.3,433.901 24,406.501 24,372.901L24,29.301L375.3,29.301L375.3,338.301C375.3,344.901 380.7,350.301 387.3,350.301S399.3,344.901 399.3,338.301L399.3,17.301C399.3,10.701 393.9,5.301 387.3,5.301L12,5.301C5.4,5.301 0,10.701 0,17.301L0,372.801C0,419.701 38.1,457.801 85,457.801L378.1,457.801C425,457.801 463.1,419.701 463.1,372.801L463.1,54.401C463.2,47.801 457.8,42.401 451.2,42.401z" width="0" height="0"/>
     <path fill="#edc917" id="imagebot_43" d="M329.3,98.501C335.9,98.501 341.3,93.101 341.3,86.501S335.9,74.501 329.3,74.501L67.7,74.501C61.1,74.501 55.7,79.901 55.7,86.501S61.1,98.501 67.7,98.501L329.3,98.501z" width="0" height="0"/>
     <path fill="#edc917" id="imagebot_44" d="M329.3,319.101L67.7,319.101C61.1,319.101 55.7,324.501 55.7,331.101S61.1,343.101 67.7,343.101L329.2,343.101C335.8,343.101 341.2,337.701 341.2,331.101S335.9,319.101 329.3,319.101z" width="0" height="0"/>
     <path fill="#edc917" id="imagebot_45" d="M329.3,380.601L109.2,380.601C102.6,380.601 97.2,386.001 97.2,392.601S102.6,404.601 109.2,404.601L329.3,404.601C335.9,404.601 341.3,399.201 341.3,392.601S335.9,380.601 329.3,380.601z" width="0" height="0"/>
     <path fill="#edc917" id="imagebot_46" d="M51.7,140.401L51.7,270.201C51.7,276.801 57.1,282.201 63.7,282.201L194,282.201C200.6,282.201 206,276.801 206,270.201L206,140.401C206,133.801 200.6,128.401 194,128.401L63.7,128.401C57.1,128.401 51.7,133.801 51.7,140.401zM75.7,152.401L182,152.401L182,258.201L75.7,258.201L75.7,152.401z" width="0" height="0"/>
     <path fill="#edc917" id="imagebot_47" d="M335.7,140.401L249.4,140.401C242.8,140.401 237.4,145.801 237.4,152.401S242.8,164.401 249.4,164.401L335.7,164.401C342.3,164.401 347.7,159.001 347.7,152.401S342.4,140.401 335.7,140.401z" width="0" height="0"/>
     <path fill="#edc917" id="imagebot_48" d="M335.7,194.601L249.4,194.601C242.8,194.601 237.4,200.001 237.4,206.601S242.8,218.601 249.4,218.601L335.7,218.601C342.3,218.601 347.7,213.201 347.7,206.601S342.4,194.601 335.7,194.601z" width="0" height="0"/>
     <path fill="#edc917" id="imagebot_49" d="M347.7,264.201C347.7,257.601 342.3,252.201 335.7,252.201L249.4,252.201C242.8,252.201 237.4,257.601 237.4,264.201S242.8,276.201 249.4,276.201L335.7,276.201C342.4,276.201 347.7,270.801 347.7,264.201z" width="0" height="0"/>
    </g>
   </g>
   <g id="imagebot_50" width="0" height="0"/>
   <g id="imagebot_51" width="0" height="0"/>
   <g id="imagebot_52" width="0" height="0"/>
   <g id="imagebot_53" width="0" height="0"/>
   <g id="imagebot_54" width="0" height="0"/>
   <g id="imagebot_55" width="0" height="0"/>
   <g id="imagebot_56" width="0" height="0"/>
   <g id="imagebot_57" width="0" height="0"/>
   <g id="imagebot_58" width="0" height="0"/>
   <g id="imagebot_59" width="0" height="0"/>
   <g id="imagebot_60" width="0" height="0"/>
   <g id="imagebot_61" width="0" height="0"/>
   <g id="imagebot_62" width="0" height="0"/>
   <g id="imagebot_63" width="0" height="0"/>
   <g id="imagebot_64" width="0" height="0"/>
  </g>
 </g>
</svg>