<svg width="600" height="400" xmlns="http://www.w3.org/2000/svg">
 <!-- Created with ImageBot - http://www.imagebot.com/ -->

 <g id="imagebot_1" width="0" height="0">
  <title width="0" height="0">Layer 1</title>
  <g opacity="0.99" id="imagebot_3" transform="translate(1 5) matrix(0.303142 0 0 0.303142 -0.879435 0)" width="0" height="0">
   <g id="imagebot_6" width="0" height="0">
    <g id="imagebot_7" width="0" height="0">
     <path stroke="#f9cf13" stroke-width="13.5" id="imagebot_8" d="M256.7,301.9L229.2,301.9C219.2,301.9 211.1,293.8 211.1,283.8S219.2,265.7 229.2,265.7L277.6,265.7C284.2,265.7 289.6,260.3 289.6,253.7C289.6,247.1 284.2,241.7 277.6,241.7L254.9,241.7L254.9,225C254.9,218.4 249.5,213 242.9,213S230.9,218.4 230.9,225L230.9,241.7L229.2,241.7C206,241.7 187.1,260.6 187.1,283.8S206,325.9 229.2,325.9L256.7,325.9C266.7,325.9 274.8,334 274.8,344S266.7,362.1 256.7,362.1L207.4,362.1C200.8,362.1 195.4,367.5 195.4,374.1C195.4,380.7 200.8,386.1 207.4,386.1L231,386.1L231,403.2C231,409.8 236.4,415.2 243,415.2C249.6,415.2 255,409.8 255,403.2L255,386.1L257,386.1C257.1,386.1 257.2,386.1 257.3,386.1C280.3,385.8 298.8,367 298.8,344C298.8,320.8 279.9,301.9 256.7,301.9z" width="0" height="0"/>
     <path stroke="#f9cf13" stroke-width="13.5" id="imagebot_9" d="M423.3,274.7C410.7,245.7 393.3,217.6 371.3,191.3C344.7,159.3 318.2,137.9 304.7,128L355.7,33.4C358.2,28.7 357.4,22.9 353.5,19.2C340.3,6.3 326.3,0 310.7,0C296.4,0 283.3,5.4 271.9,10.2C262.9,13.9 254.4,17.5 247.5,17.5C245.4,17.5 243.6,17.2 241.8,16.5C218,7.8 199.7,2.4 182,2.4C159.6,2.4 140.5,11.4 121.8,30.6C117.9,34.6 117.3,40.9 120.4,45.6L175.4,128.7C161.8,138.8 135.8,160 109.7,191.3C87.8,217.6 70.3,245.7 57.7,274.7C41.9,311.2 33.9,349.3 33.9,387.9C33.9,439.2 75.7,481 127,481L354,481C405.3,481 447.1,439.2 447.1,387.9C447.1,349.3 439.1,311.2 423.3,274.7zM146,40.6C157.6,30.6 168.7,26.2 182,26.2C196.2,26.2 212.2,31 233.5,38.9C237.9,40.5 242.6,41.3 247.4,41.3C259.1,41.3 270.3,36.7 281,32.2C291.3,27.9 301.1,23.8 310.6,23.8C315.2,23.8 321.7,24.6 329.9,30.4L281.9,119.6L198.3,119.6L146,40.6zM354,457L127,457C88.9,457 57.9,426 57.9,387.9C57.9,323.8 81.4,263 127.6,207.2C156.8,171.9 186.5,150 195.5,143.6L285.3,143.6C294.4,149.9 324,171.9 353.2,207.2C399.5,263 422.9,323.7 422.9,387.9C423.1,426 392.1,457 354,457z" width="0" height="0"/>
    </g>
   </g>
   <g id="imagebot_10" width="0" height="0"/>
   <g id="imagebot_11" width="0" height="0"/>
   <g id="imagebot_12" width="0" height="0"/>
   <g id="imagebot_13" width="0" height="0"/>
   <g id="imagebot_14" width="0" height="0"/>
   <g id="imagebot_15" width="0" height="0"/>
   <g id="imagebot_16" width="0" height="0"/>
   <g id="imagebot_17" width="0" height="0"/>
   <g id="imagebot_18" width="0" height="0"/>
   <g id="imagebot_19" width="0" height="0"/>
   <g id="imagebot_20" width="0" height="0"/>
   <g id="imagebot_21" width="0" height="0"/>
   <g id="imagebot_22" width="0" height="0"/>
   <g id="imagebot_23" width="0" height="0"/>
   <g id="imagebot_24" width="0" height="0"/>
  </g>
 </g>
</svg>