<svg width="600" height="400" xmlns="http://www.w3.org/2000/svg">
 <!-- Created with ImageBot - http://www.imagebot.com/ -->

 <g id="imagebot_1" width="0" height="0">
  <title width="0" height="0">Layer 1</title>
  <g id="imagebot_9" transform="scale(0.272647 0.272647)" width="0" height="0">
   <g id="imagebot_12" width="0" height="0">
    <g id="imagebot_13" width="0" height="0">
     <path fill="#efcc1a" id="imagebot_14" d="M433.866,40.823C433.866,37.523 431.166,34.923 427.866,34.923C427.866,34.923 427.866,34.923 427.766,34.923C424.466,34.923 421.766,37.723 421.866,41.023L422.266,76.423L415.366,69.723C368.666,24.123 306.966,-0.577 241.666,0.123C176.366,0.823 115.266,27.023 69.666,73.723C36.966,107.123 14.666,148.923 5.166,194.523C-4.034,238.923 -0.934,284.823 14.366,327.423C15.266,329.723 17.566,331.223 20.066,331.223C20.766,331.223 21.466,331.123 22.066,330.823C25.166,329.723 26.766,326.223 25.666,323.123C-4.634,238.623 15.466,146.223 78.166,82.023C167.766,-9.677 315.266,-11.377 406.866,78.223L413.766,84.923L378.466,85.423C375.166,85.423 372.466,88.223 372.566,91.523C372.566,94.823 375.266,97.423 378.566,97.423C378.566,97.423 378.566,97.423 378.666,97.423L428.566,96.823C430.166,96.823 431.666,96.123 432.766,95.023C433.866,93.923 434.466,92.323 434.466,90.723L433.866,40.823z" width="0" height="0"/>
    </g>
   </g>
   <g id="imagebot_15" width="0" height="0">
    <g id="imagebot_16" width="0" height="0">
     <path fill="#efcc1a" id="imagebot_17" d="M474.666,161.623C473.466,158.623 469.966,157.023 466.866,158.123C463.766,159.223 462.166,162.723 463.266,165.823C493.566,250.423 473.466,342.823 410.766,407.023C365.266,453.523 304.866,476.923 244.466,476.923C185.866,476.923 127.166,454.923 81.966,410.823L75.066,404.123L110.466,403.723C113.766,403.723 116.466,400.923 116.366,397.623C116.366,394.323 113.566,391.623 110.266,391.723L60.466,392.223C57.166,392.223 54.466,395.023 54.566,398.323L55.166,448.223C55.166,451.523 57.866,454.123 61.166,454.123C61.166,454.123 61.166,454.123 61.266,454.123C64.566,454.123 67.266,451.323 67.166,448.023L66.766,412.623L73.666,419.323C119.666,464.323 180.266,488.923 244.466,488.923C245.466,488.923 246.366,488.923 247.366,488.923C312.666,488.223 373.766,462.023 419.366,415.323C452.066,381.923 474.366,340.123 483.866,294.523C493.066,250.123 489.966,204.223 474.666,161.623z" width="0" height="0"/>
    </g>
   </g>
   <g id="imagebot_18" width="0" height="0">
    <g id="imagebot_19" width="0" height="0">
     <path fill="#efcc1a" id="imagebot_20" d="M379.566,188.523C357.966,136.523 309.066,101.923 253.466,98.523C251.666,98.323 249.966,98.223 248.166,98.223C247.966,98.223 247.766,98.223 247.666,98.223C246.566,98.223 245.566,98.123 244.466,98.123C225.266,98.123 206.466,101.923 188.566,109.323C113.966,140.223 78.466,225.923 109.366,300.423C132.066,355.323 185.166,390.823 244.566,390.823C245.366,390.823 246.066,390.823 246.866,390.823C247.266,390.823 247.766,390.823 248.166,390.823C248.366,390.823 248.666,390.823 248.866,390.823C250.166,390.823 251.366,390.723 252.666,390.623C269.066,389.723 285.066,386.023 300.466,379.723C336.566,364.823 364.666,336.623 379.666,300.623S394.566,224.723 379.566,188.523zM193.066,120.423C197.366,118.623 201.866,117.023 206.266,115.723C198.966,122.423 192.266,130.923 186.366,141.023C179.066,153.723 173.266,168.523 169.166,184.823L124.166,184.823C138.166,156.823 161.866,133.423 193.066,120.423zM178.766,196.923L242.066,196.923L242.066,292.123L179.266,292.123C175.966,276.923 174.166,260.723 174.166,244.523C174.166,227.723 175.766,211.623 178.766,196.923zM118.766,292.223C106.866,260.423 107.666,226.623 118.966,196.823C119.266,196.823 119.466,196.923 119.766,196.923L166.466,196.923C163.566,211.923 162.066,228.023 162.066,244.523C162.066,260.923 163.666,276.923 166.766,292.123L119.666,292.123C119.366,292.123 119.066,292.123 118.766,292.223zM124.166,304.123L169.766,304.123C173.766,319.323 179.366,333.423 186.366,345.823C192.766,357.223 200.066,366.623 207.966,373.823C171.766,363.623 141.166,338.623 124.166,304.123zM242.166,378.323C225.366,375.723 209.466,362.323 196.866,339.923C190.966,329.323 186.066,317.223 182.366,304.123L242.166,304.123L242.166,378.323zM242.166,184.923L181.666,184.923C192.666,143.423 215.166,114.423 242.166,110.723L242.166,184.923zM364.766,184.923L327.066,184.923C322.966,168.623 317.166,153.823 309.866,141.123C305.066,132.823 299.666,125.623 293.866,119.623C324.366,131.623 349.766,154.623 364.766,184.923zM254.166,110.723C281.166,114.523 303.566,143.423 314.666,184.923L254.166,184.923L254.166,110.723zM254.166,196.923L317.466,196.923C320.466,211.623 322.066,227.623 322.066,244.523C322.066,260.723 320.266,276.923 316.966,292.123L254.166,292.123L254.166,196.923zM254.166,378.323L254.166,304.123L313.966,304.123C310.266,317.223 305.366,329.323 299.466,339.923C286.766,362.323 270.866,375.723 254.166,378.323zM295.866,368.623C294.666,369.123 293.366,369.623 292.166,370.123C298.566,363.523 304.566,355.423 309.966,345.823C316.966,333.423 322.566,319.323 326.566,304.123L364.866,304.123C350.366,333.323 326.166,356.023 295.866,368.623zM369.966,292.123L369.866,292.123L329.266,292.123C332.366,276.923 333.966,260.823 333.966,244.523C333.966,227.923 332.466,211.923 329.566,196.923L369.866,196.923C381.766,227.723 381.766,261.223 369.966,292.123z" width="0" height="0"/>
    </g>
   </g>
   <g id="imagebot_21" width="0" height="0"/>
   <g id="imagebot_22" width="0" height="0"/>
   <g id="imagebot_23" width="0" height="0"/>
   <g id="imagebot_24" width="0" height="0"/>
   <g id="imagebot_25" width="0" height="0"/>
   <g id="imagebot_26" width="0" height="0"/>
   <g id="imagebot_27" width="0" height="0"/>
   <g id="imagebot_28" width="0" height="0"/>
   <g id="imagebot_29" width="0" height="0"/>
   <g id="imagebot_30" width="0" height="0"/>
   <g id="imagebot_31" width="0" height="0"/>
   <g id="imagebot_32" width="0" height="0"/>
   <g id="imagebot_33" width="0" height="0"/>
   <g id="imagebot_34" width="0" height="0"/>
   <g id="imagebot_35" width="0" height="0"/>
  </g>
 </g>
</svg>