<?xml version="1.0" standalone="no"?>
<!DOCTYPE svg PUBLIC "-//W3C//DTD SVG 1.1//EN" "http://www.w3.org/Graphics/SVG/1.1/DTD/svg11.dtd" >
<svg>
<metadata>
Created by FontForge 20090914 at Sun Sep 27 12:03:06 2020
 By www-data
Copyright (c) 2016 by Typetype. Designer Ivan Gladkikh, technical designers Olga Yumartova, Olexa Volochay. All rights reserved.
</metadata>
<defs>
<font id="TTLakes-Medium" horiz-adv-x="585" >
  <font-face 
    font-family="TT Lakes Light"
    font-weight="500"
    font-stretch="normal"
    units-per-em="1000"
    panose-1="2 0 8 3 0 0 0 2 0 4"
    ascent="800"
    descent="-200"
    x-height="510"
    cap-height="700"
    bbox="-120.461 -290 1130 985"
    underline-thickness="50"
    underline-position="-150"
    unicode-range="U+000D-U+F6D4"
  />
<missing-glyph horiz-adv-x="0" 
 />
    <glyph glyph-name=".notdef" horiz-adv-x="0" 
 />
    <glyph glyph-name=".null" horiz-adv-x="0" 
 />
    <glyph glyph-name=".null" horiz-adv-x="0" 
 />
    <glyph glyph-name="CR" unicode="&#xd;" horiz-adv-x="0" 
 />
    <glyph glyph-name="space" unicode=" " horiz-adv-x="200" 
 />
    <glyph glyph-name="exclam" unicode="!" horiz-adv-x="290" 
d="M165 200h-40c-8.66699 0 -13.667 5 -15 15l-10 155v315c0 10 5 15 15 15h60c10 0 15 -5 15 -15v-315l-10 -155c-1.33301 -10 -6.33301 -15 -15 -15zM175 0h-60c-10 0 -15 5 -15 15v60c0 10 5 15 15 15h60c10 0 15 -5 15 -15v-60c0 -10 -5 -15 -15 -15z" />
    <glyph glyph-name="quotedbl" unicode="&#x22;" horiz-adv-x="380" 
d="M130 470h-45c-10 0 -15 5 -15 15v200c0 10 5 15 15 15h45c10 0 15 -5 15 -15v-200c0 -10 -5 -15 -15 -15zM295 470h-45c-10 0 -15 5 -15 15v200c0 10 5 15 15 15h45c10 0 15 -5 15 -15v-200c0 -10 -5 -15 -15 -15z" />
    <glyph glyph-name="numbersign" unicode="#" horiz-adv-x="700" 
d="M240 250h165l55 200h-165zM385 170h-165.001l-46 -155c-2.66699 -10 -8.66699 -15 -18 -15h-66c-9.33301 0 -12.666 5 -9.99902 15l45 155h-80c-10 0 -15 5 -15 15v50c0 10 5 15 15 15h100l55 200h-85c-10 0 -15 5 -15 15v50c0 10 5 15 15 15h105l45 155
c3.33301 10 10 15 20 15h65c9.33301 0 12.666 -5 9.99902 -15l-45 -155h165l46 155c2.66699 10 8.66699 15 18 15h66c10 0 13.333 -5 10 -15l-45 -155h80c10 0 15 -5 15 -15v-50c0 -10 -5 -15 -15 -15h-100l-55 -200h85c10 0 15 -5 15 -15v-50c0 -10 -5 -15 -15 -15h-105
l-45 -155c-3.33301 -10 -10 -15 -20 -15h-65c-9.33301 0 -12.666 5 -9.99902 15z" />
    <glyph glyph-name="dollar" unicode="$" horiz-adv-x="710" 
d="M410 -10v-75c0 -10 -5 -15 -15 -15h-65c-10 0 -15 5 -15 15v75h-65c-120 0 -180 58.333 -180 175v40c0 10 5 15 15 15h65c10 0 15 -5 15 -15v-40c0 -56.667 28.333 -85 85 -85h200c56.667 0 85 28.333 85 85v45c0 32 -18.333 53.667 -55 65l-300 95
c-66.667 21.333 -100 64.666 -100 129.999v35c0 116.667 60 175 180 175h55v75c0 10 5 15 15 15h65c10 0 15 -5 15 -15v-75h30c120 0 180 -58.333 180 -175v-40c0 -10 -5 -15 -15 -15h-65c-10 0 -15 5 -15 15v40c0 56.667 -28.333 85 -85 85h-180
c-56.667 0 -85 -28.333 -85 -85v-25c0 -32 18.333 -53.667 55 -65l300 -95c66.667 -21.333 100 -64.666 100 -129.999v-55c0 -116.667 -60 -175 -180 -175h-40z" />
    <glyph glyph-name="percent" unicode="%" horiz-adv-x="790" 
d="M340 575v-70c0 -45.333 -9.83301 -77.5 -29.5 -96.5s-53.167 -28.5 -100.5 -28.5h-30c-47.333 0 -80.833 9.5 -100.5 28.5s-29.5 51.167 -29.5 96.5v70c0 45.333 9.83301 77.5 29.5 96.5s53.167 28.5 100.5 28.5h30c47.333 0 80.833 -9.5 100.5 -28.5
s29.5 -51.167 29.5 -96.5zM125 575v-70c0 -36.667 18.333 -55 55 -55h30c36.667 0 55 18.333 55 55v70c0 36.667 -18.333 55 -55 55h-30c-36.667 0 -55 -18.333 -55 -55zM740 195v-70c0 -45.333 -9.83301 -77.5 -29.5 -96.5s-53.167 -28.5 -100.5 -28.5h-30
c-47.333 0 -80.833 9.5 -100.5 28.5s-29.5 51.167 -29.5 96.5v70c0 45.333 9.83301 77.5 29.5 96.5s53.167 28.5 100.5 28.5h30c47.333 0 80.833 -9.5 100.5 -28.5s29.5 -51.167 29.5 -96.5zM525 195v-70c0 -36.667 18.333 -55 55 -55h30c36.667 0 55 18.333 55 55v70
c0 36.667 -18.333 55 -55 55h-30c-36.667 0 -55 -18.333 -55 -55zM595 685l-310 -670c-4.66699 -10 -11.334 -15 -20.001 -15h-60c-11.333 0 -14.666 5 -9.99902 15l310 670c4.66699 10 11.334 15 20.001 15h60c11.333 0 14.666 -5 9.99902 -15z" />
    <glyph glyph-name="ampersand" unicode="&#x26;" horiz-adv-x="688" 
d="M570 270l50.001 -45.001c5.33301 -4.66699 5.33301 -9.66699 0 -15l-60 -65l135 -130c3.33301 -3.33301 3.66602 -6.66602 0.999023 -9.99902s-6.33398 -5 -11.001 -5h-86c-9.33301 0 -19 5 -29 15l-70 65c-2 -2.66699 -4.83301 -6 -8.5 -10
s-11.834 -11.167 -24.501 -21.5s-25.834 -19.5 -39.501 -27.5s-30.667 -15.167 -51 -21.5s-40.833 -9.5 -61.5 -9.5h-65c-120 0 -180 58.667 -180 176v54c0 24 4.16699 45.667 12.5 65s18.333 34 30 44s23.334 18.333 35.001 25s21.834 11 30.501 13l12 3v10
c-1.33301 1.33301 -3.5 3 -6.5 5s-7.83301 6.66699 -14.5 14s-12.667 15.333 -18 24s-10.166 20 -14.499 34s-6.5 28.333 -6.5 43v35c0 116.667 60 175 180 175h55c120 0 180 -58.333 180 -175v-10c0 -10 -5 -15 -15 -15h-65c-10 0 -15 5 -15 15v10
c0 56.667 -28.333 85 -85 85h-55c-56.667 0 -85 -28.333 -85 -85v-35c0 -13.333 4.66699 -27.5 14 -42.5s18.333 -26.833 27 -35.5l14 -12l215 -205l60 65c4.66699 5.33301 9.66699 5.33301 15 0zM250.001 79.999l65 -0.000976562c20.667 0 41 5.33301 61 16
s34.667 21.334 44 32.001l15 17l-170 160h-15c-56.667 0 -85 -28.333 -85 -85v-54c0 -57.333 28.333 -86 85 -86z" />
    <glyph glyph-name="quotesingle" unicode="'" horiz-adv-x="215" 
d="M85 700h45c10 0 15 -5 15 -15v-200c0 -10 -5 -15 -15 -15h-45c-10 0 -15 5 -15 15v200c0 10 5 15 15 15z" />
    <glyph glyph-name="parenleft" unicode="(" horiz-adv-x="360" 
d="M90 25v510c0 62.667 17.167 110.834 51.5 144.501s83.833 50.5 148.5 50.5h25c10 0 15 -5 15 -15v-60c0 -10 -5 -15 -15 -15h-25c-32.667 0 -58.334 -9.33301 -77.001 -28s-28 -44.334 -28 -77.001v-510c0 -32.667 9.33301 -58.334 28 -77.001s44.334 -28 77.001 -28h25
c10 0 15 -5 15 -15v-60c0 -10 -5 -15 -15 -15h-25c-64.667 0 -114.167 16.833 -148.5 50.5s-51.5 81.834 -51.5 144.501z" />
    <glyph glyph-name="parenright" unicode=")" horiz-adv-x="360" 
d="M270 535v-510c0 -62.667 -17.167 -110.834 -51.5 -144.501s-83.833 -50.5 -148.5 -50.5h-25c-10 0 -15 5 -15 15v60c0 10 5 15 15 15h25c32.667 0 58.334 9.33301 77.001 28s28 44.334 28 77.001v510c0 32.667 -9.33301 58.334 -28 77.001s-44.334 28 -77.001 28h-25
c-10 0 -15 5 -15 15v60c0 10 5 15 15 15h25c64.667 0 114.167 -16.833 148.5 -50.5s51.5 -81.834 51.5 -144.501z" />
    <glyph glyph-name="asterisk" unicode="*" horiz-adv-x="370" 
d="M255 399l-69.998 86l-70 -86c-4.66699 -6 -11.334 -6 -20.001 0l-29 25c-7.33301 5.33301 -7.33301 12.333 0 21l69 80h-90c-10 0 -15 5 -15 15v35c0 10 5 15 15 15h105v95c0 10 5 15 15 15h40c10 0 15 -5 15 -15v-95h105c10 0 15 -5 15 -15v-35c0 -10 -5 -15 -15 -15
h-90l69 -80c7.33301 -8.66699 7.33301 -15.667 0 -21l-29 -25c-8.66699 -6 -15.334 -6 -20.001 0z" />
    <glyph glyph-name="plus" unicode="+" horiz-adv-x="455" 
d="M425 340v-60c0 -10 -5 -15 -15 -15h-135v-150c0 -10 -5 -15 -15 -15h-65c-10 0 -15 5 -15 15v150h-135c-10 0 -15 5 -15 15v60c0 10 5 15 15 15h135v150c0 10 5 15 15 15h65c10 0 15 -5 15 -15v-150h135c10 0 15 -5 15 -15z" />
    <glyph glyph-name="comma" unicode="," horiz-adv-x="166" 
d="M126 75v-55c0 -4.66699 -0.833008 -9.5 -2.5 -14.5s-3.5 -8.83301 -5.5 -11.5l-2 -4l-40 -80c-4 -6.66699 -9 -10 -15 -10h-25c-6 0 -7.66699 3.33301 -5 10l45 90h-25c-10 0 -15 5 -15 15v60c0 10 5 15 15 15h60c10 0 15 -5 15 -15z" />
    <glyph glyph-name="hyphen" unicode="-" horiz-adv-x="435" 
d="M405 340v-60c0 -10 -5 -15 -15 -15h-345c-10 0 -15 5 -15 15v60c0 10 5 15 15 15h345c10 0 15 -5 15 -15z" />
    <glyph glyph-name="period" unicode="." horiz-adv-x="170" 
d="M115 0h-60c-10 0 -15 5 -15 15v60c0 10 5 15 15 15h60c10 0 15 -5 15 -15v-60c0 -10 -5 -15 -15 -15z" />
    <glyph glyph-name="slash" unicode="/" horiz-adv-x="384" 
d="M362 685l-245 -670c-4 -10 -10.667 -15 -20 -15h-65c-10.667 0 -14 5 -10 15l245 670c4 10 10.667 15 20 15h65c10.667 0 14 -5 10 -15z" />
    <glyph glyph-name="zero" unicode="0" horiz-adv-x="740" 
d="M650 535v-370c0 -116.667 -60 -175 -180 -175h-200c-120 0 -180 58.333 -180 175v370c0 116.667 60 175 180 175h200c120 0 180 -58.333 180 -175zM185 535v-370c0 -56.667 28.333 -85 85 -85h200c56.667 0 85 28.333 85 85v370c0 56.667 -28.333 85 -85 85h-200
c-56.667 0 -85 -28.333 -85 -85z" />
    <glyph glyph-name="one" unicode="1" horiz-adv-x="375" 
d="M275 685v-670c0 -10 -5 -15 -15 -15h-65c-10 0 -15 5 -15 15v595h-145c-10 0 -15 5 -15 15v60c0 10 5 15 15 15h225c10 0 15 -5 15 -15z" />
    <glyph glyph-name="two" unicode="2" horiz-adv-x="660" 
d="M580 490c0 -50.667 -24.999 -97.333 -74.999 -140l-295 -255v-5h355c10 0 15 -5 15 -15v-60c0 -10 -5 -15 -15 -15h-480c-10 0 -15 5 -15 15v55c0 10.667 5 20.667 15 30l355 310c17.333 14.667 29.166 27 35.499 37s9.5 24.333 9.5 43v45c0 56.667 -28.333 85 -85 85
h-150c-56.667 0 -85 -28.333 -85 -85v-40c0 -10 -5 -15 -15 -15h-65c-10 0 -15 5 -15 15v40c0 116.667 60 175 180 175h150c120 0 180 -58.333 180 -175v-45z" />
    <glyph glyph-name="three" unicode="3" horiz-adv-x="660" 
d="M355 420h45c120 0 180 -58.333 180 -175v-80c0 -116.667 -60 -175 -180 -175h-160c-120 0 -180 58.333 -180 175v40c0 10 5 15 15 15h65c10 0 15 -5 15 -15v-40c0 -56.667 28.333 -85 85 -85h160c56.667 0 85 28.333 85 85v80c0 56.667 -28.333 85 -85 85h-175
c-10 0 -15 5 -15 15v40c0 10 6.66699 21.667 20 35l195 185v5h-330c-10 0 -15 5 -15 15v60c0 10 5 15 15 15h460c10 0 15 -5 15 -15v-40c0 -10 -6.66699 -21.667 -20 -35l-195 -185v-5z" />
    <glyph glyph-name="four" unicode="4" horiz-adv-x="625" 
d="M595 245v-60c0 -10 -5 -15 -15 -15h-75v-155c0 -10 -5 -15 -15 -15h-65c-10 0 -15 5 -15 15v155h-375c-10 0 -15 5 -15 15v41c0 13.333 5 26.333 15 39l335 420c8 10 18 15 30 15h90c10 0 15 -5 15 -15v-425h75c10 0 15 -5 15 -15zM405 590l-260 -325v-5h265v330h-5z" />
    <glyph glyph-name="five" unicode="5" horiz-adv-x="660" 
d="M195 430h215c120 0 180 -58.333 180 -175v-90c0 -116.667 -60 -175 -180 -175h-160c-120 0 -180 58.333 -180 175v40c0 10 5 15 15 15h65c10 0 15 -5 15 -15v-40c0 -56.667 28.333 -85 85 -85h160c56.667 0 85 28.333 85 85v90c0 56.667 -28.333 85 -85 85h-295
c-10 0 -15 5 -15 15v330c0 10 5 15 15 15h435c10 0 15 -5 15 -15v-60c0 -10 -5 -15 -15 -15h-355v-180z" />
    <glyph glyph-name="six" unicode="6" horiz-adv-x="690" 
d="M430 330h-245v-165c0 -56.667 28.333 -85 85 -85h160c56.667 0 85 28.667 85 86v78c0 57.333 -28.333 86 -85 86zM185 535v-115h245c120 0 180 -58.333 180 -175v-80c0 -116.667 -60 -175 -180 -175h-160c-120 0 -180 58.333 -180 175v370c0 116.667 60 175 180 175h140
c120 0 180 -58.333 180 -175v-30c0 -10 -5 -15 -15 -15h-65c-10 0 -15 5 -15 15v30c0 56.667 -28.333 85 -85 85h-140c-56.667 0 -85 -28.333 -85 -85z" />
    <glyph glyph-name="seven" unicode="7" horiz-adv-x="560" 
d="M530 685l-0.000976562 -41c0 -12 -3.33301 -25 -10 -39l-270 -590c-5.33301 -10 -13.666 -15 -24.999 -15h-65c-12 0 -15.333 5 -10 15l270 590v5h-375c-10 0 -15 5 -15 15v60c0 10 5 15 15 15h470c10 0 15 -5 15 -15z" />
    <glyph glyph-name="eight" unicode="8" horiz-adv-x="700" 
d="M440 -10h-180.002c-120 0 -180 58.333 -180 175v65c0 21.333 3.5 40.666 10.5 57.999s15.333 30.5 25 39.5s19.334 16.667 29.001 23s18.167 10.166 25.5 11.499l10 3v5c-2.66699 0.666992 -6 1.66699 -10 3s-11.167 4.83301 -21.5 10.5s-19.5 12.5 -27.5 20.5
s-15.167 19.667 -21.5 35s-9.5 32.333 -9.5 51v45c0 116.667 60 175 180 175h160c120 0 180 -58.333 180 -175v-45c0 -29.333 -7.5 -54 -22.5 -74s-30.167 -32.667 -45.5 -38l-22 -8v-5c2.66699 -0.666992 6.33398 -1.66699 11.001 -3s12.667 -5.16602 24 -11.499
s21.333 -14 30 -23s16.667 -22.167 24 -39.5s11 -36.666 11 -57.999v-65c0 -116.667 -60 -175 -180 -175zM259.998 80h180c56.667 0 85 28.333 85 85v65c0 56.667 -28.333 85 -85 85h-180c-56.667 0 -85 -28.333 -85 -85v-65c0 -56.667 28.333 -85 85 -85zM429.998 620h-160
c-56.667 0 -85 -28.333 -85 -85v-45c0 -56.667 28.333 -85 85 -85h160c56.667 0 85 28.333 85 85v45c0 56.667 -28.333 85 -85 85z" />
    <glyph glyph-name="nine" unicode="9" horiz-adv-x="690" 
d="M260 370h245v165c0 56.667 -28.333 85 -85 85h-160c-56.667 0 -85 -28.667 -85 -86v-78c0 -57.333 28.333 -86 85 -86zM505 165v115h-245c-120 0 -180 58.333 -180 175v80c0 116.667 60 175 180 175h160c120 0 180 -58.333 180 -175v-370c0 -116.667 -60 -175 -180 -175
h-140c-120 0 -180 58.333 -180 175v30c0 10 5 15 15 15h65c10 0 15 -5 15 -15v-30c0 -56.667 28.333 -85 85 -85h140c56.667 0 85 28.333 85 85z" />
    <glyph glyph-name="colon" unicode=":" horiz-adv-x="190" 
d="M125 0h-60c-10 0 -15 5 -15 15v60c0 10 5 15 15 15h60c10 0 15 -5 15 -15v-60c0 -10 -5 -15 -15 -15zM125 420h-60c-10 0 -15 5 -15 15v60c0 10 5 15 15 15h60c10 0 15 -5 15 -15v-60c0 -10 -5 -15 -15 -15z" />
    <glyph glyph-name="semicolon" unicode=";" horiz-adv-x="186" 
d="M121 420h-60c-10 0 -15 5 -15 15v60c0 10 5 15 15 15h60c10 0 15 -5 15 -15v-60c0 -10 -5 -15 -15 -15zM136 75v-55c0 -4.66699 -0.833008 -9.5 -2.5 -14.5s-3.5 -8.83301 -5.5 -11.5l-2 -4l-40 -80c-4 -6.66699 -9 -10 -15 -10h-25c-6 0 -7.66699 3.33301 -5 10l45 90
h-25c-10 0 -15 5 -15 15v60c0 10 5 15 15 15h60c10 0 15 -5 15 -15z" />
    <glyph glyph-name="less" unicode="&#x3c;" horiz-adv-x="520" 
d="M40 225v45c0 8 5 14.667 15 20l410 185c10 4 15 0.666992 15 -10v-55c0 -12 -5 -20.333 -15 -25l-310 -135v-5l310 -135c10 -4 15 -12.333 15 -25v-55c0 -10.667 -5 -14 -15 -10l-410 185c-10 4 -15 10.667 -15 20z" />
    <glyph glyph-name="equal" unicode="=" horiz-adv-x="445" 
d="M405 435v-60c0 -10 -5 -15 -15 -15h-335c-10 0 -15 5 -15 15v60c0 10 5 15 15 15h335c10 0 15 -5 15 -15zM405 225v-60c0 -10 -5 -15 -15 -15h-335c-10 0 -15 5 -15 15v60c0 10 5 15 15 15h335c10 0 15 -5 15 -15z" />
    <glyph glyph-name="greater" unicode="&#x3e;" horiz-adv-x="520" 
d="M480 270v-45c0 -9.33301 -5 -16 -15 -20l-410 -185c-10 -4 -15 -0.666992 -15 10v55c0 12.667 5 21 15 25l310 135v5l-310 135c-10 4.66699 -15 13 -15 25v55c0 10.667 5 14 15 10l410 -185c10 -5.33301 15 -12 15 -20z" />
    <glyph glyph-name="question" unicode="?" horiz-adv-x="610" 
d="M370 270h-40l-10 -55c-2 -10 -7 -15 -15 -15h-40c-8.66699 0 -13.667 5 -15 15l-15 130c0 10 5 15 15 15h120c56.667 0 85 28.333 85 85v90c0 56.667 -28.333 85 -85 85h-150c-56.667 0 -85 -28.333 -85 -85v-30c0 -10 -5 -15 -15 -15h-65c-10 0 -15 5 -15 15v30
c0 116.667 60 175 180 175h150c120 0 180 -58.333 180 -175v-90c0 -116.667 -60 -175 -180 -175zM315 0h-60c-10 0 -15 5 -15 15v60c0 10 5 15 15 15h60c10 0 15 -5 15 -15v-60c0 -10 -5 -15 -15 -15z" />
    <glyph glyph-name="at" unicode="@" horiz-adv-x="990" 
d="M410 345v-170c0 -12.667 2.66699 -21.667 8 -27s14.333 -8 27 -8h90c30 0 45 15 45 45v150c0 30 -15 45 -45 45h-90c-12.667 0 -21.667 -2.66699 -27 -8s-8 -14.333 -8 -27zM820 230l-0.000976562 280.001c0 56.667 -28.333 85 -85 85h-470
c-56.667 0 -85 -28.333 -85 -85v-500c0 -56.667 28.333 -85 85 -85h545c10 0 15 -5 15 -15v-55c0 -10 -5 -15 -15 -15h-545c-57.333 0 -100.833 14.5 -130.5 43.5s-44.5 71.167 -44.5 126.5v500c0 55.333 14.833 97.5 44.5 126.5s73.167 43.5 130.5 43.5h470
c57.333 0 100.833 -14.5 130.5 -43.5s44.5 -71.167 44.5 -126.5v-280c0 -58 -14.167 -100.833 -42.5 -128.5s-72.5 -41.5 -132.5 -41.5h-140c-10 0 -15 5 -15 15v15h-5l-5.5 -11c-2.33301 -4.66699 -9.16602 -10.667 -20.499 -18s-24.333 -11 -39 -11h-65
c-42 0 -74.167 10.833 -96.5 32.5s-33.5 52.5 -33.5 92.5v170c0 40 11.167 70.833 33.5 92.5s54.5 32.5 96.5 32.5h65c14.667 0 27.5 -3.33301 38.5 -10s18.167 -13.334 21.5 -20.001l5 -10h5v15c0 10 5 15 15 15h65c10 0 15 -5 15 -15v-300h60c56.667 0 85 28.333 85 85z
" />
    <glyph glyph-name="A" unicode="A" horiz-adv-x="664" 
d="M212 270h240l-118 320h-4zM487 180h-309.998l-60 -165c-4 -10 -12.333 -15 -25 -15h-70c-10.667 0 -14 5 -10 15l260 670c5.33301 10 13.666 15 24.999 15h70c11.333 0 19.666 -5 24.999 -15l260 -670c4 -10 0.666992 -15 -10 -15h-70c-12.667 0 -21 5 -25 15z" />
    <glyph glyph-name="B" unicode="B" horiz-adv-x="730" 
d="M525 505v20c0 56.667 -28.333 85 -85 85h-245v-190h245c56.667 0 85 28.333 85 85zM660 245v-70.002c0 -116.667 -60 -175 -180 -175h-365c-10 0 -15 5 -15 15v670c0 10 4.66699 15 14 15h326c120 0 180 -58.333 180 -175v-20c0 -29.333 -6.33301 -54 -19 -74
s-25 -32.667 -37 -38l-19 -8v-5c3.33301 -0.666992 7.5 -1.66699 12.5 -3s14.167 -5.16602 27.5 -11.499s25 -14 35 -23s19.167 -22.167 27.5 -39.5s12.5 -36.666 12.5 -57.999zM565 174.998v70c0 56.667 -28.333 85 -85 85h-285v-240h285c56.667 0 85 28.333 85 85z" />
    <glyph glyph-name="C" unicode="C" horiz-adv-x="750" 
d="M90 165v370c0 116.667 60 175 180 175h230c120 0 180 -58.333 180 -175v-40c0 -10 -5 -15 -15 -15h-65c-10 0 -15 5 -15 15v40c0 56.667 -28.333 85 -85 85h-230c-56.667 0 -85 -28.333 -85 -85v-370c0 -56.667 28.333 -85 85 -85h230c56.667 0 85 28.333 85 85v40
c0 10 5 15 15 15h65c10 0 15 -5 15 -15v-40c0 -116.667 -60 -175 -180 -175h-230c-120 0 -180 58.333 -180 175z" />
    <glyph glyph-name="D" unicode="D" horiz-adv-x="780" 
d="M115 700h395c120 0 180 -58.333 180 -175v-350c0 -116.667 -60 -175 -180 -175h-330h-65c-10 0 -15 5 -15 15v670c0 10 5 15 15 15zM510 610h-315v-520h315c56.667 0 85 28.333 85 85v350c0 56.667 -28.333 85 -85 85z" />
    <glyph glyph-name="E" unicode="E" horiz-adv-x="680" 
d="M195 90h430c10 0 15 -5 15 -15v-60c0 -10 -4.66699 -15 -14 -15h-511c-10 0 -15 5 -15 15v669c0 10.667 5 16 15 16h500c10 0 15 -5 15 -15v-60c0 -10 -4.66699 -15 -14 -15h-421v-210h330c10 0 15 -5 15 -15v-60c0 -10 -4.66699 -15 -14 -15h-331v-220z" />
    <glyph glyph-name="F" unicode="F" horiz-adv-x="650" 
d="M195 280v-265c0 -10 -5 -15 -15 -15h-65c-10 0 -15 5 -15 15v669c0 10.667 5 16 15 16h500c10 0 15 -5 15 -15v-60c0 -10 -4.66699 -15 -14 -15h-421v-240h290c10 0 15 -5 15 -15v-60c0 -10 -4.66699 -15 -14 -15h-291z" />
    <glyph glyph-name="G" unicode="G" horiz-adv-x="770" 
d="M90 165v370c0 116.667 60 175 180 175h230c120 0 180 -58.333 180 -175v-40c0 -10 -5 -15 -15 -15h-65c-10 0 -15 5 -15 15v40c0 56.667 -28.333 85 -85 85h-230c-56.667 0 -85 -28.333 -85 -85v-370c0 -56.667 28.333 -85 85 -85h230c56.667 0 85 28.333 85 85v115h-150
c-10 0 -15 5 -15 15v60c0 10 5 15 15 15h230c10 0 15 -5.33301 15 -16v-189c0 -116.667 -60 -175 -180 -175h-230c-120 0 -180 58.333 -180 175z" />
    <glyph glyph-name="H" unicode="H" horiz-adv-x="760" 
d="M565 400v285c0 10 5 15 15 15h65c10 0 15 -5 15 -15v-670c0 -10 -5 -15 -15 -15h-65c-10 0 -15 4.66699 -15 14v296h-370v-295c0 -10 -5 -15 -15 -15h-65c-10 0 -15 5 -15 15v670c0 10 5 15 15 15h65c10 0 15 -5 15 -15v-285h370z" />
    <glyph glyph-name="I" unicode="I" horiz-adv-x="295" 
d="M100 15v670c0 10 5 15 15 15h65c10 0 15 -5 15 -15v-670c0 -10 -5 -15 -15 -15h-65c-10 0 -15 5 -15 15z" />
    <glyph glyph-name="J" unicode="J" horiz-adv-x="660" 
d="M560 685v-520c0 -116.667 -60 -175 -180 -175h-160c-120 0 -180 58.333 -180 175v60c0 10 5 15 15 15h65c10 0 15 -5 15 -15v-60c0 -56.667 28.333 -85 85 -85h160c56.667 0 85 28.333 85 85v520c0 10 5 15 15 15h65c10 0 15 -5 15 -15z" />
    <glyph glyph-name="K" unicode="K" horiz-adv-x="692" 
d="M195 320v-305c0 -10 -5 -15 -15 -15h-65c-10 0 -15 5 -15 15v670c0 10 5 15 15 15h65c10 0 15 -5 15 -15v-275h190l150 275c4.66699 10 13 15 25 15h70c12 0 15.333 -5 10 -15l-175 -315l195 -355c5.33301 -10 2 -15 -10 -15h-70c-12 0 -20.333 5 -25 15l-165 305h-195z
" />
    <glyph glyph-name="L" unicode="L" horiz-adv-x="640" 
d="M195 685v-595h410c10 0 15 -5 15 -15v-60c0 -10 -5 -15 -15 -15h-490c-10 -0 -15 5.33301 -15 16v669c0 10 5 15 15 15h65c10 0 15 -5 15 -15z" />
    <glyph glyph-name="M" unicode="M" horiz-adv-x="970" 
d="M500 0h-30c-14.667 0 -24.667 5 -30 15l-240 505h-5v-505c0 -10 -5 -15 -15 -15h-65c-10 0 -15 5 -15 15v670c0 10 5 15 15 15h75c14.667 0 24.667 -5 30 -15l263 -555h4l263 555c5.33301 10 15.333 15 30 15h75c10 0 15 -5 15 -15v-670c0 -10 -5 -15 -15 -15h-65
c-10 0 -15 5 -15 15v505h-5l-240 -505c-5.33301 -10 -15.333 -15 -30 -15z" />
    <glyph glyph-name="N" unicode="N" horiz-adv-x="780" 
d="M590 0c-14 0 -24 5 -30 15l-360 540h-5v-540c0 -10 -5 -15 -15 -15h-65c-10 0 -15 5 -15 15v670c0 10 5 15 15 15h75c14 0 24 -5 30 -15l360 -540h5v540c0 10 5 15 15 15h65c10 0 15 -5 15 -15v-670c0 -10 -5 -15 -15 -15h-75z" />
    <glyph glyph-name="O" unicode="O" horiz-adv-x="790" 
d="M90 165v370c0 116.667 60 175 180 175h250c120 0 180 -58.333 180 -175v-370c0 -116.667 -60 -175 -180 -175h-250c-120 0 -180 58.333 -180 175zM605 165v370c0 56.667 -28.333 85 -85 85h-250c-56.667 0 -85 -28.333 -85 -85v-370c0 -56.667 28.333 -85 85 -85h250
c56.667 0 85 28.333 85 85z" />
    <glyph glyph-name="P" unicode="P" horiz-adv-x="730" 
d="M195 310h285c56.667 0 85 28.333 85 85v130c0 56.667 -28.333 85 -85 85h-285v-300zM480 220h-285v-205c0 -10 -5 -15 -15 -15h-65c-10 0 -15 5 -15 15v670c0 10 5 15 15 15h365c120 0 180 -58.333 180 -175v-130c0 -116.667 -60 -175 -180 -175z" />
    <glyph glyph-name="Q" unicode="Q" horiz-adv-x="789" 
d="M700 535l-0.000976562 -369.999c0 -16 -1.66699 -31.5 -5 -46.5s-6.66602 -25.833 -9.99902 -32.5l-5 -11l85 -95c6.66699 -6.66699 6.66699 -13.334 0 -20.001l-45 -40c-7.33301 -6 -14 -6 -20 0l-80 90c-26.667 -13.333 -60 -20 -100 -20h-250
c-120 0 -180 58.333 -180 175v370c0 116.667 60 175 180 175h250c120 0 180 -58.333 180 -175zM604.999 155.001v379.999c0 56.667 -28.333 85 -85 85h-250c-56.667 0 -85 -28.333 -85 -85v-370c0 -56.667 28.333 -85 85 -85h250l30 5l-50 55
c-6.66699 6.66699 -6.66699 13.334 0 20.001l45 40c7.33301 6 14 6 20 0z" />
    <glyph glyph-name="R" unicode="R" horiz-adv-x="737" 
d="M535 250l129.998 -234.999c4.66699 -10 1.33398 -15 -9.99902 -15h-70c-11.333 0 -19.666 5 -24.999 15l-120 225h-245v-225c0 -10 -5 -15 -15 -15h-65c-10 0 -15 5 -15 15v670c0 10 5 15 15 15h355c120 0 180 -58.333 180 -175v-110c0 -28 -4 -52.833 -12 -74.5
s-17.667 -37.834 -29 -48.501s-22.5 -19.5 -33.5 -26.5s-20.5 -11.5 -28.5 -13.5zM194.998 330.001h275c56.667 0 85 28.333 85 85v110c0 56.667 -28.333 85 -85 85h-275v-280z" />
    <glyph glyph-name="S" unicode="S" horiz-adv-x="710" 
d="M535 210c0 32 -18.333 53.667 -55 65l-300 95c-66.667 21.333 -100 64.666 -100 129.999v35c0 116.667 60 175 180 175h180c120 0 180 -58.333 180 -175v-40c0 -10 -5 -15 -15 -15h-65c-10 0 -15 5 -15 15v40c0 56.667 -28.333 85 -85 85h-180
c-56.667 0 -85 -28.333 -85 -85v-25c0 -32 18.333 -53.667 55 -65l300 -95c66.667 -21.333 100 -64.666 100 -129.999v-55c0 -116.667 -60 -175 -180 -175h-200c-120 0 -180 58.333 -180 175v40c0 10 5 15 15 15h65c10 0 15 -5 15 -15v-40c0 -56.667 28.333 -85 85 -85h200
c56.667 0 85 28.333 85 85v45z" />
    <glyph glyph-name="T" unicode="T" 
d="M340 610v-595c0 -10 -5 -15 -15 -15h-65c-10 0 -15 5 -15 15v595h-220c-10 0 -15 5 -15 15v60c0 10 5 15 15 15h535c10 0 15 -5 15 -15v-60c0 -10 -5 -15 -15 -15h-220z" />
    <glyph glyph-name="U" unicode="U" horiz-adv-x="780" 
d="M680 685v-520c0 -116.667 -60 -175 -180 -175h-220c-120 0 -180 58.333 -180 175v520c0 10 5 15 15 15h65c10 0 15 -5 15 -15v-520c0 -56.667 28.333 -85 85 -85h220c56.667 0 85 28.333 85 85v520c0 10 5 15 15 15h65c10 0 15 -5 15 -15z" />
    <glyph glyph-name="V" unicode="V" horiz-adv-x="659" 
d="M357 0h-55c-12 0 -20.333 5 -25 15l-255 670c-4 10 -0.666992 15 10 15h70c12.667 0 21 -5 25 -15l200 -541h5l200 541c4 10 12.333 15 25 15h70c10.667 0 14 -5 10 -15l-255 -670c-4.66699 -10 -13 -15 -25 -15z" />
    <glyph glyph-name="W" unicode="W" horiz-adv-x="924" 
d="M432 700h60.001c10.667 0 17.334 -5 20.001 -15l145 -525h5l145 525c3.33301 10 10 15 20 15h65c9.33301 0 12.666 -5 9.99902 -15l-185 -670c-3.33301 -10 -10 -15 -20 -15h-60c-9.33301 0 -16 5 -20 15l-153 555h-4l-153 -555c-4 -10 -10.667 -15 -20 -15h-60
c-10 0 -16.667 5 -20 15l-185 670c-2.66699 10 0.666016 15 9.99902 15h65c10 0 16.667 -5 20 -15l145 -525h5l145 525c3.33301 10 10 15 20 15z" />
    <glyph glyph-name="X" unicode="X" horiz-adv-x="646" 
d="M323 445l160.002 240c7.33301 10 15.666 15 24.999 15h80c5.33301 0 9 -1.5 11 -4.5s1.66699 -6.5 -1 -10.5l-215 -315l240 -355c2.66699 -4.66699 3 -8.33398 1 -11.001s-5.66699 -4 -11 -4h-80c-10 0 -18.333 5 -25 15l-185 280l-185 -280
c-6.66699 -10 -15 -15 -25 -15h-80c-5.33301 0 -9 1.33301 -11 4s-1.66699 6.33398 1 11.001l240 355l-215 315c-2.66699 4 -3 7.5 -1 10.5s5.66699 4.5 11 4.5h80c9.33301 0 17.666 -5 24.999 -15z" />
    <glyph glyph-name="Y" unicode="Y" horiz-adv-x="644" 
d="M122 685l200 -340l200 340c6 10 14.333 15 25 15h75c12 0 15.333 -5 10 -15l-265 -440v-231c0 -9.33301 -5 -14 -15 -14h-60c-10 0 -15 4.66699 -15 14v231l-265 440c-5.33301 10 -2 15 10 15h75c10.667 0 19 -5 25 -15z" />
    <glyph glyph-name="Z" unicode="Z" horiz-adv-x="630" 
d="M40 80c0 13.333 3.33301 23.333 10 30l420 495v5h-405c-10 0 -15 5 -15 15v60c0 10 5 15 15 15h510c10 0 15 -5 15 -15v-65c0 -13.333 -3.33301 -23.333 -10 -30l-420 -495v-5h415c10 0 15 -5 15 -15v-60c0 -10 -5 -15 -15 -15h-520c-10 0 -15 5 -15 15v65z" />
    <glyph glyph-name="bracketleft" unicode="[" horiz-adv-x="360" 
d="M195 -80h120c10 0 15 -5 15 -15v-60c0 -10 -5 -15 -15 -15h-200c-10 0 -15 5 -15 15v870c0 10 5 15 15 15h200c10 0 15 -5 15 -15v-60c0 -10 -5 -15 -15 -15h-120v-720z" />
    <glyph glyph-name="backslash" unicode="\" horiz-adv-x="384" 
d="M267 15l-245 670c-4 10 -0.666992 15 10 15h65c9.33301 0 16 -5 20 -15l245 -670c4 -10 0.666992 -15 -10 -15h-65c-9.33301 0 -16 5 -20 15z" />
    <glyph glyph-name="bracketright" unicode="]" horiz-adv-x="360" 
d="M45 -80h120v720h-120c-10 0 -15 5 -15 15v60c0 10 5 15 15 15h200c10 0 15 -5 15 -15v-870c0 -10 -5 -15 -15 -15h-200c-10 0 -15 5 -15 15v60c0 10 5 15 15 15z" />
    <glyph glyph-name="asciicircum" unicode="^" horiz-adv-x="489" 
d="M222 700h44.998c11.333 0 19.666 -5 24.999 -15l165 -320c4.66699 -10 1.33398 -15 -9.99902 -15h-60c-11.333 0 -19.666 5 -24.999 15l-115 225h-5l-115 -225c-4.66699 -10 -13 -15 -25 -15h-60c-11.333 0 -14.666 5 -9.99902 15l165 320c4.66699 10 13 15 25 15z" />
    <glyph glyph-name="underscore" unicode="_" horiz-adv-x="375" 
d="M375 -125v-60c0 -10 -5 -15 -15 -15h-345c-10 0 -15 5 -15 15v60c0 10 5 15 15 15h345c10 0 15 -5 15 -15z" />
    <glyph glyph-name="grave" unicode="`" horiz-adv-x="225" 
d="M123 550l-90.001 134.999c-2.66699 4.66699 -3 8.33398 -1 11.001s5.66699 4 11 4h70c8.66699 0 15.334 -5 20.001 -15l60 -135c4 -10 0.666992 -15 -10 -15h-40c-7.33301 0 -14 5 -20 15z" />
    <glyph glyph-name="a" unicode="a" horiz-adv-x="560" 
d="M60 135l0.00195312 19.999c0 96.667 50 145 150 145h185v65c0 22.667 -6.83301 40.834 -20.5 54.501s-31.834 20.5 -54.501 20.5h-70c-22.667 0 -40.834 -6.83301 -54.501 -20.5s-20.5 -31.834 -20.5 -54.501c0 -10 -5 -15 -15 -15h-55c-10 0 -15 5 -15 15
c0 50 13.667 88.333 41 115s67 40 119 40h70c52 0 91.667 -13.333 119 -40s41 -65 41 -115v-350c0 -10 -5 -15 -15 -15h-55c-10 0 -15 5 -15 15v35h-5c-0.666992 -1.33301 -1.66699 -3.5 -3 -6.5s-5 -7.83301 -11 -14.5s-12.833 -12.667 -20.5 -18
s-18.167 -10.166 -31.5 -14.499s-28 -6.5 -44 -6.5h-70c-100 0 -150 48.333 -150 145zM145.002 154.999v-20c0 -20 5.83301 -35.833 17.5 -47.5s27.5 -17.5 47.5 -17.5h80c30 0 55 10 75 30s30 45 30 75v45h-185c-20 0 -35.833 -5.83301 -47.5 -17.5
s-17.5 -27.5 -17.5 -47.5z" />
    <glyph glyph-name="b" unicode="b" 
d="M355 80c22.667 0 40.834 6.83105 54.501 20.498s20.5 31.834 20.5 54.501v200c0 22.667 -6.83301 40.834 -20.5 54.501s-31.834 20.5 -54.501 20.5h-190v-350h190zM355 -0.00195312h-260c-10 0 -15 5 -15 15v670c0 10 5 15 15 15h55c10 0 15 -5 15 -15v-175h190
c52 0 91.667 -13.333 119 -40s41 -65 41 -115v-200c0 -50 -13.667 -88.333 -41 -115s-67 -40 -119 -40z" />
    <glyph glyph-name="c" unicode="c" horiz-adv-x="565" 
d="M155 365v-220c0 -22.667 6.83301 -40.834 20.5 -54.501s31.834 -20.5 54.501 -20.5h115c22.667 0 40.834 6.83301 54.501 20.5s20.5 31.834 20.5 54.501v25c0 10 5 15 15 15h55c10 0 15 -5 15 -15v-25c0 -50 -13.667 -88.333 -41 -115s-67 -40 -119 -40h-115
c-52 0 -91.667 13.333 -119 40s-41 65 -41 115v220c0 50 13.667 88.333 41 115s67 40 119 40h115c52 0 91.667 -13.333 119 -40s41 -65 41 -115v-25c0 -10 -5 -15 -15 -15h-55c-10 0 -15 5 -15 15v25c0 22.667 -6.83301 40.834 -20.5 54.501s-31.834 20.5 -54.501 20.5h-115
c-22.667 0 -40.834 -6.83301 -54.501 -20.5s-20.5 -31.834 -20.5 -54.501z" />
    <glyph glyph-name="d" unicode="d" 
d="M420 430l-190 0.00195312c-22.667 0 -40.834 -6.83301 -54.501 -20.5s-20.5 -31.834 -20.5 -54.501v-210c0 -22.667 6.83301 -40.834 20.5 -54.501s31.834 -20.5 54.501 -20.5h85c30 0 55 10 75 30s30 45 30 75v255zM230 510.002l190 -0.000976562v175c0 10 5 15 15 15
h55c10 0 15 -5 15 -15v-670c0 -10 -5 -15 -15 -15h-55c-10 0 -15 5 -15 15v35h-5c-0.666992 -1.33301 -1.66699 -3.5 -3 -6.5s-5 -7.83301 -11 -14.5s-12.833 -12.667 -20.5 -18s-18.167 -10.166 -31.5 -14.499s-28 -6.5 -44 -6.5h-75c-52 0 -91.667 13.333 -119 40
s-41 65 -41 115v210c0 50 13.667 88.333 41 115s67 40 119 40z" />
    <glyph glyph-name="e" unicode="e" horiz-adv-x="580" 
d="M155 300h270.002v65c0 22.667 -6.83301 40.834 -20.5 54.501s-31.834 20.5 -54.501 20.5h-120c-22.667 0 -40.834 -6.83301 -54.501 -20.5s-20.5 -31.834 -20.5 -54.501v-65zM495.002 220h-340.002v-75c0 -22.667 6.83301 -40.834 20.5 -54.501
s31.834 -20.5 54.501 -20.5h120c22.667 0 40.834 6.83301 54.501 20.5s20.5 31.834 20.5 54.501v5c0 10 5 15 15 15h55c10 0 15 -5 15 -15v-5c0 -50 -13.667 -88.333 -41 -115s-67 -40 -119 -40h-120c-52 0 -91.667 13.333 -119 40s-41 65 -41 115v220
c0 50 13.667 88.333 41 115s67 40 119 40h120c52 0 91.667 -13.333 119 -40s41 -65 41 -115v-130c0 -10 -5 -15 -15 -15z" />
    <glyph glyph-name="f" unicode="f" horiz-adv-x="350" 
d="M120 400h-75c-10 0 -15 5 -15 15v50c0 10 5 15 15 15h75v70c0 48 13.333 85 40 111s65 39 115 39h60c10 0 15 -5 15 -15v-50c0 -10 -5 -15 -15 -15h-60c-20 0 -36.667 -6.66699 -50 -20s-20 -30 -20 -50v-70h100c10 0 15 -5 15 -15v-50c0 -10 -5 -15 -15 -15h-100v-385
c0 -10 -5 -15 -15 -15h-55c-10 0 -15 5 -15 15v385z" />
    <glyph glyph-name="g" unicode="g" 
d="M420 40h-190.003c-52 0 -91.667 13.333 -119 40s-41 65 -41 115v170c0 50 13.667 88.333 41 115s67 40 119 40h75c16 0 30.667 -2 44 -6s23.833 -9 31.5 -15s14.334 -12 20.001 -18s9.5 -11 11.5 -15l3 -6h5v35c0 10 5 15 15 15h55c10 0 15 -5 15 -15v-540
c0 -50 -13.667 -88.333 -41 -115s-67 -40 -119 -40h-105c-52 0 -91.667 13.333 -119 40s-41 65 -41 115v15c0 10 5 15 15 15h55c10 0 15 -5 15 -15v-15c0 -22.667 6.83301 -40.834 20.5 -54.501s31.834 -20.5 54.501 -20.5h105c22.667 0 40.834 6.83301 54.501 20.5
s20.5 31.834 20.5 54.501v85zM229.997 120l190 0.00195312v215c0 30 -10 55 -30 75s-45 30 -75 30h-85c-22.667 0 -40.834 -6.83301 -54.501 -20.5s-20.5 -31.834 -20.5 -54.501v-170c0 -22.667 6.83301 -40.834 20.5 -54.501s31.834 -20.5 54.501 -20.5z" />
    <glyph glyph-name="h" unicode="h" horiz-adv-x="595" 
d="M430 15l0.000976562 339.999c0 22.667 -6.83301 40.834 -20.5 54.501s-31.834 20.5 -54.501 20.5h-190v-415c0 -10 -5 -15 -15 -15h-55c-10 0 -15 5 -15 15v670c0 10 5 15 15 15h55c10 0 15 -5 15 -15v-175h190c52 0 91.667 -13.333 119 -40s41 -65 41 -115v-340
c0 -10 -5 -15 -15 -15h-55c-10 0 -15 5 -15 15z" />
    <glyph glyph-name="i" unicode="i" horiz-adv-x="245" 
d="M95 700h55c10 0 15 -5 15 -15v-55c0 -10 -5 -15 -15 -15h-55c-10 0 -15 5 -15 15v55c0 10 5 15 15 15zM150 0h-55c-10 0 -15 5 -15 15v480c0 10 5 15 15 15h55c10 0 15 -5 15 -15v-480c0 -10 -5 -15 -15 -15z" />
    <glyph glyph-name="j" unicode="j" horiz-adv-x="245" 
d="M165 495v-545c0 -48 -13.333 -85 -40 -111s-65 -39 -115 -39h-55c-10 0 -15 5 -15 15v50c0 10 5 15 15 15h55c20 0 36.667 6.66699 50 20s20 30 20 50v545c0 10 5 15 15 15h55c10 0 15 -5 15 -15zM95 700h55c10 0 15 -5 15 -15v-55c0 -10 -5 -15 -15 -15h-55
c-10 0 -15 5 -15 15v55c0 10 5 15 15 15z" />
    <glyph glyph-name="k" unicode="k" horiz-adv-x="522" 
d="M405 15l-114.998 215h-125v-215c0 -10 -5 -15 -15 -15h-55c-10 0 -15 5 -15 15v670c0 10 5 15 15 15h55c10 0 15 -5 15 -15v-375h125l100 185c5.33301 10 13.666 15 24.999 15h60c11.333 0 14.666 -5 9.99902 -15l-125 -225l140 -255c5.33301 -10 2 -15 -10 -15h-60
c-12 0 -20.333 5 -25 15z" />
    <glyph glyph-name="l" unicode="l" horiz-adv-x="245" 
d="M150 0h-55c-10 0 -15 5 -15 15v670c0 10 5 15 15 15h55c10 0 15 -5 15 -15v-670c0 -10 -5 -15 -15 -15z" />
    <glyph glyph-name="m" unicode="m" horiz-adv-x="845" 
d="M465 365l0.00390625 -349.999c0 -10 -5 -15 -15 -15h-55c-10 0 -15 5 -15 15v350c0 22.667 -6.83301 40.834 -20.5 54.501s-31.834 20.5 -54.501 20.5h-35c-30 0 -55 -10 -75 -30s-30 -45 -30 -75v-320c0 -10 -5 -15 -15 -15h-55c-10 0 -15 5 -15 15v480c0 10 5 15 15 15
h55c10 0 15 -5 15 -15v-35h5c0.666992 1.33301 1.66699 3.5 3 6.5s5 7.83301 11 14.5s12.833 12.667 20.5 18s18.167 10.166 31.5 14.499s28 6.5 44 6.5h25c26.667 0 49.5 -5 68.5 -15s31.5 -20 37.5 -30l9 -15h5c0.666992 1.33301 1.66699 3.5 3 6.5
s5.16602 7.83301 11.499 14.5s13.333 12.667 21 18s18.667 10.166 33 14.499s29.833 6.5 46.5 6.5h65c52 0 91.667 -13.333 119 -40s41 -65 41 -115v-350c0 -10 -5 -15 -15 -15h-55c-10 0 -15 5 -15 15v350c0 22.667 -6.83301 40.834 -20.5 54.501
s-31.834 20.5 -54.501 20.5h-65c-22.667 0 -40.834 -6.83301 -54.501 -20.5s-20.5 -31.834 -20.5 -54.501z" />
    <glyph glyph-name="n" unicode="n" horiz-adv-x="595" 
d="M280 520h75.001c52 0 91.667 -13.333 119 -40s41 -65 41 -115v-350c0 -10 -5 -15 -15 -15h-55c-10 0 -15 5 -15 15v350c0 22.667 -6.83301 40.834 -20.5 54.501s-31.834 20.5 -54.501 20.5h-85c-30 0 -55 -10 -75 -30s-30 -45 -30 -75v-320c0 -10 -5 -15 -15 -15h-55
c-10 0 -15 5 -15 15v480c0 10 5 15 15 15h55c10 0 15 -5 15 -15v-35h5c0.666992 1.33301 1.66699 3.5 3 6.5s5 7.83301 11 14.5s12.833 12.667 20.5 18s18.167 10.166 31.5 14.499s28 6.5 44 6.5z" />
    <glyph glyph-name="o" unicode="o" 
d="M430 145v220c0 22.667 -6.83301 40.834 -20.5 54.501s-31.834 20.5 -54.501 20.5h-125c-22.667 0 -40.834 -6.83301 -54.501 -20.5s-20.5 -31.834 -20.5 -54.501v-220c0 -22.667 6.83301 -40.834 20.5 -54.501s31.834 -20.5 54.501 -20.5h125
c22.667 0 40.834 6.83301 54.501 20.5s20.5 31.834 20.5 54.501zM515 365v-220c0 -50 -13.667 -88.333 -41 -115s-67 -40 -119 -40h-125c-52 0 -91.667 13.333 -119 40s-41 65 -41 115v220c0 50 13.667 88.333 41 115s67 40 119 40h125c52 0 91.667 -13.333 119 -40
s41 -65 41 -115z" />
    <glyph glyph-name="p" unicode="p" 
d="M165 80l190 -0.00195312c22.667 0 40.834 6.83301 54.501 20.5s20.5 31.834 20.5 54.501v210c0 22.667 -6.83301 40.834 -20.5 54.501s-31.834 20.5 -54.501 20.5h-85c-30 0 -55 -10 -75 -30s-30 -45 -30 -75v-255zM355 -0.00195312l-190 0.000976562v-175
c0 -10 -5 -15 -15 -15h-55c-10 0 -15 5 -15 15v670c0 10 5 15 15 15h55c10 0 15 -5 15 -15v-35h5c0.666992 1.33301 1.66699 3.5 3 6.5s5 7.83301 11 14.5s12.833 12.667 20.5 18s18.167 10.166 31.5 14.499s28 6.5 44 6.5h75c52 0 91.667 -13.333 119 -40s41 -65 41 -115
v-210c0 -50 -13.667 -88.333 -41 -115s-67 -40 -119 -40z" />
    <glyph glyph-name="q" unicode="q" 
d="M230 430c-22.667 0 -40.834 -6.83105 -54.501 -20.498s-20.5 -31.834 -20.5 -54.501v-200c0 -22.667 6.83301 -40.834 20.5 -54.501s31.834 -20.5 54.501 -20.5h190v350h-190zM230 510.002h260c10 0 15 -5 15 -15v-670c0 -10 -5 -15 -15 -15h-55c-10 0 -15 5 -15 15v175
h-190c-52 0 -91.667 13.333 -119 40s-41 65 -41 115v200c0 50 13.667 88.333 41 115s67 40 119 40z" />
    <glyph glyph-name="r" unicode="r" horiz-adv-x="360" 
d="M80 15v480.001c0 10 5 15 15 15h55c10 0 15 -5 15 -15v-35h5c0.666992 1.33301 1.66699 3.5 3 6.5s5 7.83301 11 14.5s12.833 12.667 20.5 18s18.167 10.166 31.5 14.499s28 6.5 44 6.5h55c10 0 15 -5 15 -15v-50c0 -10 -5 -15 -15 -15h-65c-30 0 -55 -10 -75 -30
s-30 -45 -30 -75v-320c0 -10 -5 -15 -15 -15h-55c-10 0 -15 5 -15 15z" />
    <glyph glyph-name="s" unicode="s" horiz-adv-x="540" 
d="M60 365v10c0 96.667 50 145 150 145h100c52 0 91.667 -13.333 119 -40s41 -65 41 -115v-10c0 -10 -5 -15 -15 -15h-55c-10 0 -15 5 -15 15v10c0 22.667 -6.83301 40.834 -20.5 54.501s-31.834 20.5 -54.501 20.5h-100c-20 0 -35.833 -5.83301 -47.5 -17.5
s-17.5 -27.5 -17.5 -47.5v-5c0 -20 11.667 -33.333 35 -40l220 -70c53.333 -16.667 80 -53.334 80 -110.001v-15c0 -96.667 -50 -145 -150 -145h-120c-52 0 -91.667 13.333 -119 40s-41 65 -41 115v10c0 10 5 15 15 15h55c10 0 15 -5 15 -15v-10
c0 -22.667 6.83301 -40.834 20.5 -54.501s31.834 -20.5 54.501 -20.5h120c20 0 35.833 5.83301 47.5 17.5s17.5 27.5 17.5 47.5v10c0 20 -11.667 33.333 -35 40l-220 70c-53.333 16.667 -80 53.334 -80 110.001z" />
    <glyph glyph-name="t" unicode="t" horiz-adv-x="400" 
d="M45 510h75v105c0 10 5 15 15 15h55c10 0 15 -5 15 -15v-105h100c10 0 15 -5 15 -15v-50c0 -10 -5 -15 -15 -15h-100v-280c0 -20 6.66699 -36.667 20 -50s30 -20 50 -20h60c10 0 15 -5 15 -15v-50c0 -10 -5 -15 -15 -15h-60c-50 0 -88.333 13 -115 39s-40 63 -40 111v280
h-75c-10 0 -15 5 -15 15v50c0 10 5 15 15 15z" />
    <glyph glyph-name="u" unicode="u" horiz-adv-x="595" 
d="M315 -10h-75.001c-52 0 -91.667 13.333 -119 40s-41 65 -41 115v350c0 10 5 15 15 15h55c10 0 15 -5 15 -15v-350c0 -22.667 6.83301 -40.834 20.5 -54.501s31.834 -20.5 54.501 -20.5h85c30 0 55 10 75 30s30 45 30 75v320c0 10 5 15 15 15h55c10 0 15 -5 15 -15v-480
c0 -10 -5 -15 -15 -15h-55c-10 0 -15 5 -15 15v35h-5c-0.666992 -1.33301 -1.66699 -3.5 -3 -6.5s-5 -7.83301 -11 -14.5s-12.833 -12.667 -20.5 -18s-18.167 -10.166 -31.5 -14.499s-28 -6.5 -44 -6.5z" />
    <glyph glyph-name="v" unicode="v" horiz-adv-x="509" 
d="M277 0h-45c-12.667 0 -21 5 -25 15l-190 480c-4 10 -0.666992 15 10 15h60c12.667 0 21 -5 25 -15l140 -370h5l140 370c4 10 12.333 15 25 15h60c10.667 0 14 -5 10 -15l-190 -480c-4 -10 -12.333 -15 -25 -15z" />
    <glyph glyph-name="w" unicode="w" horiz-adv-x="709" 
d="M332 510h45.001c14 0 22.333 -5 25 -15l95 -345h5l95 345c3.33301 10 11.666 15 24.999 15h55c10 0 13.333 -5 10 -15l-135 -480c-2.66699 -10 -11 -15 -25 -15h-45c-13.333 0 -21.666 5 -24.999 15l-100 360h-5l-100 -360c-2.66699 -10 -11 -15 -25 -15h-45
c-13.333 0 -21.666 5 -24.999 15l-135 480c-2.66699 10 0.666016 15 9.99902 15h55c14 0 22.333 -5 25 -15l95 -345h5l95 345c3.33301 10 11.666 15 24.999 15z" />
    <glyph glyph-name="x" unicode="x" horiz-adv-x="476" 
d="M128 495l110 -170l110 170c6 10 14.333 15 25 15h60c12.667 0 16 -5 10 -15l-150 -230l165 -250c2.66699 -4.66699 3 -8.33398 1 -11.001s-5.66699 -4 -11 -4h-60c-10.667 0 -19 5 -25 15l-125 190l-125 -190c-6 -10 -14.333 -15 -25 -15h-60
c-5.33301 0 -9 1.33301 -11 4s-1.66699 6.33398 1 11.001l165 250l-150 230c-6 10 -2.66699 15 10 15h60c10.667 0 19 -5 25 -15z" />
    <glyph glyph-name="y" unicode="y" horiz-adv-x="509" 
d="M257 120l140.002 375c4 10 12.333 15 25 15h60c10.667 0 14 -5 10 -15l-195 -495c-27.333 -70 -55.5 -119.167 -84.5 -147.5s-65.833 -42.5 -110.5 -42.5h-20c-10 0 -15 5 -15 15v50c0 10 5 15 15 15h20c25.333 0 46.166 8.33301 62.499 25s32.166 45 47.499 85l-195 495
c-4 10 -0.666992 15 10 15h60c12.667 0 21 -5 25 -15l140 -375h5z" />
    <glyph glyph-name="z" unicode="z" horiz-adv-x="470" 
d="M335 425v5h-280c-10 0 -15 5 -15 15v50c0 10 5 15 15 15h370c10 0 15 -5 15 -15v-55c0 -13.333 -3.33301 -23.333 -10 -30l-295 -325v-5h290c10 0 15 -5 15 -15v-50c0 -10 -5 -15 -15 -15h-380c-10 0 -15 5 -15 15v55c0 13.333 3.33301 23.333 10 30z" />
    <glyph glyph-name="braceleft" unicode="{" horiz-adv-x="405" 
d="M180 283v-6.00195c2 -0.666992 4.66699 -1.5 8 -2.5s9.33301 -4.33301 18 -10s16.334 -12.667 23.001 -21s12.667 -20.333 18 -36s8 -33.167 8 -52.5v-150c0 -56.667 28.333 -85 85 -85h20c10 0 15 -5 15 -15v-60c0 -10 -5 -15 -15 -15h-20c-120 0 -180 58.333 -180 175
v150c0 56.667 -28.333 85 -85 85h-10c-10 0 -15 5 -15 15v50c0 10 5 15 15 15h10c56.667 0 85 28.333 85 85v150c0 116.667 60 175 180 175h20c10 0 15 -5 15 -15v-60c0 -10 -5 -15 -15 -15h-20c-56.667 0 -85 -28.333 -85 -85v-150c0 -19.333 -2.5 -36.833 -7.5 -52.5
s-11.167 -27.667 -18.5 -36s-14.833 -15.166 -22.5 -20.499s-13.834 -8.66602 -18.501 -9.99902z" />
    <glyph glyph-name="bar" unicode="|" horiz-adv-x="335" 
d="M215 685v-860c0 -10 -5 -15 -15 -15h-65c-10 0 -15 5 -15 15v860c0 10 5 15 15 15h65c10 0 15 -5 15 -15z" />
    <glyph glyph-name="braceright" unicode="}" horiz-adv-x="405" 
d="M225 277l0.00195312 6.00195c-2 0.666992 -4.66699 1.5 -8 2.5s-9.33301 4.33301 -18 10s-16.334 12.667 -23.001 21s-12.667 20.333 -18 36s-8 33.167 -8 52.5v150c0 56.667 -28.333 85 -85 85h-20c-10 0 -15 5 -15 15v60c0 10 5 15 15 15h20
c120 0 180 -58.333 180 -175v-150c0 -56.667 28.333 -85 85 -85h10c10 0 15 -5 15 -15v-50c0 -10 -5 -15 -15 -15h-10c-56.667 0 -85 -28.333 -85 -85v-150c0 -116.667 -60 -175 -180 -175h-20c-10 0 -15 5 -15 15v60c0 10 5 15 15 15h20c56.667 0 85 28.333 85 85v150
c0 19.333 2.5 36.833 7.5 52.5s11.333 27.667 19 36s15.167 15.166 22.5 20.499s13.666 8.66602 18.999 9.99902z" />
    <glyph glyph-name="asciitilde" unicode="~" horiz-adv-x="420" 
d="M300 230c-22.667 0 -45.334 8.33301 -68.001 25s-42.667 33.334 -60 50.001s-31.333 25 -42 25c-5.33301 0 -10 -2 -14 -6s-6 -8.66699 -6 -14v-60c0 -13.333 -6.33301 -20 -19 -20h-41c-7.33301 0 -12.5 1.5 -15.5 4.5s-4.5 8.16699 -4.5 15.5v60
c0 29.333 8.66699 53.333 26 72s38.666 28 63.999 28c22.667 0 45.334 -8.33301 68.001 -25s42.667 -33.334 60 -50.001s31.333 -25 42 -25c5.33301 0 10 2 14 6s6 8.66699 6 14v60c0 13.333 6.33301 20 19 20h41c7.33301 0 12.5 -1.5 15.5 -4.5s4.5 -8.16699 4.5 -15.5v-60
c0 -29.333 -8.66699 -53.333 -26 -72s-38.666 -28 -63.999 -28z" />
    <glyph glyph-name="nbspace" unicode="&#xa0;" horiz-adv-x="200" 
 />
    <glyph glyph-name="exclamdown" unicode="&#xa1;" horiz-adv-x="290" 
d="M125 310h40c8.66699 0 13.667 -5 15 -15l10 -155v-315c0 -10 -5 -15 -15 -15h-60c-10 0 -15 5 -15 15v315l10 155c1.33301 10 6.33301 15 15 15zM115 510h60c10 0 15 -5 15 -15v-60c0 -10 -5 -15 -15 -15h-60c-10 0 -15 5 -15 15v60c0 10 5 15 15 15z" />
    <glyph glyph-name="cent" unicode="&#xa2;" horiz-adv-x="565" 
d="M265 600h55c10 0 15 -5 15 -15v-65h10c52 0 91.667 -13.333 119 -40s41 -65 41 -115v-25c0 -10 -5 -15 -15 -15h-55c-10 0 -15 5 -15 15v25c0 22.667 -6.83301 40.834 -20.5 54.501s-31.834 20.5 -54.501 20.5h-115c-22.667 0 -40.834 -6.83301 -54.501 -20.5
s-20.5 -31.834 -20.5 -54.501v-220c0 -22.667 6.83301 -40.834 20.5 -54.501s31.834 -20.5 54.501 -20.5h115c22.667 0 40.834 6.83301 54.501 20.5s20.5 31.834 20.5 54.501v25c0 10 5 15 15 15h55c10 0 15 -5 15 -15v-25c0 -50 -13.667 -88.333 -41 -115s-67 -40 -119 -40
h-10v-65c0 -10 -5 -15 -15 -15h-55c-10 0 -15 5 -15 15v65h-20c-52 0 -91.667 13.333 -119 40s-41 65 -41 115v220c0 50 13.667 88.333 41 115s67 40 119 40h20v65c0 10 5 15 15 15z" />
    <glyph glyph-name="sterling" unicode="&#xa3;" horiz-adv-x="540" 
d="M525 0h-490c-10 0 -15 5 -15 15v60c0 10 5 15 15 15h115v220h-65c-10 0 -15 5 -15 15v60c0 10 5 15 15 15h65v125c0 116.667 60 175 180 175h75c10 0 15 -5 15 -15v-60c0 -10 -5 -15 -15 -15h-75c-56.667 0 -85 -28.333 -85 -85v-125h120c10 0 15 -5 15 -15v-60
c0 -10 -5 -15 -15 -15h-120v-220h280c10 0 15 -5 15 -15v-60c0 -10 -5 -15 -15 -15z" />
    <glyph glyph-name="currency" unicode="&#xa4;" horiz-adv-x="700" 
d="M550 205v-60c0 -10 -5 -15 -15 -15h-310v-115c0 -10 -5 -15 -15 -15h-65c-10 0 -15 5 -15 15v115h-65c-10 0 -15 5 -15 15v60c0 10 5 15 15 15h65v70h-65c-10 0 -15 5 -15 15v60c0 10 5 15 15 15h65v305c0 10 5 15 15 15h315c120 0 180 -58.333 180 -175v-60
c0 -116.667 -60 -175 -180 -175h-235v-70h310c10 0 15 -5 15 -15zM225 380h235c56.667 0 85 28.333 85 85v60c0 56.667 -28.333 85 -85 85h-235v-230z" />
    <glyph glyph-name="yen" unicode="&#xa5;" horiz-adv-x="644" 
d="M507 100h-140v-86c0 -9.33301 -5 -14 -15 -14h-60c-10 0 -15 4.66699 -15 14v86h-140c-10 0 -15 5 -15 15v50c0 10 5 15 15 15h140v55h-140c-10 0 -15 5 -15 15v50c0 10 5 15 15 15h100l-225 370c-5.33301 10 -2 15 10 15h75c10.667 0 19 -5 25 -15l200 -340l200 340
c6 10 14.333 15 25 15h75c12 0 15.333 -5 10 -15l-225 -370h100c10 0 15 -5 15 -15v-50c0 -10 -5 -15 -15 -15h-140v-55h140c10 0 15 -5 15 -15v-50c0 -10 -5 -15 -15 -15z" />
    <glyph glyph-name="brokenbar" unicode="&#xa6;" horiz-adv-x="335" 
d="M215 685v-330c0 -10 -5 -15 -15 -15h-65c-10 0 -15 5 -15 15v330c0 10 5 15 15 15h65c10 0 15 -5 15 -15zM215 155v-330c0 -10 -5 -15 -15 -15h-65c-10 0 -15 5 -15 15v330c0 10 5 15 15 15h65c10 0 15 -5 15 -15z" />
    <glyph glyph-name="section" unicode="&#xa7;" horiz-adv-x="580" 
d="M390 330l-160 50c-2 -0.666992 -4.66699 -1.5 -8 -2.5s-9.33301 -3.66699 -18 -8s-16.334 -9.66602 -23.001 -15.999s-12.667 -15.666 -18 -27.999s-8 -25.833 -8 -40.5v-60c0 -23.333 11.667 -38.333 35 -45l160 -50c2 0.666992 4.66699 1.5 8 2.5s9.33301 3.66699 18 8
s16.334 9.66602 23.001 15.999s12.667 15.666 18 27.999s8 25.833 8 40.5v60c0 22 -11.667 37 -35 45zM80 525v20c0 50 13.667 88.333 41 115s67 40 119 40h100c52 0 91.667 -13.333 119 -40s41 -65 41 -115v-10c0 -10 -5 -15 -15 -15h-55c-10 0 -15 5 -15 15v10
c0 22.667 -6.83301 40.834 -20.5 54.501s-31.834 20.5 -54.501 20.5h-100c-22.667 0 -40.834 -6.83301 -54.501 -20.5s-20.5 -31.834 -20.5 -54.501v-20c0 -22 11.667 -37 35 -45l230 -75c53.333 -17.333 80 -57.333 80 -120v-60c0 -18 -2.66699 -34.167 -8 -48.5
s-12 -25.5 -20 -33.5s-16 -14.667 -24 -20s-14.667 -9 -20 -11l-8 -2v-10c2 -0.666992 4.5 -1.66699 7.5 -3s8.5 -4.83301 16.5 -10.5s15.167 -12.334 21.5 -20.001s12 -18.667 17 -33s7.5 -30.5 7.5 -48.5v-30c0 -50 -13.667 -88.333 -41 -115s-67 -40 -119 -40h-100
c-52 0 -91.667 13.333 -119 40s-41 65 -41 115v10c0 10 5 15 15 15h55c10 0 15 -5 15 -15v-10c0 -22.667 6.83301 -40.834 20.5 -54.501s31.834 -20.5 54.501 -20.5h100c22.667 0 40.834 6.83301 54.501 20.5s20.5 31.834 20.5 54.501v30c0 22 -11.667 37 -35 45l-230 75
c-53.333 17.333 -80 57.333 -80 120v60c0 18 2.66699 34.167 8 48.5s12 25.5 20 33.5s16 14.667 24 20s14.667 9 20 11l8 2v10c-2 0.666992 -4.5 1.66699 -7.5 3s-8.5 4.83301 -16.5 10.5s-15.167 12.334 -21.5 20.001s-12 18.667 -17 33s-7.5 30.5 -7.5 48.5z" />
    <glyph glyph-name="dieresis" unicode="&#xa8;" horiz-adv-x="330" 
d="M105 610h-60c-10 0 -15 5 -15 15v60c0 10 5 15 15 15h60c10 0 15 -5 15 -15v-60c0 -10 -5 -15 -15 -15zM285 610h-60c-10 0 -15 5 -15 15v60c0 10 5 15 15 15h60c10 0 15 -5 15 -15v-60c0 -10 -5 -15 -15 -15z" />
    <glyph glyph-name="copyright" unicode="&#xa9;" horiz-adv-x="890" 
d="M90 175v350c0 116.667 60 175 180 175h350c120 0 180 -58.333 180 -175v-350c0 -116.667 -60 -175 -180 -175h-350c-120 -0 -180 58.333 -180 175zM705 175v350c0 56.667 -28.333 85 -85 85h-350c-56.667 0 -85 -28.333 -85 -85v-350c0 -56.667 28.333 -85 85 -85h350
c56.667 0 85 28.333 85 85zM375 420v-140c0 -16.667 8.33301 -25 25 -25h90c16.667 0 25 8.33301 25 25v15c0 6.66699 3.33301 10 10 10h55c6.66699 0 10 -3.33301 10 -10v-15c0 -66.667 -33.333 -100 -100 -100h-90c-66.667 0 -100 33.333 -100 100v140
c0 66.667 33.333 100 100 100h90c66.667 0 100 -33.333 100 -100v-15c0 -6.66699 -3.33301 -10 -10 -10h-55c-6.66699 0 -10 3.33301 -10 10v15c0 16.667 -8.33301 25 -25 25h-90c-16.667 0 -25 -8.33301 -25 -25z" />
    <glyph glyph-name="ordfeminine" unicode="&#xaa;" horiz-adv-x="375" 
d="M260 495v15h-120c-16.667 0 -25 -8.33301 -25 -25v-15c0 -16.667 8.33301 -25 25 -25h70c14.667 0 26.667 4.5 36 13.5s14 21.167 14 36.5zM125 600c0 -6.66699 -3.33496 -10 -10.002 -10h-55c-6.66699 0 -10 3.33301 -10 10c0 66.667 36.667 100 110 100h55
c44.667 0 75.834 -8.5 93.501 -25.5s26.5 -46.833 26.5 -89.5v-185c0 -6.66699 -3.33301 -10 -10 -10h-55c-6.66699 0 -10 3.33301 -10 10v18h-5l-5.5 -10.5c-2.33301 -4.33301 -9.16602 -10 -20.499 -17s-24.333 -10.5 -39 -10.5h-40c-36.667 0 -64.167 8 -82.5 24
s-27.5 38 -27.5 66v10c0 28 8.66699 50 26 66s42 24 74 24h120v15c0 30 -15 45 -45 45h-55c-10 0 -18.333 -3 -25 -9s-10 -13 -10 -21z" />
    <glyph glyph-name="guillemotleft" unicode="&#xab;" horiz-adv-x="493" 
d="M260 450l-125 -195l125 -195c6 -10 2.66699 -15 -10 -15h-60c-10 0 -18.333 5 -25 15l-125 195l125 195c6.66699 10 15 15 25 15h60c12.667 0 16 -5 10 -15zM450 450l-125 -195l125 -195c6 -10 2.66699 -15 -10 -15h-60c-10 0 -18.333 5 -25 15l-125 195l125 195
c6.66699 10 15 15 25 15h60c12.667 0 16 -5 10 -15z" />
    <glyph glyph-name="logicalnot" unicode="&#xac;" horiz-adv-x="445" 
d="M30 335v60c0 10 5 15 15 15h355c10 0 15 -5 15 -15v-170c0 -10 -5 -15 -15 -15h-55c-10 0 -15 5 -15 15v95h-285c-10 0 -15 5 -15 15z" />
    <glyph glyph-name="uni00AD" unicode="&#xad;" horiz-adv-x="435" 
d="M405 340v-60c0 -10 -5 -15 -15 -15h-345c-10 0 -15 5 -15 15v60c0 10 5 15 15 15h345c10 0 15 -5 15 -15z" />
    <glyph glyph-name="registered" unicode="&#xae;" horiz-adv-x="890" 
d="M515 420c0 16.667 -8.33301 25 -25 25h-115v-85h115c16.667 0 25 8.33301 25 25v35zM519 190l-54.001 94.999h-90v-95c0 -6.66699 -3.33301 -10 -10 -10h-55c-6.66699 0 -10 3.33301 -10 10v320c0 6.66699 3.33301 10 10 10h180c66.667 0 100 -33.333 100 -100v-35
c0 -22 -4.66699 -40.167 -14 -54.5s-18.666 -23.166 -27.999 -26.499l-13 -4l65 -110c1.33301 -2.66699 1.5 -5 0.5 -7s-2.83301 -3 -5.5 -3h-60c-6.66699 0 -12 3.33301 -16 10zM89.999 174.999v350c0 116.667 60 175 180 175h350c120 0 180 -58.333 180 -175v-350
c0 -116.667 -60 -175 -180 -175h-350c-120 0 -180 58.333 -180 175zM704.999 174.999v350c0 56.667 -28.333 85 -85 85h-350c-56.667 0 -85 -28.333 -85 -85v-350c0 -56.667 28.333 -85 85 -85h350c56.667 0 85 28.333 85 85z" />
    <glyph glyph-name="macron" unicode="&#xaf;" horiz-adv-x="340" 
d="M310 685v-40c0 -10 -5 -15 -15 -15h-250c-10 0 -15 5 -15 15v40c0 10 5 15 15 15h250c10 0 15 -5 15 -15z" />
    <glyph glyph-name="degree" unicode="&#xb0;" horiz-adv-x="400" 
d="M180 450h40c14.667 0 27.5 5.33301 38.5 16s16.5 23.667 16.5 39v70c0 15.333 -5.5 28.333 -16.5 39s-23.833 16 -38.5 16h-40c-14.667 0 -27.5 -5.33301 -38.5 -16s-16.5 -23.667 -16.5 -39v-70c0 -15.333 5.5 -28.333 16.5 -39s23.833 -16 38.5 -16zM220 380h-40
c-44.667 0 -77.5 10.167 -98.5 30.5s-31.5 51.833 -31.5 94.5v70c0 42.667 10.5 74.167 31.5 94.5s53.833 30.5 98.5 30.5h40c44.667 0 77.5 -10.167 98.5 -30.5s31.5 -51.833 31.5 -94.5v-70c0 -42.667 -10.5 -74.167 -31.5 -94.5s-53.833 -30.5 -98.5 -30.5z" />
    <glyph glyph-name="plusminus" unicode="&#xb1;" horiz-adv-x="475" 
d="M190 170v150h-135c-10 0 -15 5 -15 15v60c0 10 5 15 15 15h135v150c0 10 5 15 15 15h65c10 0 15 -5 15 -15v-150h135c10 0 15 -5 15 -15v-60c0 -10 -5 -15 -15 -15h-135v-150h130c10 0 15 -5 15 -15v-60c0 -10 -5 -15 -15 -15h-355c-10 0 -15 5 -15 15v60
c0 10 5 15 15 15h130z" />
    <glyph glyph-name="twosuperior" unicode="&#xb2;" horiz-adv-x="325" 
d="M295 695c0 -32 -15 -57 -45 -75l-115 -65v-5h140c6.66699 0 10 -3.33301 10 -10v-50c0 -6.66699 -3.33301 -10 -10 -10h-235c-6.66699 0 -10 3.33301 -10 10v60c0 12 5 20.333 15 25l145 85c20 10 30 21.667 30 35v5c0 20 -10 30 -30 30h-50c-10 0 -18.333 -3 -25 -9
s-10 -13 -10 -21c0 -6.66699 -3.33301 -10 -10 -10h-55c-6.66699 0 -10 3.33301 -10 10c0 66.667 36.667 100 110 100h50c40 0 67.5 -7.33301 82.5 -22s22.5 -40.667 22.5 -78v-5z" />
    <glyph glyph-name="threesuperior" unicode="&#xb3;" horiz-adv-x="325" 
d="M110 685l65 39.999v5h-130c-6.66699 0 -10 3.33301 -10 10v50c0 6.66699 3.33301 10 10 10h235c6.66699 0 10 -3.33301 10 -10v-50c0 -8 -5 -14.667 -15 -20l-65 -40v-5c56.667 0 85 -25 85 -75v-20c0 -37.333 -7.5 -63.333 -22.5 -78s-42.5 -22 -82.5 -22h-50
c-73.333 0 -110 33.333 -110 100c0 6.66699 3.33301 10 10 10h55c6.66699 0 10 -3.33301 10 -10c0 -8 3.33301 -15 10 -21s15 -9 25 -9h50c20 0 30 10 30 30v20c0 20 -10 30 -30 30h-85c-6.66699 0 -10 3.33301 -10 10v25c0 8.66699 5 15.334 15 20.001z" />
    <glyph glyph-name="acute" unicode="&#xb4;" horiz-adv-x="225" 
d="M192 685l-90 -134.999c-6 -10 -12.667 -15 -20 -15h-40c-10.667 0 -14 5 -10 15l60 135c5.33301 10 12 15 20 15h70c5.33301 0 9 -1.33301 11 -4s1.66699 -6.33398 -1 -11.001z" />
    <glyph glyph-name="mu" unicode="&#xb5;" horiz-adv-x="595" 
d="M315 -10l-75 -0.000976562c-14.667 0 -28.334 2.83301 -41.001 8.5s-21.667 11.5 -27 17.5l-7 9v-200c0 -10 -5 -15 -15 -15h-55c-10 0 -15 5 -15 15v670c0 8.66699 3.66699 13.667 11 15h4h55c6 0 10 -1.66699 12 -5s3 -6.66602 3 -9.99902v-350
c0 -22.667 6.83301 -40.834 20.5 -54.501s31.834 -20.5 54.501 -20.5h85c30 0 55 10 75 30s30 45 30 75v320c0 10 5 15 15 15h55c10 0 15 -5 15 -15v-480c0 -10 -5 -15 -15 -15h-55c-10 0 -15 5 -15 15v35h-5c-0.666992 -1.33301 -1.66699 -3.5 -3 -6.5
s-5 -7.83301 -11 -14.5s-12.833 -12.667 -20.5 -18s-18.167 -10.166 -31.5 -14.499s-28 -6.5 -44 -6.5z" />
    <glyph glyph-name="paragraph" unicode="&#xb6;" horiz-adv-x="650" 
d="M230 330c-54.667 0 -96.667 14.667 -126 44s-44 71.333 -44 126v30c0 55.333 14.833 97.5 44.5 126.5s73.167 43.5 130.5 43.5h300c10 0 15 -5 15 -15v-710c0 -116.667 -60 -175 -180 -175h-205c-10 0 -15 5 -15 15v55c0 10 5 15 15 15h50c10 0 15 5 15 15v430zM320 -115
h50c60 0 90 30 90 90v640h-140v-730z" />
    <glyph glyph-name="periodcentered" unicode="&#xb7;" horiz-adv-x="200" 
d="M130 255h-60c-10 0 -15 5 -15 15v60c0 10 5 15 15 15h60c10 0 15 -5 15 -15v-60c0 -10 -5 -15 -15 -15z" />
    <glyph glyph-name="cedilla" unicode="&#xb8;" horiz-adv-x="245" 
d="M45 -200h75c10 0 18.333 3.33301 25 10s10 15 10 25v10c0 10 -3.33301 18.333 -10 25s-15 10 -25 10h-65c-10 0 -15 5 -15 15v35c0 6 0.833008 11.5 2.5 16.5s3.5 8.5 5.5 10.5l2 3l25 40h55l-35 -60h25c27.333 0 50 -9 68 -27s27 -40.667 27 -68v-10
c0 -27.333 -9 -50 -27 -68s-40.667 -27 -68 -27h-75c-10 0 -15 5 -15 15v30c0 10 5 15 15 15z" />
    <glyph glyph-name="onesuperior" unicode="&#xb9;" horiz-adv-x="235" 
d="M120 730h-80c-6.66699 0 -10 3.33301 -10 10v50c0 6.66699 3.33301 10 10 10h145c6.66699 0 10 -3.33301 10 -10v-300c0 -6.66699 -3.33301 -10 -10 -10h-55c-6.66699 0 -10 3.33301 -10 10v240z" />
    <glyph glyph-name="ordmasculine" unicode="&#xba;" horiz-adv-x="350" 
d="M320 575v-70c0 -45.333 -9.83301 -77.5 -29.5 -96.5s-53.167 -28.5 -100.5 -28.5h-30c-47.333 0 -80.833 9.5 -100.5 28.5s-29.5 51.167 -29.5 96.5v70c0 45.333 9.83301 77.5 29.5 96.5s53.167 28.5 100.5 28.5h30c47.333 0 80.833 -9.5 100.5 -28.5
s29.5 -51.167 29.5 -96.5zM105 575v-70c0 -36.667 18.333 -55 55 -55h30c36.667 0 55 18.333 55 55v70c0 36.667 -18.333 55 -55 55h-30c-36.667 0 -55 -18.333 -55 -55z" />
    <glyph glyph-name="guillemotright" unicode="&#xbb;" horiz-adv-x="493" 
d="M358 255l-125 195c-6 10 -2.66699 15 10 15h60c10 0 18.333 -5 25 -15l125 -195l-125 -195c-6.66699 -10 -15 -15 -25 -15h-60c-12.667 0 -16 5 -10 15zM168 255l-125 195c-6 10 -2.66699 15 10 15h60c10 0 18.333 -5 25 -15l125 -195l-125 -195
c-6.66699 -10 -15 -15 -25 -15h-60c-12.667 0 -16 5 -10 15z" />
    <glyph glyph-name="onequarter" unicode="&#xbc;" horiz-adv-x="715" 
d="M125 15l315 670c5.33301 10 12 15 20 15h70c12 0 15.333 -5 10 -15l-315 -670c-4.66699 -10 -11.334 -15 -20.001 -15h-70c-11.333 0 -14.666 5 -9.99902 15zM110 630h-80c-6.66699 0 -10 3.33301 -10 10v50c0 6.66699 3.33301 10 10 10h145
c6.66699 0 10 -3.33301 10 -10v-300c0 -6.66699 -3.33301 -10 -10 -10h-55c-6.66699 0 -10 3.33301 -10 10v240zM630 310v-180h35c6.66699 0 10 -3.33301 10 -10v-40c0 -6.66699 -3.33301 -10 -10 -10h-35v-60c0 -6.66699 -3.33301 -10 -10 -10h-55
c-6.66699 -0 -10 3.33301 -10 10v60h-160c-6.66699 0 -10 3.33301 -10 10v35c0 2.66699 0.833008 6.16699 2.5 10.5s3.16699 7.83301 4.5 10.5l3 4l125 170c5.33301 6.66699 12 10 20 10h80c6.66699 0 10 -3.33301 10 -10zM465 130h90v120h-5l-85 -115v-5z" />
    <glyph glyph-name="onehalf" unicode="&#xbd;" horiz-adv-x="730" 
d="M125 15l315 670c5.33301 10 12 15 20 15h70c12 0 15.333 -5 10 -15l-315 -670c-4.66699 -10 -11.334 -15 -20.001 -15h-70c-11.333 0 -14.666 5 -9.99902 15zM110 630h-80c-6.66699 0 -10 3.33301 -10 10v50c0 6.66699 3.33301 10 10 10h145
c6.66699 0 10 -3.33301 10 -10v-300c0 -6.66699 -3.33301 -10 -10 -10h-55c-6.66699 0 -10 3.33301 -10 10v240zM690 215c0 -32 -15 -57 -45 -75l-115 -65v-5h140c6.66699 0 10 -3.33301 10 -10v-50c0 -6.66699 -3.33301 -10 -10 -10h-235c-6.66699 -0 -10 3.33301 -10 10
v60c0 12 5 20.333 15 25l145 85c20 10 30 21.667 30 35v5c0 20 -10 30 -30 30h-50c-10 0 -18.333 -3 -25 -9s-10 -13 -10 -21c0 -6.66699 -3.33301 -10 -10 -10h-55c-6.66699 0 -10 3.33301 -10 10c0 66.667 36.667 100 110 100h50c40 0 67.5 -7.33301 82.5 -22
s22.5 -40.667 22.5 -78v-5z" />
    <glyph glyph-name="threequarters" unicode="&#xbe;" horiz-adv-x="770" 
d="M180 15l315 670c4.66699 10 11.334 15 20.001 15h70c11.333 0 14.666 -5 9.99902 -15l-315 -670c-5.33301 -10 -12 -15 -20 -15h-70c-12 0 -15.333 5 -10 15zM685 310v-180h35c6.66699 0 10 -3.33301 10 -10v-40c0 -6.66699 -3.33301 -10 -10 -10h-35v-60
c0 -6.66699 -3.33301 -10 -10 -10h-55c-6.66699 -0 -10 3.33301 -10 10v60h-160c-6.66699 0 -10 3.33301 -10 10v35c0 2.66699 0.833008 6.16699 2.5 10.5s3.5 7.83301 5.5 10.5l2 4l125 170c5.33301 6.66699 12 10 20 10h80c6.66699 0 10 -3.33301 10 -10zM520 130h90v120
h-5l-85 -115v-5zM100 585l65 40v5h-130c-6.66699 0 -10 3.33301 -10 10v50c0 6.66699 3.33301 10 10 10h235c6.66699 0 10 -3.33301 10 -10v-50c0 -8 -5 -14.667 -15 -20l-65 -40v-5c27.333 0 48.333 -6.83301 63 -20.5s22 -31.834 22 -54.501v-20
c0 -37.333 -7.5 -63.333 -22.5 -78s-42.5 -22 -82.5 -22h-50c-73.333 0 -110 33.333 -110 100c0 6.66699 3.33301 10 10 10h55c6.66699 0 10 -3.33301 10 -10c0 -8 3.33301 -15 10 -21s15 -9 25 -9h50c20 0 30 10 30 30v20c0 20 -10 30 -30 30h-85
c-6.66699 0 -10 3.33301 -10 10v25c0 8.66699 5 15.334 15 20.001z" />
    <glyph glyph-name="questiondown" unicode="&#xbf;" horiz-adv-x="580" 
d="M240 240h40l10 55c2 10 7 15 15 15h40c8.66699 0 13.667 -5 15 -15l15 -130c0 -10 -5 -15 -15 -15h-120c-56.667 0 -85 -28.333 -85 -85v-90c0 -56.667 28.333 -85 85 -85h150c56.667 0 85 28.333 85 85v30c0 10 5 15 15 15h65c10 0 15 -5 15 -15v-30
c0 -116.667 -60 -175 -180 -175h-150c-120 0 -180 58.333 -180 175v90c0 116.667 60 175 180 175zM295 510h60c10 0 15 -5 15 -15v-60c0 -10 -5 -15 -15 -15h-60c-10 0 -15 5 -15 15v60c0 10 5 15 15 15z" />
    <glyph glyph-name="Agrave" unicode="&#xc0;" horiz-adv-x="664" 
d="M212 270h240l-118 320h-4zM487 180h-309.998l-60 -165c-4 -10 -12.333 -15 -25 -15h-70c-10.667 0 -14 5 -10 15l260 670c5.33301 10 13.666 15 24.999 15h70c11.333 0 19.666 -5 24.999 -15l260 -670c4 -10 0.666992 -15 -10 -15h-70c-12.667 0 -21 5 -25 15z
M282.002 795l-90 134.999c-2.66699 4.66699 -3 8.33398 -1 11.001s5.66699 4 11 4h70c8 0 14.667 -5 20 -15l60 -135c4 -10 0.666992 -15 -10 -15h-40c-7.33301 0 -14 5 -20 15z" />
    <glyph glyph-name="Aacute" unicode="&#xc1;" horiz-adv-x="664" 
d="M212 270h240l-118 320h-4zM487 180h-309.998l-60 -165c-4 -10 -12.333 -15 -25 -15h-70c-10.667 0 -14 5 -10 15l260 670c5.33301 10 13.666 15 24.999 15h70c11.333 0 19.666 -5 24.999 -15l260 -670c4 -10 0.666992 -15 -10 -15h-70c-12.667 0 -21 5 -25 15z
M472.002 930l-90 -134.999c-6 -10 -12.667 -15 -20 -15h-40c-10.667 0 -14 5 -10 15l60 135c5.33301 10 12 15 20 15h70c5.33301 0 9 -1.33301 11 -4s1.66699 -6.33398 -1 -11.001z" />
    <glyph glyph-name="Acircumflex" unicode="&#xc2;" horiz-adv-x="664" 
d="M212 270h240l-118 320h-4zM487 180h-309.998l-60 -165c-4 -10 -12.333 -15 -25 -15h-70c-10.667 0 -14 5 -10 15l260 670c5.33301 10 13.666 15 24.999 15h70c11.333 0 19.666 -5 24.999 -15l260 -670c4 -10 0.666992 -15 -10 -15h-70c-12.667 0 -21 5 -25 15z
M309.002 955h44.999c8.66699 0 17 -5 25 -15l110 -145c3.33301 -4.66699 3.83301 -8.33398 1.5 -11.001s-6.16602 -4 -11.499 -4h-55c-6.66699 0 -13.334 5 -20.001 15l-70 95h-5l-70 -95c-7.33301 -10 -14 -15 -20 -15h-55c-5.33301 0 -9.16602 1.33301 -11.499 4
s-1.83301 6.33398 1.5 11.001l110 145c8 10 16.333 15 25 15z" />
    <glyph glyph-name="Atilde" unicode="&#xc3;" horiz-adv-x="664" 
d="M212 270h240l-118 320h-4zM487 180h-309.998l-60 -165c-4 -10 -12.333 -15 -25 -15h-70c-10.667 0 -14 5 -10 15l260 670c5.33301 10 13.666 15 24.999 15h70c11.333 0 19.666 -5 24.999 -15l260 -670c4 -10 0.666992 -15 -10 -15h-70c-12.667 0 -21 5 -25 15z
M400.002 780c-16 0 -30.667 4.16699 -44 12.5s-23.5 17.5 -30.5 27.5s-14.167 19.167 -21.5 27.5s-13.666 12.5 -18.999 12.5c-4.66699 0 -9.16699 -2 -13.5 -6s-6.5 -8.66699 -6.5 -14v-45c0 -10 -5 -15 -15 -15h-35c-10 0 -15 5 -15 15v60c0 20 6.66699 36.667 20 50
s30 20 50 20c16 0 30.667 -4.16699 44 -12.5s23.5 -17.5 30.5 -27.5s14.167 -19.167 21.5 -27.5s13.666 -12.5 18.999 -12.5c4.66699 0 9.16699 2.16699 13.5 6.5s6.5 8.83301 6.5 13.5v45c0 10 5 15 15 15h35c10 0 15 -5 15 -15v-60c0 -20 -6.66699 -36.667 -20 -50
s-30 -20 -50 -20z" />
    <glyph glyph-name="Adieresis" unicode="&#xc4;" horiz-adv-x="664" 
d="M212 270h240l-118 320h-4zM487 180h-309.998l-60 -165c-4 -10 -12.333 -15 -25 -15h-70c-10.667 0 -14 5 -10 15l260 670c5.33301 10 13.666 15 24.999 15h70c11.333 0 19.666 -5 24.999 -15l260 -670c4 -10 0.666992 -15 -10 -15h-70c-12.667 0 -21 5 -25 15z
M275.002 800h-60c-10 0 -15 5 -15 15v60c0 10 5 15 15 15h60c10 0 15 -5 15 -15v-60c0 -10 -5 -15 -15 -15zM455.002 800h-60c-10 0 -15 5 -15 15v60c0 10 5 15 15 15h60c10 0 15 -5 15 -15v-60c0 -10 -5 -15 -15 -15z" />
    <glyph glyph-name="Aring" unicode="&#xc5;" horiz-adv-x="664" 
d="M212 270h240l-118 320h-4zM487 180h-309.998l-60 -165c-4 -10 -12.333 -15 -25 -15h-70c-10.667 0 -14 5 -10 15l260 670c5.33301 10 13.666 15 24.999 15h70c11.333 0 19.666 -5 24.999 -15l260 -670c4 -10 0.666992 -15 -10 -15h-70c-12.667 0 -21 5 -25 15z
M280.002 890v-25c0 -26.667 13.333 -40 40 -40h20c26.667 0 40 13.333 40 40v25c0 26.667 -13.333 40 -40 40h-20c-26.667 0 -40 -13.333 -40 -40zM220.002 865v25c0 28 9.16699 50.833 27.5 68.5s42.5 26.5 72.5 26.5h20c30 0 54.167 -8.83301 72.5 -26.5
s27.5 -40.5 27.5 -68.5v-25c0 -28 -9.16699 -50.833 -27.5 -68.5s-42.5 -26.5 -72.5 -26.5h-20c-30 0 -54.167 8.83301 -72.5 26.5s-27.5 40.5 -27.5 68.5z" />
    <glyph glyph-name="AE" unicode="&#xc6;" horiz-adv-x="1048" 
d="M603 90h389.999c10 0 15 -5 15 -15v-60c0 -10 -4.66699 -15 -14 -15h-471c-10 0 -15 5 -15 15v165h-345l-65 -165c-5.33301 -10 -13.666 -15 -24.999 -15h-60c-11.333 0 -15 5 -11 15l261 670c4.66699 10 12.667 15 24 15h696c10 0 15 -5 15 -15v-60
c0 -10 -4.66699 -15 -14 -15h-381v-210h290c10 0 15 -5 15 -15v-60c0 -10 -4.66699 -15 -14 -15h-291v-220zM507.999 270v340h-180l-130 -340h310z" />
    <glyph glyph-name="Ccedilla" unicode="&#xc7;" horiz-adv-x="750" 
d="M327 -200h75c10 0 18.333 3.33301 25 10s10 15 10 25v10c0 10 -3.33301 18.333 -10 25s-15 10 -25 10h-65c-10 0 -15 5 -15 15v35c0 6 0.833008 11.5 2.5 16.5s3.5 8.5 5.5 10.5l2 3l18 30h-80c-120 0 -180 58.333 -180 175v370c0 116.667 60 175 180 175h230
c120 0 180 -58.333 180 -175v-40c0 -10 -5 -15 -15 -15h-65c-10 0 -15 5 -15 15v40c0 56.667 -28.333 85 -85 85h-230c-56.667 0 -85 -28.333 -85 -85v-370c0 -56.667 28.333 -85 85 -85h230c56.667 0 85 28.333 85 85v40c0 10 5 15 15 15h65c10 0 15 -5 15 -15v-40
c0 -116.667 -60 -175 -180 -175h-95l-28 -50h25c27.333 0 50 -9 68 -27s27 -40.667 27 -68v-10c0 -27.333 -9 -50 -27 -68s-40.667 -27 -68 -27h-75c-10 0 -15 5 -15 15v30c0 10 5 15 15 15z" />
    <glyph glyph-name="Egrave" unicode="&#xc8;" horiz-adv-x="680" 
d="M195 90h430c10 0 15 -5 15 -15v-60c0 -10 -4.66699 -15 -14 -15h-511c-10 0 -15 5 -15 15v669c0 10.667 5 16 15 16h500c10 0 15 -5 15 -15v-60c0 -10 -4.66699 -15 -14 -15h-421v-210h330c10 0 15 -5 15 -15v-60c0 -10 -4.66699 -15 -14 -15h-331v-220zM338 795
l-90 134.999c-2.66699 4.66699 -3 8.33398 -1 11.001s5.66699 4 11 4h70c8 0 14.667 -5 20 -15l60 -135c4 -10 0.666992 -15 -10 -15h-40c-7.33301 0 -14 5 -20 15z" />
    <glyph glyph-name="Eacute" unicode="&#xc9;" horiz-adv-x="680" 
d="M195 90h430c10 0 15 -5 15 -15v-60c0 -10 -4.66699 -15 -14 -15h-511c-10 0 -15 5 -15 15v669c0 10.667 5 16 15 16h500c10 0 15 -5 15 -15v-60c0 -10 -4.66699 -15 -14 -15h-421v-210h330c10 0 15 -5 15 -15v-60c0 -10 -4.66699 -15 -14 -15h-331v-220zM491 930
l-90.001 -134.999c-6 -10 -12.667 -15 -20 -15h-40c-10.667 0 -14 5 -10 15l60 135c4.66699 10 11.334 15 20.001 15h70c5.33301 0 9 -1.33301 11 -4s1.66699 -6.33398 -1 -11.001z" />
    <glyph glyph-name="Ecircumflex" unicode="&#xca;" horiz-adv-x="680" 
d="M195 90h430c10 0 15 -5 15 -15v-60c0 -10 -4.66699 -15 -14 -15h-511c-10 0 -15 5 -15 15v669c0 10.667 5 16 15 16h500c10 0 15 -5 15 -15v-60c0 -10 -4.66699 -15 -14 -15h-421v-210h330c10 0 15 -5 15 -15v-60c0 -10 -4.66699 -15 -14 -15h-331v-220zM348 955h44.999
c8.66699 0 17 -5 25 -15l110 -145c3.33301 -4.66699 3.83301 -8.33398 1.5 -11.001s-6.16602 -4 -11.499 -4h-55c-6 0 -12.667 5 -20 15l-70 95h-5l-70 -95c-6.66699 -10 -13.334 -15 -20.001 -15h-55c-5.33301 0 -9.16602 1.33301 -11.499 4s-1.83301 6.33398 1.5 11.001
l110 145c8 10 16.333 15 25 15z" />
    <glyph glyph-name="Edieresis" unicode="&#xcb;" horiz-adv-x="680" 
d="M195 90h430c10 0 15 -5 15 -15v-60c0 -10 -4.66699 -15 -14 -15h-511c-10 0 -15 5 -15 15v669c0 10.667 5 16 15 16h500c10 0 15 -5 15 -15v-60c0 -10 -4.66699 -15 -14 -15h-421v-210h330c10 0 15 -5 15 -15v-60c0 -10 -4.66699 -15 -14 -15h-331v-220zM305 810h-60
c-10 0 -15 5 -15 15v60c0 10 5 15 15 15h60c10 0 15 -5 15 -15v-60c0 -10 -5 -15 -15 -15zM485 810h-60c-10 0 -15 5 -15 15v60c0 10 5 15 15 15h60c10 0 15 -5 15 -15v-60c0 -10 -5 -15 -15 -15z" />
    <glyph glyph-name="Igrave" unicode="&#xcc;" horiz-adv-x="290" 
d="M95 15v670c0 10 5 15 15 15h65c10 0 15 -5 15 -15v-670c0 -10 -5 -15 -15 -15h-65c-10 0 -15 5 -15 15zM103 795l-90.001 134.999c-2.66699 4.66699 -3 8.33398 -1 11.001s5.66699 4 11 4h70c8.66699 0 15.334 -5 20.001 -15l60 -135c4 -10 0.666992 -15 -10 -15h-40
c-7.33301 0 -14 5 -20 15z" />
    <glyph glyph-name="Iacute" unicode="&#xcd;" horiz-adv-x="295" 
d="M100 15v670c0 10 5 15 15 15h65c10 0 15 -5 15 -15v-670c0 -10 -5 -15 -15 -15h-65c-10 0 -15 5 -15 15zM282 930l-90 -134.999c-6 -10 -12.667 -15 -20 -15h-40c-10.667 0 -14 5 -10 15l60 135c5.33301 10 12 15 20 15h70c5.33301 0 9 -1.33301 11 -4
s1.66699 -6.33398 -1 -11.001z" />
    <glyph glyph-name="Icircumflex" unicode="&#xce;" horiz-adv-x="301" 
d="M100 15v670c0 10 5 15 15 15h65c10 0 15 -5 15 -15v-670c0 -10 -5 -15 -15 -15h-65c-10 0 -15 5 -15 15zM128 955h45c8.66699 0 17 -5 25 -15l110 -145c3.33301 -4.66699 3.83301 -8.33398 1.5 -11.001s-6.16602 -4 -11.499 -4h-55c-6.66699 0 -13.334 5 -20.001 15
l-70 95h-5l-70 -95c-6.66699 -10 -13.334 -15 -20.001 -15h-55c-5.33301 0 -9.16602 1.33301 -11.499 4s-1.83301 6.33398 1.5 11.001l110 145c8 10 16.333 15 25 15z" />
    <glyph glyph-name="Idieresis" unicode="&#xcf;" horiz-adv-x="290" 
d="M95 15v670c0 10 5 15 15 15h65c10 0 15 -5 15 -15v-670c0 -10 -5 -15 -15 -15h-65c-10 0 -15 5 -15 15zM85 800h-60c-10 0 -15 5 -15 15v60c0 10 5 15 15 15h60c10 0 15 -5 15 -15v-60c0 -10 -5 -15 -15 -15zM265 800h-60c-10 0 -15 5 -15 15v60c0 10 5 15 15 15h60
c10 0 15 -5 15 -15v-60c0 -10 -5 -15 -15 -15z" />
    <glyph glyph-name="Eth" unicode="&#xd0;" horiz-adv-x="805" 
d="M140 700h395c120 0 180 -58.333 180 -175v-350c0 -116.667 -60 -175 -180 -175h-395c-10 0 -15 5 -15 15v285h-70c-10 0 -15 5 -15 15v60c0 10 5 15 15 15h70v295c0 10 5 15 15 15zM390 375v-60c0 -10 -5 -15 -15 -15h-155v-210h315c56.667 0 85 28.333 85 85v350
c0 56.667 -28.333 85 -85 85h-315v-220h155c10 0 15 -5 15 -15z" />
    <glyph glyph-name="Ntilde" unicode="&#xd1;" horiz-adv-x="780" 
d="M590 0c-14 0 -24 5 -30 15l-360 540h-5v-540c0 -10 -5 -15 -15 -15h-65c-10 0 -15 5 -15 15v670c0 10 5 15 15 15h75c14 0 24 -5 30 -15l360 -540h5v540c0 10 5 15 15 15h65c10 0 15 -5 15 -15v-670c0 -10 -5 -15 -15 -15h-75zM460 780c-16 0 -30.667 4.16699 -44 12.5
s-23.5 17.5 -30.5 27.5s-14.167 19.167 -21.5 27.5s-13.666 12.5 -18.999 12.5c-4.66699 0 -9.16699 -2 -13.5 -6s-6.5 -8.66699 -6.5 -14v-45c0 -10 -5 -15 -15 -15h-35c-10 0 -15 5 -15 15v60c0 20 6.66699 36.667 20 50s30 20 50 20c16 0 30.667 -4.16699 44 -12.5
s23.5 -17.5 30.5 -27.5s14.167 -19.167 21.5 -27.5s13.666 -12.5 18.999 -12.5c4.66699 0 9.16699 2.16699 13.5 6.5s6.5 8.83301 6.5 13.5v45c0 10 5 15 15 15h35c10 0 15 -5 15 -15v-60c0 -20 -6.66699 -36.667 -20 -50s-30 -20 -50 -20z" />
    <glyph glyph-name="Ograve" unicode="&#xd2;" horiz-adv-x="790" 
d="M90 165v370c0 116.667 60 175 180 175h250c120 0 180 -58.333 180 -175v-370c0 -116.667 -60 -175 -180 -175h-250c-120 0 -180 58.333 -180 175zM605 165v370c0 56.667 -28.333 85 -85 85h-250c-56.667 0 -85 -28.333 -85 -85v-370c0 -56.667 28.333 -85 85 -85h250
c56.667 0 85 28.333 85 85zM358 805l-90 134.999c-2.66699 4.66699 -3 8.33398 -1 11.001s5.66699 4 11 4h70c8 0 14.667 -5 20 -15l60 -135c4 -10 0.666992 -15 -10 -15h-40c-7.33301 0 -14 5 -20 15z" />
    <glyph glyph-name="Oacute" unicode="&#xd3;" horiz-adv-x="790" 
d="M90 165v370c0 116.667 60 175 180 175h250c120 0 180 -58.333 180 -175v-370c0 -116.667 -60 -175 -180 -175h-250c-120 0 -180 58.333 -180 175zM605 165v370c0 56.667 -28.333 85 -85 85h-250c-56.667 0 -85 -28.333 -85 -85v-370c0 -56.667 28.333 -85 85 -85h250
c56.667 0 85 28.333 85 85zM532 940l-90 -134.999c-6 -10 -12.667 -15 -20 -15h-40c-10.667 0 -14 5 -10 15l60 135c5.33301 10 12 15 20 15h70c5.33301 0 9 -1.33301 11 -4s1.66699 -6.33398 -1 -11.001z" />
    <glyph glyph-name="Ocircumflex" unicode="&#xd4;" horiz-adv-x="790" 
d="M90 165v370c0 116.667 60 175 180 175h250c120 0 180 -58.333 180 -175v-370c0 -116.667 -60 -175 -180 -175h-250c-120 0 -180 58.333 -180 175zM605 165v370c0 56.667 -28.333 85 -85 85h-250c-56.667 0 -85 -28.333 -85 -85v-370c0 -56.667 28.333 -85 85 -85h250
c56.667 0 85 28.333 85 85zM373 965h44.999c8.66699 0 17 -5 25 -15l110 -145c3.33301 -4.66699 3.83301 -8.33398 1.5 -11.001s-6.16602 -4 -11.499 -4h-55c-6.66699 0 -13.334 5 -20.001 15l-70 95h-5l-70 -95c-7.33301 -10 -14 -15 -20 -15h-55
c-5.33301 0 -9.16602 1.33301 -11.499 4s-1.83301 6.33398 1.5 11.001l110 145c8 10 16.333 15 25 15z" />
    <glyph glyph-name="Otilde" unicode="&#xd5;" horiz-adv-x="790" 
d="M90 165v370c0 116.667 60 175 180 175h250c120 0 180 -58.333 180 -175v-370c0 -116.667 -60 -175 -180 -175h-250c-120 0 -180 58.333 -180 175zM605 165v370c0 56.667 -28.333 85 -85 85h-250c-56.667 0 -85 -28.333 -85 -85v-370c0 -56.667 28.333 -85 85 -85h250
c56.667 0 85 28.333 85 85zM460 780c-16 0 -30.667 4.16699 -44 12.5s-23.5 17.5 -30.5 27.5s-14.167 19.167 -21.5 27.5s-13.666 12.5 -18.999 12.5c-4.66699 0 -9.16699 -2 -13.5 -6s-6.5 -8.66699 -6.5 -14v-45c0 -10 -5 -15 -15 -15h-35c-10 0 -15 5 -15 15v60
c0 20 6.66699 36.667 20 50s30 20 50 20c16 0 30.667 -4.16699 44 -12.5s23.5 -17.5 30.5 -27.5s14.167 -19.167 21.5 -27.5s13.666 -12.5 18.999 -12.5c4.66699 0 9.16699 2.16699 13.5 6.5s6.5 8.83301 6.5 13.5v45c0 10 5 15 15 15h35c10 0 15 -5 15 -15v-60
c0 -20 -6.66699 -36.667 -20 -50s-30 -20 -50 -20z" />
    <glyph glyph-name="Odieresis" unicode="&#xd6;" horiz-adv-x="790" 
d="M90 165v370c0 116.667 60 175 180 175h250c120 0 180 -58.333 180 -175v-370c0 -116.667 -60 -175 -180 -175h-250c-120 0 -180 58.333 -180 175zM605 165v370c0 56.667 -28.333 85 -85 85h-250c-56.667 0 -85 -28.333 -85 -85v-370c0 -56.667 28.333 -85 85 -85h250
c56.667 0 85 28.333 85 85zM335 820h-60c-10 0 -15 5 -15 15v60c0 10 5 15 15 15h60c10 0 15 -5 15 -15v-60c0 -10 -5 -15 -15 -15zM515 820h-60c-10 0 -15 5 -15 15v60c0 10 5 15 15 15h60c10 0 15 -5 15 -15v-60c0 -10 -5 -15 -15 -15z" />
    <glyph glyph-name="multiply" unicode="&#xd7;" horiz-adv-x="418" 
d="M374 415l-105 -105l105 -105c6.66699 -6.66699 6.66699 -13.334 0 -20.001l-40 -40c-6.66699 -6.66699 -13.334 -6.66699 -20.001 0l-105 105l-105 -105c-6.66699 -6.66699 -13.334 -6.66699 -20.001 0l-40 40c-6.66699 6.66699 -6.66699 13.334 0 20.001l105 105
l-105 105c-6.66699 6.66699 -6.66699 13.334 0 20.001l40 40c6.66699 6.66699 13.334 6.66699 20.001 0l105 -105l105 105c6.66699 6.66699 13.334 6.66699 20.001 0l40 -40c6.66699 -6.66699 6.66699 -13.334 0 -20.001z" />
    <glyph glyph-name="Oslash" unicode="&#xd8;" horiz-adv-x="790" 
d="M605 535l-5 30l-360 -480c10 -3.33301 20 -5 30 -5h250c56.667 0 85 28.333 85 85v370zM185 535v-370l5 -30l360 480c-10 3.33301 -20 5 -30 5h-250c-56.667 0 -85 -28.333 -85 -85zM90 165v370c0 116.667 60 175 180 175h250c120 0 180 -58.333 180 -175v-370
c0 -116.667 -60 -175 -180 -175h-250c-120 0 -180 58.333 -180 175z" />
    <glyph glyph-name="Ugrave" unicode="&#xd9;" horiz-adv-x="780" 
d="M680 685v-520c0 -116.667 -60 -175 -180 -175h-220c-120 0 -180 58.333 -180 175v520c0 10 5 15 15 15h65c10 0 15 -5 15 -15v-520c0 -56.667 28.333 -85 85 -85h220c56.667 0 85 28.333 85 85v520c0 10 5 15 15 15h65c10 0 15 -5 15 -15zM359 795l-90.001 134.999
c-2.66699 4.66699 -3 8.33398 -1 11.001s5.66699 4 11 4h70c8.66699 0 15.334 -5 20.001 -15l60 -135c4 -10 0.666992 -15 -10 -15h-40c-7.33301 0 -14 5 -20 15z" />
    <glyph glyph-name="Uacute" unicode="&#xda;" horiz-adv-x="780" 
d="M680 685v-520c0 -116.667 -60 -175 -180 -175h-220c-120 0 -180 58.333 -180 175v520c0 10 5 15 15 15h65c10 0 15 -5 15 -15v-520c0 -56.667 28.333 -85 85 -85h220c56.667 0 85 28.333 85 85v520c0 10 5 15 15 15h65c10 0 15 -5 15 -15zM511 930l-90.001 -134.999
c-6 -10 -12.667 -15 -20 -15h-40c-10.667 0 -14 5 -10 15l60 135c4.66699 10 11.334 15 20.001 15h70c5.33301 0 9 -1.33301 11 -4s1.66699 -6.33398 -1 -11.001z" />
    <glyph glyph-name="Ucircumflex" unicode="&#xdb;" horiz-adv-x="780" 
d="M680 685v-520c0 -116.667 -60 -175 -180 -175h-220c-120 0 -180 58.333 -180 175v520c0 10 5 15 15 15h65c10 0 15 -5 15 -15v-520c0 -56.667 28.333 -85 85 -85h220c56.667 0 85 28.333 85 85v520c0 10 5 15 15 15h65c10 0 15 -5 15 -15zM368 965h44.999
c8.66699 0 17 -5 25 -15l110 -145c3.33301 -4.66699 3.83301 -8.33398 1.5 -11.001s-6.16602 -4 -11.499 -4h-55c-6 0 -12.667 5 -20 15l-70 95h-5l-70 -95c-6.66699 -10 -13.334 -15 -20.001 -15h-55c-5.33301 0 -9.16602 1.33301 -11.499 4s-1.83301 6.33398 1.5 11.001
l110 145c8 10 16.333 15 25 15z" />
    <glyph glyph-name="Udieresis" unicode="&#xdc;" horiz-adv-x="780" 
d="M680 685v-520c0 -116.667 -60 -175 -180 -175h-220c-120 0 -180 58.333 -180 175v520c0 10 5 15 15 15h65c10 0 15 -5 15 -15v-520c0 -56.667 28.333 -85 85 -85h220c56.667 0 85 28.333 85 85v520c0 10 5 15 15 15h65c10 0 15 -5 15 -15zM325 820h-60
c-10 0 -15 5 -15 15v60c0 10 5 15 15 15h60c10 0 15 -5 15 -15v-60c0 -10 -5 -15 -15 -15zM505 820h-60c-10 0 -15 5 -15 15v60c0 10 5 15 15 15h60c10 0 15 -5 15 -15v-60c0 -10 -5 -15 -15 -15z" />
    <glyph glyph-name="Yacute" unicode="&#xdd;" horiz-adv-x="644" 
d="M122 685l200 -340l200 340c6 10 14.333 15 25 15h75c12 0 15.333 -5 10 -15l-265 -440v-231c0 -9.33301 -5 -14 -15 -14h-60c-10 0 -15 4.66699 -15 14v231l-265 440c-5.33301 10 -2 15 10 15h75c10.667 0 19 -5 25 -15zM461 930l-90.001 -134.999
c-6 -10 -12.667 -15 -20 -15h-40c-10.667 0 -14 5 -10 15l60 135c4.66699 10 11.334 15 20.001 15h70c5.33301 0 9 -1.33301 11 -4s1.66699 -6.33398 -1 -11.001z" />
    <glyph glyph-name="Thorn" unicode="&#xde;" horiz-adv-x="765" 
d="M115 700h65c10 0 15 -5 15 -15v-75h310c120 0 180 -58.333 180 -175v-170c0 -116.667 -60 -175 -180 -175h-310v-75c0 -10 -5 -15 -15 -15h-65c-10 0 -15 5 -15 15v670c0 10 5 15 15 15zM590 265v170c0 56.667 -28.333 85 -85 85h-310v-340h310c56.667 0 85 28.333 85 85
z" />
    <glyph glyph-name="germandbls" unicode="&#xdf;" horiz-adv-x="595" 
d="M165 545l0.000976562 -529.999c0 -10 -5 -15 -15 -15h-55c-10 0 -15 5 -15 15v530c0 50 13.667 88.333 41 115s67 40 119 40h85c52 0 91.667 -13.333 119 -40s41 -65 41 -115v-85c0 -22 -4.16699 -40.5 -12.5 -55.5s-16.5 -24.5 -24.5 -28.5l-13 -6v-5
c2.66699 -0.666992 6.33398 -1.5 11.001 -2.5s12.667 -4.16699 24 -9.5s21.333 -11.833 30 -19.5s16.667 -18.834 24 -33.501s11 -31.334 11 -50.001v-95c0 -50 -13.667 -88.333 -41 -115s-67 -40 -119 -40h-50c-10 0 -15 5 -15 15v50c0 10 5 15 15 15h49
c22.667 0 41 6.83301 55 20.5s21 31.834 21 54.501v95c0 20 -5.83301 35.833 -17.5 47.5s-27.5 17.5 -47.5 17.5h-75c-10 0 -15 5 -15 15v50c0 10 5 15 15 15h25c20 0 35.833 5.83301 47.5 17.5s17.5 27.5 17.5 47.5v85c0 22.667 -6.83301 40.834 -20.5 54.501
s-31.834 20.5 -54.501 20.5h-85c-22.667 0 -40.834 -6.83301 -54.501 -20.5s-20.5 -31.834 -20.5 -54.501z" />
    <glyph glyph-name="agrave" unicode="&#xe0;" horiz-adv-x="560" 
d="M60 135l0.00195312 19.999c0 96.667 50 145 150 145h185v65c0 22.667 -6.83301 40.834 -20.5 54.501s-31.834 20.5 -54.501 20.5h-70c-22.667 0 -40.834 -6.83301 -54.501 -20.5s-20.5 -31.834 -20.5 -54.501c0 -10 -5 -15 -15 -15h-55c-10 0 -15 5 -15 15
c0 50 13.667 88.333 41 115s67 40 119 40h70c52 0 91.667 -13.333 119 -40s41 -65 41 -115v-350c0 -10 -5 -15 -15 -15h-55c-10 0 -15 5 -15 15v35h-5c-0.666992 -1.33301 -1.66699 -3.5 -3 -6.5s-5 -7.83301 -11 -14.5s-12.833 -12.667 -20.5 -18
s-18.167 -10.166 -31.5 -14.499s-28 -6.5 -44 -6.5h-70c-100 0 -150 48.333 -150 145zM145.002 154.999v-20c0 -20 5.83301 -35.833 17.5 -47.5s27.5 -17.5 47.5 -17.5h80c30 0 55 10 75 30s30 45 30 75v45h-185c-20 0 -35.833 -5.83301 -47.5 -17.5
s-17.5 -27.5 -17.5 -47.5zM258.002 604.999l-90 134.999c-2.66699 4.66699 -3 8.33398 -1 11.001s5.66699 4 11 4h70c8 0 14.667 -5 20 -15l60 -135c4 -10 0.666992 -15 -10 -15h-40c-7.33301 0 -14 5 -20 15z" />
    <glyph glyph-name="aacute" unicode="&#xe1;" horiz-adv-x="560" 
d="M60 135l0.00195312 19.999c0 96.667 50 145 150 145h185v65c0 22.667 -6.83301 40.834 -20.5 54.501s-31.834 20.5 -54.501 20.5h-70c-22.667 0 -40.834 -6.83301 -54.501 -20.5s-20.5 -31.834 -20.5 -54.501c0 -10 -5 -15 -15 -15h-55c-10 0 -15 5 -15 15
c0 50 13.667 88.333 41 115s67 40 119 40h70c52 0 91.667 -13.333 119 -40s41 -65 41 -115v-350c0 -10 -5 -15 -15 -15h-55c-10 0 -15 5 -15 15v35h-5c-0.666992 -1.33301 -1.66699 -3.5 -3 -6.5s-5 -7.83301 -11 -14.5s-12.833 -12.667 -20.5 -18
s-18.167 -10.166 -31.5 -14.499s-28 -6.5 -44 -6.5h-70c-100 0 -150 48.333 -150 145zM145.002 154.999v-20c0 -20 5.83301 -35.833 17.5 -47.5s27.5 -17.5 47.5 -17.5h80c30 0 55 10 75 30s30 45 30 75v45h-185c-20 0 -35.833 -5.83301 -47.5 -17.5
s-17.5 -27.5 -17.5 -47.5zM422.002 739.999l-90 -134.999c-6 -10 -12.667 -15 -20 -15h-40c-10.667 0 -14 5 -10 15l60 135c5.33301 10 12 15 20 15h70c5.33301 0 9 -1.33301 11 -4s1.66699 -6.33398 -1 -11.001z" />
    <glyph glyph-name="acircumflex" unicode="&#xe2;" horiz-adv-x="560" 
d="M60 135l0.00195312 19.999c0 96.667 50 145 150 145h185v65c0 22.667 -6.83301 40.834 -20.5 54.501s-31.834 20.5 -54.501 20.5h-70c-22.667 0 -40.834 -6.83301 -54.501 -20.5s-20.5 -31.834 -20.5 -54.501c0 -10 -5 -15 -15 -15h-55c-10 0 -15 5 -15 15
c0 50 13.667 88.333 41 115s67 40 119 40h70c52 0 91.667 -13.333 119 -40s41 -65 41 -115v-350c0 -10 -5 -15 -15 -15h-55c-10 0 -15 5 -15 15v35h-5c-0.666992 -1.33301 -1.66699 -3.5 -3 -6.5s-5 -7.83301 -11 -14.5s-12.833 -12.667 -20.5 -18
s-18.167 -10.166 -31.5 -14.499s-28 -6.5 -44 -6.5h-70c-100 0 -150 48.333 -150 145zM145.002 154.999v-20c0 -20 5.83301 -35.833 17.5 -47.5s27.5 -17.5 47.5 -17.5h80c30 0 55 10 75 30s30 45 30 75v45h-185c-20 0 -35.833 -5.83301 -47.5 -17.5
s-17.5 -27.5 -17.5 -47.5zM267.002 764.999h44.999c8.66699 0 17 -5 25 -15l110 -145c3.33301 -4.66699 3.83301 -8.33398 1.5 -11.001s-6.16602 -4 -11.499 -4h-55c-6.66699 0 -13.334 5 -20.001 15l-70 95h-5l-70 -95c-7.33301 -10 -14 -15 -20 -15h-55
c-5.33301 0 -9.16602 1.33301 -11.499 4s-1.83301 6.33398 1.5 11.001l110 145c8 10 16.333 15 25 15z" />
    <glyph glyph-name="atilde" unicode="&#xe3;" horiz-adv-x="560" 
d="M60 135l0.00195312 19.999c0 96.667 50 145 150 145h185v65c0 22.667 -6.83301 40.834 -20.5 54.501s-31.834 20.5 -54.501 20.5h-70c-22.667 0 -40.834 -6.83301 -54.501 -20.5s-20.5 -31.834 -20.5 -54.501c0 -10 -5 -15 -15 -15h-55c-10 0 -15 5 -15 15
c0 50 13.667 88.333 41 115s67 40 119 40h70c52 0 91.667 -13.333 119 -40s41 -65 41 -115v-350c0 -10 -5 -15 -15 -15h-55c-10 0 -15 5 -15 15v35h-5c-0.666992 -1.33301 -1.66699 -3.5 -3 -6.5s-5 -7.83301 -11 -14.5s-12.833 -12.667 -20.5 -18
s-18.167 -10.166 -31.5 -14.499s-28 -6.5 -44 -6.5h-70c-100 0 -150 48.333 -150 145zM145.002 154.999v-20c0 -20 5.83301 -35.833 17.5 -47.5s27.5 -17.5 47.5 -17.5h80c30 0 55 10 75 30s30 45 30 75v45h-185c-20 0 -35.833 -5.83301 -47.5 -17.5
s-17.5 -27.5 -17.5 -47.5zM345.002 579.999c-16 0 -30.667 4.16699 -44 12.5s-23.5 17.5 -30.5 27.5s-14.167 19.167 -21.5 27.5s-13.666 12.5 -18.999 12.5s-10 -2 -14 -6s-6 -8.66699 -6 -14v-45c0 -10 -5 -15 -15 -15h-35c-10 0 -15 5 -15 15v60
c0 20 6.66699 36.667 20 50s30 20 50 20c16 0 30.667 -4.16699 44 -12.5s23.5 -17.5 30.5 -27.5s14.167 -19.167 21.5 -27.5s13.666 -12.5 18.999 -12.5s10 2.16699 14 6.5s6 8.83301 6 13.5v45c0 10 5 15 15 15h35c10 0 15 -5 15 -15v-60c0 -20 -6.66699 -36.667 -20 -50
s-30 -20 -50 -20z" />
    <glyph glyph-name="adieresis" unicode="&#xe4;" horiz-adv-x="560" 
d="M60 135l0.00195312 19.999c0 96.667 50 145 150 145h185v65c0 22.667 -6.83301 40.834 -20.5 54.501s-31.834 20.5 -54.501 20.5h-70c-22.667 0 -40.834 -6.83301 -54.501 -20.5s-20.5 -31.834 -20.5 -54.501c0 -10 -5 -15 -15 -15h-55c-10 0 -15 5 -15 15
c0 50 13.667 88.333 41 115s67 40 119 40h70c52 0 91.667 -13.333 119 -40s41 -65 41 -115v-350c0 -10 -5 -15 -15 -15h-55c-10 0 -15 5 -15 15v35h-5c-0.666992 -1.33301 -1.66699 -3.5 -3 -6.5s-5 -7.83301 -11 -14.5s-12.833 -12.667 -20.5 -18
s-18.167 -10.166 -31.5 -14.499s-28 -6.5 -44 -6.5h-70c-100 0 -150 48.333 -150 145zM145.002 154.999v-20c0 -20 5.83301 -35.833 17.5 -47.5s27.5 -17.5 47.5 -17.5h80c30 0 55 10 75 30s30 45 30 75v45h-185c-20 0 -35.833 -5.83301 -47.5 -17.5
s-17.5 -27.5 -17.5 -47.5zM225.002 619.999h-60c-10 0 -15 5 -15 15v60c0 10 5 15 15 15h60c10 0 15 -5 15 -15v-60c0 -10 -5 -15 -15 -15zM405.002 619.999h-60c-10 0 -15 5 -15 15v60c0 10 5 15 15 15h60c10 0 15 -5 15 -15v-60c0 -10 -5 -15 -15 -15z" />
    <glyph glyph-name="aring" unicode="&#xe5;" horiz-adv-x="560" 
d="M60 135l0.00195312 19.999c0 96.667 50 145 150 145h185v65c0 22.667 -6.83301 40.834 -20.5 54.501s-31.834 20.5 -54.501 20.5h-70c-22.667 0 -40.834 -6.83301 -54.501 -20.5s-20.5 -31.834 -20.5 -54.501c0 -10 -5 -15 -15 -15h-55c-10 0 -15 5 -15 15
c0 50 13.667 88.333 41 115s67 40 119 40h70c52 0 91.667 -13.333 119 -40s41 -65 41 -115v-350c0 -10 -5 -15 -15 -15h-55c-10 0 -15 5 -15 15v35h-5c-0.666992 -1.33301 -1.66699 -3.5 -3 -6.5s-5 -7.83301 -11 -14.5s-12.833 -12.667 -20.5 -18
s-18.167 -10.166 -31.5 -14.499s-28 -6.5 -44 -6.5h-70c-100 0 -150 48.333 -150 145zM145.002 154.999v-20c0 -20 5.83301 -35.833 17.5 -47.5s27.5 -17.5 47.5 -17.5h80c30 0 55 10 75 30s30 45 30 75v45h-185c-20 0 -35.833 -5.83301 -47.5 -17.5
s-17.5 -27.5 -17.5 -47.5zM240.002 699.999v-25c0 -26.667 13.333 -40 40 -40h20c26.667 0 40 13.333 40 40v25c0 26.667 -13.333 40 -40 40h-20c-26.667 0 -40 -13.333 -40 -40zM180.002 674.999v25c0 28 9.16699 50.833 27.5 68.5s42.5 26.5 72.5 26.5h20
c30 0 54.167 -8.83301 72.5 -26.5s27.5 -40.5 27.5 -68.5v-25c0 -28 -9.16699 -50.833 -27.5 -68.5s-42.5 -26.5 -72.5 -26.5h-20c-30 0 -54.167 8.83301 -72.5 26.5s-27.5 40.5 -27.5 68.5z" />
    <glyph glyph-name="ae" unicode="&#xe6;" horiz-adv-x="880" 
d="M795 220l-315 0.00195312v-75c0 -22.667 6.83301 -40.834 20.5 -54.501s31.834 -20.5 54.501 -20.5h95c22.667 0 40.834 6.83301 54.501 20.5s20.5 31.834 20.5 54.501v5c0 10 5 15 15 15h55c10 0 15 -5 15 -15v-5c0 -50 -13.667 -88.333 -41 -115s-67 -40 -119 -40h-95
c-11.333 0 -22.333 1.16699 -33 3.5s-20 5.16602 -28 8.49902s-15.333 7.16602 -22 11.499s-12.167 8.66602 -16.5 12.999s-8 8.16602 -11 11.499s-5.16699 6 -6.5 8l-3 4h-5c-0.666992 -1.33301 -2 -3.5 -4 -6.5s-7 -7.83301 -15 -14.5s-16.833 -12.667 -26.5 -18
s-23 -10.166 -40 -14.499s-35.167 -6.5 -54.5 -6.5h-80c-100 0 -150 48.333 -150 145v20c0 96.667 50 145 150 145h185v65c0 22.667 -6.83301 40.834 -20.5 54.501s-31.834 20.5 -54.501 20.5h-70c-22.667 0 -40.834 -6.83301 -54.501 -20.5s-20.5 -31.834 -20.5 -54.501
c0 -10 -5 -15 -15 -15h-55c-10 0 -15 5 -15 15c0 50 13.667 88.333 41 115s67 40 119 40h70c25.333 0 48 -5 68 -15s33.667 -20 41 -30l11 -15h5c2.66699 4.66699 6.66699 10.334 12 17.001s17.5 15.5 36.5 26.5s39.5 16.5 61.5 16.5h95c52 0 91.667 -13.333 119 -40
s41 -65 41 -115v-130c0 -10 -5 -15 -15 -15zM145 155.002v-20c0 -20 5.83301 -35.833 17.5 -47.5s27.5 -17.5 47.5 -17.5h80c30 0 55 10 75 30s30 45 30 75v45h-185c-20 0 -35.833 -5.83301 -47.5 -17.5s-17.5 -27.5 -17.5 -47.5zM480 300.002h245.002v65
c0 22.667 -6.83301 40.834 -20.5 54.501s-31.834 20.5 -54.501 20.5h-95c-22.667 0 -40.834 -6.83301 -54.501 -20.5s-20.5 -31.834 -20.5 -54.501v-65z" />
    <glyph glyph-name="ccedilla" unicode="&#xe7;" horiz-adv-x="565" 
d="M235 -200h75c10 0 18.333 3.33301 25 10s10 15 10 25v10c0 10 -3.33301 18.333 -10 25s-15 10 -25 10h-65c-10 0 -15 5 -15 15v35c0 6 0.833008 11.5 2.5 16.5s3.5 8.5 5.5 10.5l2 3l20 30h-30c-52 0 -91.667 13.333 -119 40s-41 65 -41 115v220
c0 50 13.667 88.333 41 115s67 40 119 40h115c52 0 91.667 -13.333 119 -40s41 -65 41 -115v-25c0 -10 -5 -15 -15 -15h-55c-10 0 -15 5 -15 15v25c0 22.667 -6.83301 40.834 -20.5 54.501s-31.834 20.5 -54.501 20.5h-115c-22.667 0 -40.834 -6.83301 -54.501 -20.5
s-20.5 -31.834 -20.5 -54.501v-220c0 -22.667 6.83301 -40.834 20.5 -54.501s31.834 -20.5 54.501 -20.5h115c22.667 0 40.834 6.83301 54.501 20.5s20.5 31.834 20.5 54.501v25c0 10 5 15 15 15h55c10 0 15 -5 15 -15v-25c0 -50 -13.667 -88.333 -41 -115s-67 -40 -119 -40
h-30l-30 -50h25c27.333 0 50 -9 68 -27s27 -40.667 27 -68v-10c0 -27.333 -9 -50 -27 -68s-40.667 -27 -68 -27h-75c-10 0 -15 5 -15 15v30c0 10 5 15 15 15z" />
    <glyph glyph-name="egrave" unicode="&#xe8;" horiz-adv-x="580" 
d="M155 300h270.002v65c0 22.667 -6.83301 40.834 -20.5 54.501s-31.834 20.5 -54.501 20.5h-120c-22.667 0 -40.834 -6.83301 -54.501 -20.5s-20.5 -31.834 -20.5 -54.501v-65zM495.002 220h-340.002v-75c0 -22.667 6.83301 -40.834 20.5 -54.501
s31.834 -20.5 54.501 -20.5h120c22.667 0 40.834 6.83301 54.501 20.5s20.5 31.834 20.5 54.501v5c0 10 5 15 15 15h55c10 0 15 -5 15 -15v-5c0 -50 -13.667 -88.333 -41 -115s-67 -40 -119 -40h-120c-52 0 -91.667 13.333 -119 40s-41 65 -41 115v220
c0 50 13.667 88.333 41 115s67 40 119 40h120c52 0 91.667 -13.333 119 -40s41 -65 41 -115v-130c0 -10 -5 -15 -15 -15zM258 605l-90 134.999c-2.66699 4.66699 -3 8.33398 -1 11.001s5.66699 4 11 4h70c8 0 14.667 -5 20 -15l60 -135c4 -10 0.666992 -15 -10 -15h-40
c-7.33301 0 -14 5 -20 15z" />
    <glyph glyph-name="eacute" unicode="&#xe9;" horiz-adv-x="580" 
d="M155 300h270.002v65c0 22.667 -6.83301 40.834 -20.5 54.501s-31.834 20.5 -54.501 20.5h-120c-22.667 0 -40.834 -6.83301 -54.501 -20.5s-20.5 -31.834 -20.5 -54.501v-65zM495.002 220h-340.002v-75c0 -22.667 6.83301 -40.834 20.5 -54.501
s31.834 -20.5 54.501 -20.5h120c22.667 0 40.834 6.83301 54.501 20.5s20.5 31.834 20.5 54.501v5c0 10 5 15 15 15h55c10 0 15 -5 15 -15v-5c0 -50 -13.667 -88.333 -41 -115s-67 -40 -119 -40h-120c-52 0 -91.667 13.333 -119 40s-41 65 -41 115v220
c0 50 13.667 88.333 41 115s67 40 119 40h120c52 0 91.667 -13.333 119 -40s41 -65 41 -115v-130c0 -10 -5 -15 -15 -15zM417 740l-90.001 -134.999c-6 -10 -12.667 -15 -20 -15h-40c-10.667 0 -14 5 -10 15l60 135c4.66699 10 11.334 15 20.001 15h70
c5.33301 0 9 -1.33301 11 -4s1.66699 -6.33398 -1 -11.001z" />
    <glyph glyph-name="ecircumflex" unicode="&#xea;" horiz-adv-x="580" 
d="M155 300h270.002v65c0 22.667 -6.83301 40.834 -20.5 54.501s-31.834 20.5 -54.501 20.5h-120c-22.667 0 -40.834 -6.83301 -54.501 -20.5s-20.5 -31.834 -20.5 -54.501v-65zM495.002 220h-340.002v-75c0 -22.667 6.83301 -40.834 20.5 -54.501
s31.834 -20.5 54.501 -20.5h120c22.667 0 40.834 6.83301 54.501 20.5s20.5 31.834 20.5 54.501v5c0 10 5 15 15 15h55c10 0 15 -5 15 -15v-5c0 -50 -13.667 -88.333 -41 -115s-67 -40 -119 -40h-120c-52 0 -91.667 13.333 -119 40s-41 65 -41 115v220
c0 50 13.667 88.333 41 115s67 40 119 40h120c52 0 91.667 -13.333 119 -40s41 -65 41 -115v-130c0 -10 -5 -15 -15 -15zM268 765h44.999c8.66699 0 17 -5 25 -15l110 -145c3.33301 -4.66699 3.83301 -8.33398 1.5 -11.001s-6.16602 -4 -11.499 -4h-55
c-6 0 -12.667 5 -20 15l-70 95h-5l-70 -95c-6.66699 -10 -13.334 -15 -20.001 -15h-55c-5.33301 0 -9.16602 1.33301 -11.499 4s-1.83301 6.33398 1.5 11.001l110 145c8 10 16.333 15 25 15z" />
    <glyph glyph-name="edieresis" unicode="&#xeb;" horiz-adv-x="580" 
d="M155 300h270.002v65c0 22.667 -6.83301 40.834 -20.5 54.501s-31.834 20.5 -54.501 20.5h-120c-22.667 0 -40.834 -6.83301 -54.501 -20.5s-20.5 -31.834 -20.5 -54.501v-65zM495.002 220h-340.002v-75c0 -22.667 6.83301 -40.834 20.5 -54.501
s31.834 -20.5 54.501 -20.5h120c22.667 0 40.834 6.83301 54.501 20.5s20.5 31.834 20.5 54.501v5c0 10 5 15 15 15h55c10 0 15 -5 15 -15v-5c0 -50 -13.667 -88.333 -41 -115s-67 -40 -119 -40h-120c-52 0 -91.667 13.333 -119 40s-41 65 -41 115v220
c0 50 13.667 88.333 41 115s67 40 119 40h120c52 0 91.667 -13.333 119 -40s41 -65 41 -115v-130c0 -10 -5 -15 -15 -15zM230 620h-60c-10 0 -15 5 -15 15v60c0 10 5 15 15 15h60c10 0 15 -5 15 -15v-60c0 -10 -5 -15 -15 -15zM410 620h-60c-10 0 -15 5 -15 15v60
c0 10 5 15 15 15h60c10 0 15 -5 15 -15v-60c0 -10 -5 -15 -15 -15z" />
    <glyph glyph-name="igrave" unicode="&#xec;" horiz-adv-x="245" 
d="M150 0h-55c-10 0 -15 5 -15 15v480c0 10 5 15 15 15h55c10 0 15 -5 15 -15v-480c0 -10 -5 -15 -15 -15zM83 605l-90.001 134.999c-2.66699 4.66699 -3 8.33398 -1 11.001s5.66699 4 11 4h70c8.66699 0 15.334 -5 20.001 -15l60 -135c4 -10 0.666992 -15 -10 -15h-40
c-7.33301 0 -14 5 -20 15z" />
    <glyph glyph-name="iacute" unicode="&#xed;" horiz-adv-x="250" 
d="M150 0h-55c-10 0 -15 5 -15 15v480c0 10 5 15 15 15h55c10 0 15 -5 15 -15v-480c0 -10 -5 -15 -15 -15zM257 740l-90.001 -134.999c-6 -10 -12.667 -15 -20 -15h-40c-10.667 0 -14 5 -10 15l60 135c4.66699 10 11.334 15 20.001 15h70c5.33301 0 9 -1.33301 11 -4
s1.66699 -6.33398 -1 -11.001z" />
    <glyph glyph-name="icircumflex" unicode="&#xee;" horiz-adv-x="261" 
d="M160 0h-55c-10 0 -15 5 -15 15v480c0 10 5 15 15 15h55c10 0 15 -5 15 -15v-480c0 -10 -5 -15 -15 -15zM108 765h44.999c8.66699 0 17 -5 25 -15l110 -145c3.33301 -4.66699 3.83301 -8.33398 1.5 -11.001s-6.16602 -4 -11.499 -4h-55c-6 0 -12.667 5 -20 15l-70 95h-5
l-70 -95c-6.66699 -10 -13.334 -15 -20.001 -15h-55c-5.33301 0 -9.16602 1.33301 -11.499 4s-1.83301 6.33398 1.5 11.001l110 145c8 10 16.333 15 25 15z" />
    <glyph glyph-name="idieresis" unicode="&#xef;" horiz-adv-x="250" 
d="M155 0h-55c-10 0 -15 5 -15 15v480c0 10 5 15 15 15h55c10 0 15 -5 15 -15v-480c0 -10 -5 -15 -15 -15zM65 620h-60c-10 0 -15 5 -15 15v60c0 10 5 15 15 15h60c10 0 15 -5 15 -15v-60c0 -10 -5 -15 -15 -15zM245 620h-60c-10 0 -15 5 -15 15v60c0 10 5 15 15 15h60
c10 0 15 -5 15 -15v-60c0 -10 -5 -15 -15 -15z" />
    <glyph glyph-name="eth" unicode="&#xf0;" horiz-adv-x="560" 
d="M190 535l19.999 54.9971l-75 25c-10.667 3.33301 -14 10 -10 20l20 50c2.66699 6.66699 9.33398 8.33398 20.001 5.00098l75 -25l20 55c3.33301 10.667 10 14 20 10l50 -15c10 -4 13.333 -10.667 10 -20l-20 -55l45 -15c83.333 -27.333 125 -82.333 125 -165v-315
c0 -50 -13.667 -88.333 -41 -115s-67 -40 -119 -40h-110c-52 0 -91.667 13.333 -119 40s-41 65 -41 115v110c0 50 13.667 88.333 41 115s67 40 119 40h185v50c0 41.333 -25 71.333 -75 90l-40 15l-20 -55c-4 -9.33301 -10.667 -12.666 -20 -9.99902l-50 15
c-10 2.66699 -13.333 9.33398 -10 20.001zM219.999 69.9971l109.999 0.000976562c22.667 0 40.834 6.83301 54.501 20.5s20.5 31.834 20.5 54.501v185h-185c-22.667 0 -40.834 -6.83301 -54.501 -20.5s-20.5 -31.834 -20.5 -54.501v-110
c0 -22.667 6.83301 -40.834 20.5 -54.501s31.834 -20.5 54.501 -20.5z" />
    <glyph glyph-name="ntilde" unicode="&#xf1;" horiz-adv-x="595" 
d="M280 520h75.001c52 0 91.667 -13.333 119 -40s41 -65 41 -115v-350c0 -10 -5 -15 -15 -15h-55c-10 0 -15 5 -15 15v350c0 22.667 -6.83301 40.834 -20.5 54.501s-31.834 20.5 -54.501 20.5h-85c-30 0 -55 -10 -75 -30s-30 -45 -30 -75v-320c0 -10 -5 -15 -15 -15h-55
c-10 0 -15 5 -15 15v480c0 10 5 15 15 15h55c10 0 15 -5 15 -15v-35h5c0.666992 1.33301 1.66699 3.5 3 6.5s5 7.83301 11 14.5s12.833 12.667 20.5 18s18.167 10.166 31.5 14.499s28 6.5 44 6.5zM360.001 590c-16 0 -30.667 4.16699 -44 12.5s-23.5 17.5 -30.5 27.5
s-14.167 19.167 -21.5 27.5s-13.666 12.5 -18.999 12.5c-4.66699 0 -9.16699 -2 -13.5 -6s-6.5 -8.66699 -6.5 -14v-45c0 -10 -5 -15 -15 -15h-35c-10 0 -15 5 -15 15v60c0 20 6.66699 36.667 20 50s30 20 50 20c16 0 30.667 -4.16699 44 -12.5s23.5 -17.5 30.5 -27.5
s14.167 -19.167 21.5 -27.5s13.666 -12.5 18.999 -12.5c4.66699 0 9.16699 2.16699 13.5 6.5s6.5 8.83301 6.5 13.5v45c0 10 5 15 15 15h35c10 0 15 -5 15 -15v-60c0 -20 -6.66699 -36.667 -20 -50s-30 -20 -50 -20z" />
    <glyph glyph-name="ograve" unicode="&#xf2;" 
d="M430 145v220c0 22.667 -6.83301 40.834 -20.5 54.501s-31.834 20.5 -54.501 20.5h-125c-22.667 0 -40.834 -6.83301 -54.501 -20.5s-20.5 -31.834 -20.5 -54.501v-220c0 -22.667 6.83301 -40.834 20.5 -54.501s31.834 -20.5 54.501 -20.5h125
c22.667 0 40.834 6.83301 54.501 20.5s20.5 31.834 20.5 54.501zM515 365v-220c0 -50 -13.667 -88.333 -41 -115s-67 -40 -119 -40h-125c-52 0 -91.667 13.333 -119 40s-41 65 -41 115v220c0 50 13.667 88.333 41 115s67 40 119 40h125c52 0 91.667 -13.333 119 -40
s41 -65 41 -115zM258 605l-90 134.999c-2.66699 4.66699 -3 8.33398 -1 11.001s5.66699 4 11 4h70c8 0 14.667 -5 20 -15l60 -135c4 -10 0.666992 -15 -10 -15h-40c-7.33301 0 -14 5 -20 15z" />
    <glyph glyph-name="oacute" unicode="&#xf3;" 
d="M430 145v220c0 22.667 -6.83301 40.834 -20.5 54.501s-31.834 20.5 -54.501 20.5h-125c-22.667 0 -40.834 -6.83301 -54.501 -20.5s-20.5 -31.834 -20.5 -54.501v-220c0 -22.667 6.83301 -40.834 20.5 -54.501s31.834 -20.5 54.501 -20.5h125
c22.667 0 40.834 6.83301 54.501 20.5s20.5 31.834 20.5 54.501zM515 365v-220c0 -50 -13.667 -88.333 -41 -115s-67 -40 -119 -40h-125c-52 0 -91.667 13.333 -119 40s-41 65 -41 115v220c0 50 13.667 88.333 41 115s67 40 119 40h125c52 0 91.667 -13.333 119 -40
s41 -65 41 -115zM421 740l-90.001 -134.999c-6 -10 -12.667 -15 -20 -15h-40c-10.667 0 -14 5 -10 15l60 135c4.66699 10 11.334 15 20.001 15h70c5.33301 0 9 -1.33301 11 -4s1.66699 -6.33398 -1 -11.001z" />
    <glyph glyph-name="ocircumflex" unicode="&#xf4;" 
d="M430 145v220c0 22.667 -6.83301 40.834 -20.5 54.501s-31.834 20.5 -54.501 20.5h-125c-22.667 0 -40.834 -6.83301 -54.501 -20.5s-20.5 -31.834 -20.5 -54.501v-220c0 -22.667 6.83301 -40.834 20.5 -54.501s31.834 -20.5 54.501 -20.5h125
c22.667 0 40.834 6.83301 54.501 20.5s20.5 31.834 20.5 54.501zM515 365v-220c0 -50 -13.667 -88.333 -41 -115s-67 -40 -119 -40h-125c-52 0 -91.667 13.333 -119 40s-41 65 -41 115v220c0 50 13.667 88.333 41 115s67 40 119 40h125c52 0 91.667 -13.333 119 -40
s41 -65 41 -115zM268 765h44.999c8.66699 0 17 -5 25 -15l110 -145c3.33301 -4.66699 3.83301 -8.33398 1.5 -11.001s-6.16602 -4 -11.499 -4h-55c-6 0 -12.667 5 -20 15l-70 95h-5l-70 -95c-6.66699 -10 -13.334 -15 -20.001 -15h-55
c-5.33301 0 -9.16602 1.33301 -11.499 4s-1.83301 6.33398 1.5 11.001l110 145c8 10 16.333 15 25 15z" />
    <glyph glyph-name="otilde" unicode="&#xf5;" 
d="M430 145v220c0 22.667 -6.83301 40.834 -20.5 54.501s-31.834 20.5 -54.501 20.5h-125c-22.667 0 -40.834 -6.83301 -54.501 -20.5s-20.5 -31.834 -20.5 -54.501v-220c0 -22.667 6.83301 -40.834 20.5 -54.501s31.834 -20.5 54.501 -20.5h125
c22.667 0 40.834 6.83301 54.501 20.5s20.5 31.834 20.5 54.501zM515 365v-220c0 -50 -13.667 -88.333 -41 -115s-67 -40 -119 -40h-125c-52 0 -91.667 13.333 -119 40s-41 65 -41 115v220c0 50 13.667 88.333 41 115s67 40 119 40h125c52 0 91.667 -13.333 119 -40
s41 -65 41 -115zM360 590c-16 0 -30.667 4.16699 -44 12.5s-23.5 17.5 -30.5 27.5s-14.167 19.167 -21.5 27.5s-13.666 12.5 -18.999 12.5c-4.66699 0 -9.16699 -2 -13.5 -6s-6.5 -8.66699 -6.5 -14v-45c0 -10 -5 -15 -15 -15h-35c-10 0 -15 5 -15 15v60
c0 20 6.66699 36.667 20 50s30 20 50 20c16 0 30.667 -4.16699 44 -12.5s23.5 -17.5 30.5 -27.5s14.167 -19.167 21.5 -27.5s13.666 -12.5 18.999 -12.5c4.66699 0 9.16699 2.16699 13.5 6.5s6.5 8.83301 6.5 13.5v45c0 10 5 15 15 15h35c10 0 15 -5 15 -15v-60
c0 -20 -6.66699 -36.667 -20 -50s-30 -20 -50 -20z" />
    <glyph glyph-name="odieresis" unicode="&#xf6;" 
d="M430 145v220c0 22.667 -6.83301 40.834 -20.5 54.501s-31.834 20.5 -54.501 20.5h-125c-22.667 0 -40.834 -6.83301 -54.501 -20.5s-20.5 -31.834 -20.5 -54.501v-220c0 -22.667 6.83301 -40.834 20.5 -54.501s31.834 -20.5 54.501 -20.5h125
c22.667 0 40.834 6.83301 54.501 20.5s20.5 31.834 20.5 54.501zM515 365v-220c0 -50 -13.667 -88.333 -41 -115s-67 -40 -119 -40h-125c-52 0 -91.667 13.333 -119 40s-41 65 -41 115v220c0 50 13.667 88.333 41 115s67 40 119 40h125c52 0 91.667 -13.333 119 -40
s41 -65 41 -115zM235 630h-60c-10 0 -15 5 -15 15v60c0 10 5 15 15 15h60c10 0 15 -5 15 -15v-60c0 -10 -5 -15 -15 -15zM415 630h-60c-10 0 -15 5 -15 15v60c0 10 5 15 15 15h60c10 0 15 -5 15 -15v-60c0 -10 -5 -15 -15 -15z" />
    <glyph glyph-name="divide" unicode="&#xf7;" horiz-adv-x="430" 
d="M400 340v-60c0 -10 -5 -15 -15 -15h-340c-10 0 -15 5 -15 15v60c0 10 5 15 15 15h340c10 0 15 -5 15 -15zM245 70h-60c-10 0 -15 5 -15 15v60c0 10 5 15 15 15h60c10 0 15 -5 15 -15v-60c0 -10 -5 -15 -15 -15zM245 460h-60c-10 0 -15 5 -15 15v60c0 10 5 15 15 15h60
c10 0 15 -5 15 -15v-60c0 -10 -5 -15 -15 -15z" />
    <glyph glyph-name="oslash" unicode="&#xf8;" 
d="M515 365v-220c0 -50 -13.667 -88.333 -41 -115s-67 -40 -119 -40h-125c-52 0 -91.667 13.333 -119 40s-41 65 -41 115v220c0 50 13.667 88.333 41 115s67 40 119 40h125c52 0 91.667 -13.333 119 -40s41 -65 41 -115zM430 145l-0.000976562 219.999l-5 25l-230 -315
c10 -3.33301 21.667 -5 35 -5h125c22.667 0 40.834 6.83301 54.501 20.5s20.5 31.834 20.5 54.501zM154.999 144.999l5.00098 -24.999l230 315c-10 3.33301 -21.667 5 -35 5h-125c-22.667 0 -40.834 -6.83301 -54.501 -20.5s-20.5 -31.834 -20.5 -54.501v-220z" />
    <glyph glyph-name="ugrave" unicode="&#xf9;" horiz-adv-x="595" 
d="M315 -10h-75.001c-52 0 -91.667 13.333 -119 40s-41 65 -41 115v350c0 10 5 15 15 15h55c10 0 15 -5 15 -15v-350c0 -22.667 6.83301 -40.834 20.5 -54.501s31.834 -20.5 54.501 -20.5h85c30 0 55 10 75 30s30 45 30 75v320c0 10 5 15 15 15h55c10 0 15 -5 15 -15v-480
c0 -10 -5 -15 -15 -15h-55c-10 0 -15 5 -15 15v35h-5c-0.666992 -1.33301 -1.66699 -3.5 -3 -6.5s-5 -7.83301 -11 -14.5s-12.833 -12.667 -20.5 -18s-18.167 -10.166 -31.5 -14.499s-28 -6.5 -44 -6.5zM267.999 595l-90 134.999c-2.66699 4.66699 -3 8.33398 -1 11.001
s5.66699 4 11 4h70c8 0 14.667 -5 20 -15l60 -135c4 -10 0.666992 -15 -10 -15h-40c-7.33301 0 -14 5 -20 15z" />
    <glyph glyph-name="uacute" unicode="&#xfa;" horiz-adv-x="595" 
d="M315 -10h-75.001c-52 0 -91.667 13.333 -119 40s-41 65 -41 115v350c0 10 5 15 15 15h55c10 0 15 -5 15 -15v-350c0 -22.667 6.83301 -40.834 20.5 -54.501s31.834 -20.5 54.501 -20.5h85c30 0 55 10 75 30s30 45 30 75v320c0 10 5 15 15 15h55c10 0 15 -5 15 -15v-480
c0 -10 -5 -15 -15 -15h-55c-10 0 -15 5 -15 15v35h-5c-0.666992 -1.33301 -1.66699 -3.5 -3 -6.5s-5 -7.83301 -11 -14.5s-12.833 -12.667 -20.5 -18s-18.167 -10.166 -31.5 -14.499s-28 -6.5 -44 -6.5zM420.999 730l-90.001 -134.999c-6 -10 -12.667 -15 -20 -15h-40
c-10.667 0 -14 5 -10 15l60 135c4.66699 10 11.334 15 20.001 15h70c5.33301 0 9 -1.33301 11 -4s1.66699 -6.33398 -1 -11.001z" />
    <glyph glyph-name="ucircumflex" unicode="&#xfb;" horiz-adv-x="595" 
d="M315 -10h-75.001c-52 0 -91.667 13.333 -119 40s-41 65 -41 115v350c0 10 5 15 15 15h55c10 0 15 -5 15 -15v-350c0 -22.667 6.83301 -40.834 20.5 -54.501s31.834 -20.5 54.501 -20.5h85c30 0 55 10 75 30s30 45 30 75v320c0 10 5 15 15 15h55c10 0 15 -5 15 -15v-480
c0 -10 -5 -15 -15 -15h-55c-10 0 -15 5 -15 15v35h-5c-0.666992 -1.33301 -1.66699 -3.5 -3 -6.5s-5 -7.83301 -11 -14.5s-12.833 -12.667 -20.5 -18s-18.167 -10.166 -31.5 -14.499s-28 -6.5 -44 -6.5zM276.999 755h44.999c8.66699 0 17 -5 25 -15l110 -145
c3.33301 -4.66699 3.83301 -8.33398 1.5 -11.001s-6.16602 -4 -11.499 -4h-55c-6.66699 0 -13.334 5 -20.001 15l-70 95h-5l-70 -95c-7.33301 -10 -14 -15 -20 -15h-55c-5.33301 0 -9.16602 1.33301 -11.499 4s-1.83301 6.33398 1.5 11.001l110 145c8 10 16.333 15 25 15z
" />
    <glyph glyph-name="udieresis" unicode="&#xfc;" horiz-adv-x="595" 
d="M315 -10h-75.001c-52 0 -91.667 13.333 -119 40s-41 65 -41 115v350c0 10 5 15 15 15h55c10 0 15 -5 15 -15v-350c0 -22.667 6.83301 -40.834 20.5 -54.501s31.834 -20.5 54.501 -20.5h85c30 0 55 10 75 30s30 45 30 75v320c0 10 5 15 15 15h55c10 0 15 -5 15 -15v-480
c0 -10 -5 -15 -15 -15h-55c-10 0 -15 5 -15 15v35h-5c-0.666992 -1.33301 -1.66699 -3.5 -3 -6.5s-5 -7.83301 -11 -14.5s-12.833 -12.667 -20.5 -18s-18.167 -10.166 -31.5 -14.499s-28 -6.5 -44 -6.5zM239.999 610h-60c-10 0 -15 5 -15 15v60c0 10 5 15 15 15h60
c10 0 15 -5 15 -15v-60c0 -10 -5 -15 -15 -15zM419.999 610h-60c-10 0 -15 5 -15 15v60c0 10 5 15 15 15h60c10 0 15 -5 15 -15v-60c0 -10 -5 -15 -15 -15z" />
    <glyph glyph-name="yacute" unicode="&#xfd;" horiz-adv-x="509" 
d="M257 120l140.002 375c4 10 12.333 15 25 15h60c10.667 0 14 -5 10 -15l-195 -495c-27.333 -70 -55.5 -119.167 -84.5 -147.5s-65.833 -42.5 -110.5 -42.5h-20c-10 0 -15 5 -15 15v50c0 10 5 15 15 15h20c25.333 0 46.166 8.33301 62.499 25s32.166 45 47.499 85l-195 495
c-4 10 -0.666992 15 10 15h60c12.667 0 21 -5 25 -15l140 -375h5zM386.002 740l-90 -134.999c-6 -10 -12.667 -15 -20 -15h-40c-10.667 0 -14 5 -10 15l60 135c5.33301 10 12 15 20 15h70c5.33301 0 9 -1.33301 11 -4s1.66699 -6.33398 -1 -11.001z" />
    <glyph glyph-name="thorn" unicode="&#xfe;" horiz-adv-x="580" 
d="M80 -175v860c0 10 5 15 15 15h55c10 0 15 -5 15 -15v-175h185c52 0 91.667 -13.333 119 -40s41 -65 41 -115v-200c0 -50 -13.667 -88.333 -41 -115s-67 -40 -119 -40h-185v-175c0 -10 -5 -15 -15 -15h-55c-10 0 -15 5 -15 15zM165 80l185 -0.00195312
c22.667 0 40.834 6.83301 54.501 20.5s20.5 31.834 20.5 54.501v200c0 22.667 -6.83301 40.834 -20.5 54.501s-31.834 20.5 -54.501 20.5h-185v-350z" />
    <glyph glyph-name="ydieresis" unicode="&#xff;" horiz-adv-x="509" 
d="M257 120l140.002 375c4 10 12.333 15 25 15h60c10.667 0 14 -5 10 -15l-195 -495c-27.333 -70 -55.5 -119.167 -84.5 -147.5s-65.833 -42.5 -110.5 -42.5h-20c-10 0 -15 5 -15 15v50c0 10 5 15 15 15h20c25.333 0 46.166 8.33301 62.499 25s32.166 45 47.499 85l-195 495
c-4 10 -0.666992 15 10 15h60c12.667 0 21 -5 25 -15l140 -375h5zM190.002 630h-60c-10 0 -15 5 -15 15v60c0 10 5 15 15 15h60c10 0 15 -5 15 -15v-60c0 -10 -5 -15 -15 -15zM370.002 630h-60c-10 0 -15 5 -15 15v60c0 10 5 15 15 15h60c10 0 15 -5 15 -15v-60
c0 -10 -5 -15 -15 -15z" />
    <glyph glyph-name="Amacron" unicode="&#x100;" horiz-adv-x="664" 
d="M212 270h240l-118 320h-4zM487 180h-309.998l-60 -165c-4 -10 -12.333 -15 -25 -15h-70c-10.667 0 -14 5 -10 15l260 670c5.33301 10 13.666 15 24.999 15h70c11.333 0 19.666 -5 24.999 -15l260 -670c4 -10 0.666992 -15 -10 -15h-70c-12.667 0 -21 5 -25 15z
M475.002 865v-40c0 -10 -5 -15 -15 -15h-250c-10 0 -15 5 -15 15v40c0 10 5 15 15 15h250c10 0 15 -5 15 -15z" />
    <glyph glyph-name="amacron" unicode="&#x101;" horiz-adv-x="560" 
d="M60 135l0.00195312 19.999c0 96.667 50 145 150 145h185v65c0 22.667 -6.83301 40.834 -20.5 54.501s-31.834 20.5 -54.501 20.5h-70c-22.667 0 -40.834 -6.83301 -54.501 -20.5s-20.5 -31.834 -20.5 -54.501c0 -10 -5 -15 -15 -15h-55c-10 0 -15 5 -15 15
c0 50 13.667 88.333 41 115s67 40 119 40h70c52 0 91.667 -13.333 119 -40s41 -65 41 -115v-350c0 -10 -5 -15 -15 -15h-55c-10 0 -15 5 -15 15v35h-5c-0.666992 -1.33301 -1.66699 -3.5 -3 -6.5s-5 -7.83301 -11 -14.5s-12.833 -12.667 -20.5 -18
s-18.167 -10.166 -31.5 -14.499s-28 -6.5 -44 -6.5h-70c-100 0 -150 48.333 -150 145zM145.002 154.999v-20c0 -20 5.83301 -35.833 17.5 -47.5s27.5 -17.5 47.5 -17.5h80c30 0 55 10 75 30s30 45 30 75v45h-185c-20 0 -35.833 -5.83301 -47.5 -17.5
s-17.5 -27.5 -17.5 -47.5zM430.002 674.999v-40c0 -10 -5 -15 -15 -15h-250c-10 0 -15 5 -15 15v40c0 10 5 15 15 15h250c10 0 15 -5 15 -15z" />
    <glyph glyph-name="Abreve" unicode="&#x102;" horiz-adv-x="664" 
d="M212 270h240l-118 320h-4zM487 180h-309.998l-60 -165c-4 -10 -12.333 -15 -25 -15h-70c-10.667 0 -14 5 -10 15l260 670c5.33301 10 13.666 15 24.999 15h70c11.333 0 19.666 -5 24.999 -15l260 -670c4 -10 0.666992 -15 -10 -15h-70c-12.667 0 -21 5 -25 15z
M360.002 780h-55c-37.333 0 -65.833 9.5 -85.5 28.5s-29.5 46.167 -29.5 81.5v25c0 10 5 15 15 15h45c10 0 15 -5 15 -15v-25c0 -26.667 13.333 -40 40 -40h55c26.667 0 40 13.333 40 40v25c0 10 5 15 15 15h45c10 0 15 -5 15 -15v-25c0 -35.333 -9.83301 -62.5 -29.5 -81.5
s-48.167 -28.5 -85.5 -28.5z" />
    <glyph glyph-name="abreve" unicode="&#x103;" horiz-adv-x="560" 
d="M60 135l0.00195312 19.999c0 96.667 50 145 150 145h185v65c0 22.667 -6.83301 40.834 -20.5 54.501s-31.834 20.5 -54.501 20.5h-70c-22.667 0 -40.834 -6.83301 -54.501 -20.5s-20.5 -31.834 -20.5 -54.501c0 -10 -5 -15 -15 -15h-55c-10 0 -15 5 -15 15
c0 50 13.667 88.333 41 115s67 40 119 40h70c52 0 91.667 -13.333 119 -40s41 -65 41 -115v-350c0 -10 -5 -15 -15 -15h-55c-10 0 -15 5 -15 15v35h-5c-0.666992 -1.33301 -1.66699 -3.5 -3 -6.5s-5 -7.83301 -11 -14.5s-12.833 -12.667 -20.5 -18
s-18.167 -10.166 -31.5 -14.499s-28 -6.5 -44 -6.5h-70c-100 0 -150 48.333 -150 145zM145.002 154.999v-20c0 -20 5.83301 -35.833 17.5 -47.5s27.5 -17.5 47.5 -17.5h80c30 0 55 10 75 30s30 45 30 75v45h-185c-20 0 -35.833 -5.83301 -47.5 -17.5
s-17.5 -27.5 -17.5 -47.5zM315.002 589.999h-55c-37.333 0 -65.833 9.5 -85.5 28.5s-29.5 46.167 -29.5 81.5v25c0 10 5 15 15 15h45c10 0 15 -5 15 -15v-25c0 -26.667 13.333 -40 40 -40h55c26.667 0 40 13.333 40 40v25c0 10 5 15 15 15h45c10 0 15 -5 15 -15v-25
c0 -35.333 -9.83301 -62.5 -29.5 -81.5s-48.167 -28.5 -85.5 -28.5z" />
    <glyph glyph-name="Aogonek" unicode="&#x104;" horiz-adv-x="664" 
d="M582 0l-10 0.00390625c-12.667 0 -21 5 -25 15l-60 165h-310l-60 -165c-4 -10 -12.333 -15 -25 -15h-70c-10.667 0 -14 5 -10 15l260 670c5.33301 10 13.666 15 24.999 15h70c11.333 0 19.666 -5 24.999 -15l260 -670c3.33301 -8.66699 0 -13.667 -10 -15l-11.5 -6
c-5 -2.66699 -13.833 -8 -26.5 -16s-23.834 -16.5 -33.501 -25.5s-18.5 -20 -26.5 -33s-12 -26.167 -12 -39.5c0 -12.667 4.33301 -23.334 13 -32.001s19.334 -13 32.001 -13h50c10 0 15 -5 15 -15v-35c0 -10 -5 -15 -15 -15h-50c-32 0 -57.5 9.16699 -76.5 27.5
s-28.5 42.5 -28.5 72.5c0 16.667 3.83301 32.667 11.5 48s16.834 27.666 27.501 36.999s21.334 17.666 32.001 24.999s19.667 12.666 27 15.999zM212 270.004h240l-118 320h-4z" />
    <glyph glyph-name="aogonek" unicode="&#x105;" horiz-adv-x="560" 
d="M60 135l0.00195312 19.998c0 96.667 50 145 150 145h185v65c0 22.667 -6.83301 40.834 -20.5 54.501s-31.834 20.5 -54.501 20.5h-70c-22.667 0 -40.834 -6.83301 -54.501 -20.5s-20.5 -31.834 -20.5 -54.501c0 -10 -5 -15 -15 -15h-55c-10 0 -15 5 -15 15
c0 50 13.667 88.333 41 115s67 40 119 40h70c52 0 91.667 -13.333 119 -40s41 -65 41 -115v-350c0 -5.33301 -3.33301 -9.66602 -10 -12.999c-2 -0.666992 -3.66699 -1.33398 -5 -2.00098l-11.5 -6c-5 -2.66699 -13.833 -8 -26.5 -16s-23.834 -16.5 -33.501 -25.5
s-18.5 -20 -26.5 -33s-12 -26.167 -12 -39.5c0 -12.667 4.33301 -23.334 13 -32.001s19.334 -13 32.001 -13h50c10 0 15 -5 15 -15v-35c0 -10 -5 -15 -15 -15h-50c-32 0 -57.5 9.16699 -76.5 27.5s-28.5 42.5 -28.5 72.5c0 26.667 8.83301 50.834 26.5 72.501
s35.167 36.834 52.5 45.501l26 12c-3.33301 3.33301 -5 8.33301 -5 15v35h-5c-0.666992 -1.33301 -1.66699 -3.5 -3 -6.5s-5 -7.83301 -11 -14.5s-12.833 -12.667 -20.5 -18s-18.167 -10.166 -31.5 -14.499s-28 -6.5 -44 -6.5h-70c-100 0 -150 48.333 -150 145z
M145.002 154.998v-20c0 -20 5.83301 -35.833 17.5 -47.5s27.5 -17.5 47.5 -17.5h80c30 0 55 10 75 30s30 45 30 75v45h-185c-20 0 -35.833 -5.83301 -47.5 -17.5s-17.5 -27.5 -17.5 -47.5z" />
    <glyph glyph-name="Cacute" unicode="&#x106;" horiz-adv-x="750" 
d="M90 165v370c0 116.667 60 175 180 175h230c120 0 180 -58.333 180 -175v-40c0 -10 -5 -15 -15 -15h-65c-10 0 -15 5 -15 15v40c0 56.667 -28.333 85 -85 85h-230c-56.667 0 -85 -28.333 -85 -85v-370c0 -56.667 28.333 -85 85 -85h230c56.667 0 85 28.333 85 85v40
c0 10 5 15 15 15h65c10 0 15 -5 15 -15v-40c0 -116.667 -60 -175 -180 -175h-230c-120 0 -180 58.333 -180 175zM511 930l-90.001 -134.999c-6 -10 -12.667 -15 -20 -15h-40c-10.667 0 -14 5 -10 15l60 135c4.66699 10 11.334 15 20.001 15h70c5.33301 0 9 -1.33301 11 -4
s1.66699 -6.33398 -1 -11.001z" />
    <glyph glyph-name="cacute" unicode="&#x107;" horiz-adv-x="565" 
d="M155 365v-220c0 -22.667 6.83301 -40.834 20.5 -54.501s31.834 -20.5 54.501 -20.5h115c22.667 0 40.834 6.83301 54.501 20.5s20.5 31.834 20.5 54.501v25c0 10 5 15 15 15h55c10 0 15 -5 15 -15v-25c0 -50 -13.667 -88.333 -41 -115s-67 -40 -119 -40h-115
c-52 0 -91.667 13.333 -119 40s-41 65 -41 115v220c0 50 13.667 88.333 41 115s67 40 119 40h115c52 0 91.667 -13.333 119 -40s41 -65 41 -115v-25c0 -10 -5 -15 -15 -15h-55c-10 0 -15 5 -15 15v25c0 22.667 -6.83301 40.834 -20.5 54.501s-31.834 20.5 -54.501 20.5h-115
c-22.667 0 -40.834 -6.83301 -54.501 -20.5s-20.5 -31.834 -20.5 -54.501zM421 740l-90.001 -134.999c-6 -10 -12.667 -15 -20 -15h-40c-10.667 0 -14 5 -10 15l60 135c4.66699 10 11.334 15 20.001 15h70c5.33301 0 9 -1.33301 11 -4s1.66699 -6.33398 -1 -11.001z" />
    <glyph glyph-name="Ccircumflex" unicode="&#x108;" horiz-adv-x="750" 
d="M90 165v370c0 116.667 60 175 180 175h230c120 0 180 -58.333 180 -175v-40c0 -10 -5 -15 -15 -15h-65c-10 0 -15 5 -15 15v40c0 56.667 -28.333 85 -85 85h-230c-56.667 0 -85 -28.333 -85 -85v-370c0 -56.667 28.333 -85 85 -85h230c56.667 0 85 28.333 85 85v40
c0 10 5 15 15 15h65c10 0 15 -5 15 -15v-40c0 -116.667 -60 -175 -180 -175h-230c-120 0 -180 58.333 -180 175zM367 955h44.999c8.66699 0 17 -5 25 -15l110 -145c3.33301 -4.66699 3.83301 -8.33398 1.5 -11.001s-6.16602 -4 -11.499 -4h-55
c-6.66699 0 -13.334 5 -20.001 15l-70 95h-5l-70 -95c-7.33301 -10 -14 -15 -20 -15h-55c-5.33301 0 -9.16602 1.33301 -11.499 4s-1.83301 6.33398 1.5 11.001l110 145c8 10 16.333 15 25 15z" />
    <glyph glyph-name="ccircumflex" unicode="&#x109;" horiz-adv-x="565" 
d="M155 365v-220c0 -22.667 6.83301 -40.834 20.5 -54.501s31.834 -20.5 54.501 -20.5h115c22.667 0 40.834 6.83301 54.501 20.5s20.5 31.834 20.5 54.501v25c0 10 5 15 15 15h55c10 0 15 -5 15 -15v-25c0 -50 -13.667 -88.333 -41 -115s-67 -40 -119 -40h-115
c-52 0 -91.667 13.333 -119 40s-41 65 -41 115v220c0 50 13.667 88.333 41 115s67 40 119 40h115c52 0 91.667 -13.333 119 -40s41 -65 41 -115v-25c0 -10 -5 -15 -15 -15h-55c-10 0 -15 5 -15 15v25c0 22.667 -6.83301 40.834 -20.5 54.501s-31.834 20.5 -54.501 20.5h-115
c-22.667 0 -40.834 -6.83301 -54.501 -20.5s-20.5 -31.834 -20.5 -54.501zM263 765h44.999c8.66699 0 17 -5 25 -15l110 -145c3.33301 -4.66699 3.83301 -8.33398 1.5 -11.001s-6.16602 -4 -11.499 -4h-55c-6.66699 0 -13.334 5 -20.001 15l-70 95h-5l-70 -95
c-7.33301 -10 -14 -15 -20 -15h-55c-5.33301 0 -9.16602 1.33301 -11.499 4s-1.83301 6.33398 1.5 11.001l110 145c8 10 16.333 15 25 15z" />
    <glyph glyph-name="Ccaron" unicode="&#x10c;" horiz-adv-x="750" 
d="M90 165v370c0 116.667 60 175 180 175h230c120 0 180 -58.333 180 -175v-40c0 -10 -5 -15 -15 -15h-65c-10 0 -15 5 -15 15v40c0 56.667 -28.333 85 -85 85h-230c-56.667 0 -85 -28.333 -85 -85v-370c0 -56.667 28.333 -85 85 -85h230c56.667 0 85 28.333 85 85v40
c0 10 5 15 15 15h65c10 0 15 -5 15 -15v-40c0 -116.667 -60 -175 -180 -175h-230c-120 0 -180 58.333 -180 175zM408 780h-44.999c-8.66699 0 -17 5 -25 15l-110 145c-3.33301 4.66699 -3.83301 8.33398 -1.5 11.001s6.16602 4 11.499 4h55c6 0 12.667 -5 20 -15l70 -95h5
l70 95c6.66699 10 13.334 15 20.001 15h55c5.33301 0 9.16602 -1.33301 11.499 -4s1.83301 -6.33398 -1.5 -11.001l-110 -145c-8 -10 -16.333 -15 -25 -15z" />
    <glyph glyph-name="ccaron" unicode="&#x10d;" horiz-adv-x="565" 
d="M155 365v-220c0 -22.667 6.83301 -40.834 20.5 -54.501s31.834 -20.5 54.501 -20.5h115c22.667 0 40.834 6.83301 54.501 20.5s20.5 31.834 20.5 54.501v25c0 10 5 15 15 15h55c10 0 15 -5 15 -15v-25c0 -50 -13.667 -88.333 -41 -115s-67 -40 -119 -40h-115
c-52 0 -91.667 13.333 -119 40s-41 65 -41 115v220c0 50 13.667 88.333 41 115s67 40 119 40h115c52 0 91.667 -13.333 119 -40s41 -65 41 -115v-25c0 -10 -5 -15 -15 -15h-55c-10 0 -15 5 -15 15v25c0 22.667 -6.83301 40.834 -20.5 54.501s-31.834 20.5 -54.501 20.5h-115
c-22.667 0 -40.834 -6.83301 -54.501 -20.5s-20.5 -31.834 -20.5 -54.501zM308 590h-44.999c-8.66699 0 -17 5 -25 15l-110 145c-3.33301 4.66699 -3.83301 8.33398 -1.5 11.001s6.16602 4 11.499 4h55c6 0 12.667 -5 20 -15l70 -95h5l70 95c6.66699 10 13.334 15 20.001 15
h55c5.33301 0 9.16602 -1.33301 11.499 -4s1.83301 -6.33398 -1.5 -11.001l-110 -145c-8 -10 -16.333 -15 -25 -15z" />
    <glyph glyph-name="Dcaron" unicode="&#x10e;" horiz-adv-x="780" 
d="M115 700h395c120 0 180 -58.333 180 -175v-350c0 -116.667 -60 -175 -180 -175h-330h-65c-10 0 -15 5 -15 15v670c0 10 5 15 15 15zM510 610h-315v-520h315c56.667 0 85 28.333 85 85v350c0 56.667 -28.333 85 -85 85zM403 780h-45c-8.66699 0 -17 5 -25 15l-110 145
c-3.33301 4.66699 -3.83301 8.33398 -1.5 11.001s6.16602 4 11.499 4h55c6.66699 0 13.334 -5 20.001 -15l70 -95h5l70 95c6.66699 10 13.334 15 20.001 15h55c5.33301 0 9.16602 -1.33301 11.499 -4s1.83301 -6.33398 -1.5 -11.001l-110 -145c-8 -10 -16.333 -15 -25 -15z
" />
    <glyph glyph-name="dcaron" unicode="&#x10f;" horiz-adv-x="630" 
d="M420 430l-190 0.00195312c-22.667 0 -40.834 -6.83301 -54.501 -20.5s-20.5 -31.834 -20.5 -54.501v-210c0 -22.667 6.83301 -40.834 20.5 -54.501s31.834 -20.5 54.501 -20.5h85c30 0 55 10 75 30s30 45 30 75v255zM230 510.002l190 -0.000976562v175c0 10 5 15 15 15
h55c10 0 15 -5 15 -15v-670c0 -10 -5 -15 -15 -15h-55c-10 0 -15 5 -15 15v35h-5c-0.666992 -1.33301 -1.66699 -3.5 -3 -6.5s-5 -7.83301 -11 -14.5s-12.833 -12.667 -20.5 -18s-18.167 -10.166 -31.5 -14.499s-28 -6.5 -44 -6.5h-75c-52 0 -91.667 13.333 -119 40
s-41 65 -41 115v210c0 50 13.667 88.333 41 115s67 40 119 40zM670 685.001v-55c0 -4.66699 -0.833008 -9.5 -2.5 -14.5s-3.5 -8.83301 -5.5 -11.5l-2 -4l-40 -80c-4 -6.66699 -9 -10 -15 -10h-25c-6 0 -7.66699 3.33301 -5 10l45 90h-25c-10 0 -15 5 -15 15v60
c0 10 5 15 15 15h60c10 0 15 -5 15 -15z" />
    <glyph glyph-name="Dcroat" unicode="&#x110;" horiz-adv-x="805" 
d="M140 700h395c120 0 180 -58.333 180 -175v-350c0 -116.667 -60 -175 -180 -175h-395c-10 0 -15 5 -15 15v285h-70c-10 0 -15 5 -15 15v60c0 10 5 15 15 15h70v295c0 10 5 15 15 15zM390 375v-60c0 -10 -5 -15 -15 -15h-155v-210h315c56.667 0 85 28.333 85 85v350
c0 56.667 -28.333 85 -85 85h-315v-220h155c10 0 15 -5 15 -15z" />
    <glyph glyph-name="dcroat" unicode="&#x111;" horiz-adv-x="570" 
d="M570 585v-50.001c0 -10 -5 -15 -15 -15h-70v-505c0 -10 -5 -15 -15 -15h-55c-10 0 -15 5 -15 15v35h-5c-0.666992 -1.33301 -1.66699 -3.5 -3 -6.5s-5 -7.83301 -11 -14.5s-12.833 -12.667 -20.5 -18s-18.167 -10.166 -31.5 -14.499s-28 -6.5 -44 -6.5h-75
c-52 0 -91.667 13.333 -119 40s-41 65 -41 115v130c0 50 13.667 88.333 41 115s67 40 119 40h190v90h-120c-10 0 -15 5 -15 15v50c0 10 5 15 15 15h120v85c0 10 5 15 15 15h55c10 0 15 -5 15 -15v-85h70c10 0 15 -5 15 -15zM400 349.999l-190 0.00195312
c-22.667 0 -40.834 -6.83301 -54.501 -20.5s-20.5 -31.834 -20.5 -54.501v-130c0 -22.667 6.83301 -40.834 20.5 -54.501s31.834 -20.5 54.501 -20.5h85c30 0 55 10 75 30s30 45 30 75v175z" />
    <glyph glyph-name="Emacron" unicode="&#x112;" horiz-adv-x="680" 
d="M195 90h430c10 0 15 -5 15 -15v-60c0 -10 -4.66699 -15 -14 -15h-511c-10 0 -15 5 -15 15v669c0 10.667 5 16 15 16h500c10 0 15 -5 15 -15v-60c0 -10 -4.66699 -15 -14 -15h-421v-210h330c10 0 15 -5 15 -15v-60c0 -10 -4.66699 -15 -14 -15h-331v-220zM510 865v-40
c0 -10 -5 -15 -15 -15h-250c-10 0 -15 5 -15 15v40c0 10 5 15 15 15h250c10 0 15 -5 15 -15z" />
    <glyph glyph-name="emacron" unicode="&#x113;" horiz-adv-x="580" 
d="M155 300h270.002v65c0 22.667 -6.83301 40.834 -20.5 54.501s-31.834 20.5 -54.501 20.5h-120c-22.667 0 -40.834 -6.83301 -54.501 -20.5s-20.5 -31.834 -20.5 -54.501v-65zM495.002 220h-340.002v-75c0 -22.667 6.83301 -40.834 20.5 -54.501
s31.834 -20.5 54.501 -20.5h120c22.667 0 40.834 6.83301 54.501 20.5s20.5 31.834 20.5 54.501v5c0 10 5 15 15 15h55c10 0 15 -5 15 -15v-5c0 -50 -13.667 -88.333 -41 -115s-67 -40 -119 -40h-120c-52 0 -91.667 13.333 -119 40s-41 65 -41 115v220
c0 50 13.667 88.333 41 115s67 40 119 40h120c52 0 91.667 -13.333 119 -40s41 -65 41 -115v-130c0 -10 -5 -15 -15 -15zM430 685v-40c0 -10 -5 -15 -15 -15h-250c-10 0 -15 5 -15 15v40c0 10 5 15 15 15h250c10 0 15 -5 15 -15z" />
    <glyph glyph-name="Edotaccent" unicode="&#x116;" horiz-adv-x="680" 
d="M195 90h430c10 0 15 -5 15 -15v-60c0 -10 -4.66699 -15 -14 -15h-511c-10 0 -15 5 -15 15v669c0 10.667 5 16 15 16h500c10 0 15 -5 15 -15v-60c0 -10 -4.66699 -15 -14 -15h-421v-210h330c10 0 15 -5 15 -15v-60c0 -10 -4.66699 -15 -14 -15h-331v-220zM405 810h-60
c-10 0 -15 5 -15 15v60c0 10 5 15 15 15h60c10 0 15 -5 15 -15v-60c0 -10 -5 -15 -15 -15z" />
    <glyph glyph-name="edotaccent" unicode="&#x117;" horiz-adv-x="580" 
d="M155 300h270.002v65c0 22.667 -6.83301 40.834 -20.5 54.501s-31.834 20.5 -54.501 20.5h-120c-22.667 0 -40.834 -6.83301 -54.501 -20.5s-20.5 -31.834 -20.5 -54.501v-65zM495.002 220h-340.002v-75c0 -22.667 6.83301 -40.834 20.5 -54.501
s31.834 -20.5 54.501 -20.5h120c22.667 0 40.834 6.83301 54.501 20.5s20.5 31.834 20.5 54.501v5c0 10 5 15 15 15h55c10 0 15 -5 15 -15v-5c0 -50 -13.667 -88.333 -41 -115s-67 -40 -119 -40h-120c-52 0 -91.667 13.333 -119 40s-41 65 -41 115v220
c0 50 13.667 88.333 41 115s67 40 119 40h120c52 0 91.667 -13.333 119 -40s41 -65 41 -115v-130c0 -10 -5 -15 -15 -15zM320 620h-60c-10 0 -15 5 -15 15v60c0 10 5 15 15 15h60c10 0 15 -5 15 -15v-60c0 -10 -5 -15 -15 -15z" />
    <glyph glyph-name="Eogonek" unicode="&#x118;" horiz-adv-x="680" 
d="M370 0l-255.002 0.00390625c-10 0 -15 5 -15 15v669c0 10.667 5 16 15 16h500c10 0 15 -5 15 -15v-60c0 -10 -4.66699 -15 -14 -15h-421v-210h330c10 0 15 -5 15 -15v-60c0 -10 -4.66699 -15 -14 -15h-331v-220h430c10 0 15 -5 15 -15v-60c0 -10 -4.66699 -15 -14 -15
h-196l-11.5 -6c-5 -2.66699 -13.833 -8 -26.5 -16s-23.834 -16.5 -33.501 -25.5s-18.5 -20 -26.5 -33s-12 -26.167 -12 -39.5c0 -12.667 4.33301 -23.334 13 -32.001s19.334 -13 32.001 -13h50c10 0 15 -5 15 -15v-35c0 -10 -5 -15 -15 -15h-50
c-32 0 -57.5 9.16699 -76.5 27.5s-28.5 42.5 -28.5 72.5c0 16.667 3.83301 32.667 11.5 48s16.834 27.666 27.501 36.999s21.334 17.666 32.001 24.999s19.667 12.666 27 15.999z" />
    <glyph glyph-name="eogonek" unicode="&#x119;" horiz-adv-x="580" 
d="M495 220l-340.004 0.00195312v-75c0 -22.667 6.83301 -40.834 20.5 -54.501s31.834 -20.5 54.501 -20.5h120c22.667 0 40.834 6.83301 54.501 20.5s20.5 31.834 20.5 54.501v5c0 10 5 15 15 15h55c10 0 15 -5 15 -15v-5c0 -50 -13.667 -88.333 -41 -115s-67 -40 -119 -40
c-60 -32.667 -90 -69.334 -90 -110.001c0 -12.667 4.33301 -23.334 13 -32.001s19.334 -13 32.001 -13h50c10 0 15 -5 15 -15v-35c0 -10 -5 -15 -15 -15h-50c-32 0 -57.5 9.16699 -76.5 27.5s-28.5 42.5 -28.5 72.5c0 14.667 3.16699 29 9.5 43s13.833 25.333 22.5 34
s17.334 16.5 26.001 23.5s16 12.167 22 15.5l10 4h-60c-52 0 -91.667 13.333 -119 40s-41 65 -41 115v220c0 50 13.667 88.333 41 115s67 40 119 40h120c52 0 91.667 -13.333 119 -40s41 -65 41 -115v-130c0 -10 -5 -15 -15 -15zM154.996 300.002h270.002v65
c0 22.667 -6.83301 40.834 -20.5 54.501s-31.834 20.5 -54.501 20.5h-120c-22.667 0 -40.834 -6.83301 -54.501 -20.5s-20.5 -31.834 -20.5 -54.501v-65z" />
    <glyph glyph-name="Ecaron" unicode="&#x11a;" horiz-adv-x="680" 
d="M195 90h430c10 0 15 -5 15 -15v-60c0 -10 -4.66699 -15 -14 -15h-511c-10 0 -15 5 -15 15v669c0 10.667 5 16 15 16h500c10 0 15 -5 15 -15v-60c0 -10 -4.66699 -15 -14 -15h-421v-210h330c10 0 15 -5 15 -15v-60c0 -10 -4.66699 -15 -14 -15h-331v-220zM393 780h-44.999
c-8.66699 0 -17 5 -25 15l-110 145c-3.33301 4.66699 -3.83301 8.33398 -1.5 11.001s6.16602 4 11.499 4h55c6.66699 0 13.334 -5 20.001 -15l70 -95h5l70 95c7.33301 10 14 15 20 15h55c5.33301 0 9.16602 -1.33301 11.499 -4s1.83301 -6.33398 -1.5 -11.001l-110 -145
c-8 -10 -16.333 -15 -25 -15z" />
    <glyph glyph-name="ecaron" unicode="&#x11b;" horiz-adv-x="580" 
d="M155 300h270.002v65c0 22.667 -6.83301 40.834 -20.5 54.501s-31.834 20.5 -54.501 20.5h-120c-22.667 0 -40.834 -6.83301 -54.501 -20.5s-20.5 -31.834 -20.5 -54.501v-65zM495.002 220h-340.002v-75c0 -22.667 6.83301 -40.834 20.5 -54.501
s31.834 -20.5 54.501 -20.5h120c22.667 0 40.834 6.83301 54.501 20.5s20.5 31.834 20.5 54.501v5c0 10 5 15 15 15h55c10 0 15 -5 15 -15v-5c0 -50 -13.667 -88.333 -41 -115s-67 -40 -119 -40h-120c-52 0 -91.667 13.333 -119 40s-41 65 -41 115v220
c0 50 13.667 88.333 41 115s67 40 119 40h120c52 0 91.667 -13.333 119 -40s41 -65 41 -115v-130c0 -10 -5 -15 -15 -15zM313 590h-44.999c-8.66699 0 -17 5 -25 15l-110 145c-3.33301 4.66699 -3.83301 8.33398 -1.5 11.001s6.16602 4 11.499 4h55
c6.66699 0 13.334 -5 20.001 -15l70 -95h5l70 95c7.33301 10 14 15 20 15h55c5.33301 0 9.16602 -1.33301 11.499 -4s1.83301 -6.33398 -1.5 -11.001l-110 -145c-8 -10 -16.333 -15 -25 -15z" />
    <glyph glyph-name="Gbreve" unicode="&#x11e;" horiz-adv-x="770" 
d="M90 165v370c0 116.667 60 175 180 175h230c120 0 180 -58.333 180 -175v-40c0 -10 -5 -15 -15 -15h-65c-10 0 -15 5 -15 15v40c0 56.667 -28.333 85 -85 85h-230c-56.667 0 -85 -28.333 -85 -85v-370c0 -56.667 28.333 -85 85 -85h230c56.667 0 85 28.333 85 85v115h-150
c-10 0 -15 5 -15 15v60c0 10 5 15 15 15h230c10 0 15 -5.33301 15 -16v-189c0 -116.667 -60 -175 -180 -175h-230c-120 0 -180 58.333 -180 175zM410 790h-55c-37.333 0 -65.833 9.5 -85.5 28.5s-29.5 46.167 -29.5 81.5v25c0 10 5 15 15 15h45c10 0 15 -5 15 -15v-25
c0 -26.667 13.333 -40 40 -40h55c26.667 0 40 13.333 40 40v25c0 10 5 15 15 15h45c10 0 15 -5 15 -15v-25c0 -35.333 -9.83301 -62.5 -29.5 -81.5s-48.167 -28.5 -85.5 -28.5z" />
    <glyph glyph-name="gbreve" unicode="&#x11f;" 
d="M420 40h-190.003c-52 0 -91.667 13.333 -119 40s-41 65 -41 115v170c0 50 13.667 88.333 41 115s67 40 119 40h75c16 0 30.667 -2 44 -6s23.833 -9 31.5 -15s14.334 -12 20.001 -18s9.5 -11 11.5 -15l3 -6h5v35c0 10 5 15 15 15h55c10 0 15 -5 15 -15v-540
c0 -50 -13.667 -88.333 -41 -115s-67 -40 -119 -40h-105c-52 0 -91.667 13.333 -119 40s-41 65 -41 115v15c0 10 5 15 15 15h55c10 0 15 -5 15 -15v-15c0 -22.667 6.83301 -40.834 20.5 -54.501s31.834 -20.5 54.501 -20.5h105c22.667 0 40.834 6.83301 54.501 20.5
s20.5 31.834 20.5 54.501v85zM229.997 120l190 0.00195312v215c0 30 -10 55 -30 75s-45 30 -75 30h-85c-22.667 0 -40.834 -6.83301 -54.501 -20.5s-20.5 -31.834 -20.5 -54.501v-170c0 -22.667 6.83301 -40.834 20.5 -54.501s31.834 -20.5 54.501 -20.5zM319.997 600.002
h-55c-37.333 0 -65.833 9.5 -85.5 28.5s-29.5 46.167 -29.5 81.5v25c0 10 5 15 15 15h45c10 0 15 -5 15 -15v-25c0 -26.667 13.333 -40 40 -40h55c26.667 0 40 13.333 40 40v25c0 10 5 15 15 15h45c10 0 15 -5 15 -15v-25c0 -35.333 -9.83301 -62.5 -29.5 -81.5
s-48.167 -28.5 -85.5 -28.5z" />
    <glyph glyph-name="Gcommaaccent" unicode="&#x122;" horiz-adv-x="770" 
d="M90 165v370c0 116.667 60 175 180 175h230c120 0 180 -58.333 180 -175v-40c0 -10 -5 -15 -15 -15h-65c-10 0 -15 5 -15 15v40c0 56.667 -28.333 85 -85 85h-230c-56.667 0 -85 -28.333 -85 -85v-370c0 -56.667 28.333 -85 85 -85h230c56.667 0 85 28.333 85 85v115h-150
c-10 0 -15 5 -15 15v60c0 10 5 15 15 15h230c10 0 15 -5.33301 15 -16v-189c0 -116.667 -60 -175 -180 -175h-230c-120 0 -180 58.333 -180 175zM440 -105v-55c0 -4.66699 -0.833008 -9.5 -2.5 -14.5s-3.5 -8.83301 -5.5 -11.5l-2 -4l-40 -80c-4 -6.66699 -9 -10 -15 -10
h-25c-6 0 -7.66699 3.33301 -5 10l45 90h-25c-10 0 -15 5 -15 15v60c0 10 5 15 15 15h60c10 0 15 -5 15 -15z" />
    <glyph glyph-name="gcommaaccent" unicode="&#x123;" 
d="M250 615v55c0 4.66699 0.833008 9.5 2.5 14.5s3.5 8.83301 5.5 11.5l2 4l40 80c4 6.66699 9 10 15 10h25c6 0 7.66699 -3.33301 5 -10l-45 -90h25c10 0 15 -5 15 -15v-60c0 -10 -5 -15 -15 -15h-60c-10 0 -15 5 -15 15zM420 40h-190.003c-52 0 -91.667 13.333 -119 40
s-41 65 -41 115v170c0 50 13.667 88.333 41 115s67 40 119 40h75c16 0 30.667 -2 44 -6s23.833 -9 31.5 -15s14.334 -12 20.001 -18s9.5 -11 11.5 -15l3 -6h5v35c0 10 5 15 15 15h55c10 0 15 -5 15 -15v-540c0 -50 -13.667 -88.333 -41 -115s-67 -40 -119 -40h-105
c-52 0 -91.667 13.333 -119 40s-41 65 -41 115v15c0 10 5 15 15 15h55c10 0 15 -5 15 -15v-15c0 -22.667 6.83301 -40.834 20.5 -54.501s31.834 -20.5 54.501 -20.5h105c22.667 0 40.834 6.83301 54.501 20.5s20.5 31.834 20.5 54.501v85zM229.997 120l190 0.00195312v215
c0 30 -10 55 -30 75s-45 30 -75 30h-85c-22.667 0 -40.834 -6.83301 -54.501 -20.5s-20.5 -31.834 -20.5 -54.501v-170c0 -22.667 6.83301 -40.834 20.5 -54.501s31.834 -20.5 54.501 -20.5z" />
    <glyph glyph-name="Imacron" unicode="&#x12a;" horiz-adv-x="300" 
d="M100 15v670c0 10 5 15 15 15h65c10 0 15 -5 15 -15v-670c0 -10 -5 -15 -15 -15h-65c-10 0 -15 5 -15 15zM290 875v-40c0 -10 -5 -15 -15 -15h-250c-10 0 -15 5 -15 15v40c0 10 5 15 15 15h250c10 0 15 -5 15 -15z" />
    <glyph glyph-name="imacron" unicode="&#x12b;" horiz-adv-x="260" 
d="M160 0h-55c-10 0 -15 5 -15 15v480c0 10 5 15 15 15h55c10 0 15 -5 15 -15v-480c0 -10 -5 -15 -15 -15zM270 685v-40c0 -10 -5 -15 -15 -15h-250c-10 0 -15 5 -15 15v40c0 10 5 15 15 15h250c10 0 15 -5 15 -15z" />
    <glyph glyph-name="Iogonek" unicode="&#x12e;" horiz-adv-x="295" 
d="M120 0l-5.00195 0.00390625c-10 0 -15 5 -15 15v670c0 10 5 15 15 15h65c10 0 15 -5 15 -15v-670c0 -10 -5 -15 -15 -15l-11.5 -6c-5 -2.66699 -13.833 -8 -26.5 -16s-23.834 -16.5 -33.501 -25.5s-18.5 -20 -26.5 -33s-12 -26.167 -12 -39.5
c0 -12.667 4.33301 -23.334 13 -32.001s19.334 -13 32.001 -13h50c10 0 15 -5 15 -15v-35c0 -10 -5 -15 -15 -15h-50c-32 0 -57.5 9.16699 -76.5 27.5s-28.5 42.5 -28.5 72.5c0 16.667 3.83301 32.667 11.5 48s16.834 27.666 27.501 36.999s21.334 17.666 32.001 24.999
s19.667 12.666 27 15.999z" />
    <glyph glyph-name="iogonek" unicode="&#x12f;" horiz-adv-x="245" 
d="M90 0l0.998047 0.00390625c-7.33301 1.33301 -11 6.33301 -11 15v480c0 10 5 15 15 15h55c10 0 15 -5 15 -15v-480c0 -10 -5 -15 -15 -15l-11.5 -6c-5 -2.66699 -13.833 -8 -26.5 -16s-23.834 -16.5 -33.501 -25.5s-18.5 -20 -26.5 -33s-12 -26.167 -12 -39.5
c0 -12.667 4.33301 -23.334 13 -32.001s19.334 -13 32.001 -13h50c10 0 15 -5 15 -15v-35c0 -10 -5 -15 -15 -15h-50c-32 0 -57.5 9.16699 -76.5 27.5s-28.5 42.5 -28.5 72.5c0 16.667 3.83301 32.667 11.5 48s16.834 27.666 27.501 36.999s21.334 17.666 32.001 24.999
s19.667 12.666 27 15.999zM94.998 700.004h55c10 0 15 -5 15 -15v-55c0 -10 -5 -15 -15 -15h-55c-10 0 -15 5 -15 15v55c0 10 5 15 15 15z" />
    <glyph glyph-name="Idotaccent" unicode="&#x130;" horiz-adv-x="295" 
d="M100 15v670c0 10 5 15 15 15h65c10 0 15 -5 15 -15v-670c0 -10 -5 -15 -15 -15h-65c-10 0 -15 5 -15 15zM180 800h-60c-10 0 -15 5 -15 15v60c0 10 5 15 15 15h60c10 0 15 -5 15 -15v-60c0 -10 -5 -15 -15 -15z" />
    <glyph glyph-name="dotlessi" unicode="&#x131;" horiz-adv-x="245" 
d="M150 0h-55c-10 0 -15 5 -15 15v480c0 10 5 15 15 15h55c10 0 15 -5 15 -15v-480c0 -10 -5 -15 -15 -15z" />
    <glyph glyph-name="Kcommaaccent" unicode="&#x136;" horiz-adv-x="692" 
d="M195 320v-305c0 -10 -5 -15 -15 -15h-65c-10 0 -15 5 -15 15v670c0 10 5 15 15 15h65c10 0 15 -5 15 -15v-275h190l150 275c4.66699 10 13 15 25 15h70c12 0 15.333 -5 10 -15l-175 -315l195 -355c5.33301 -10 2 -15 -10 -15h-70c-12 0 -20.333 5 -25 15l-165 305h-195z
M420 -105v-55c0 -4.66699 -0.833008 -9.5 -2.5 -14.5s-3.5 -8.83301 -5.5 -11.5l-2 -4l-40 -80c-4 -6.66699 -9 -10 -15 -10h-25c-6 0 -7.66699 3.33301 -5 10l45 90h-25c-10 0 -15 5 -15 15v60c0 10 5 15 15 15h60c10 0 15 -5 15 -15z" />
    <glyph glyph-name="kcommaaccent" unicode="&#x137;" horiz-adv-x="522" 
d="M405 15l-114.998 215h-125v-215c0 -10 -5 -15 -15 -15h-55c-10 0 -15 5 -15 15v670c0 10 5 15 15 15h55c10 0 15 -5 15 -15v-375h125l100 185c5.33301 10 13.666 15 24.999 15h60c11.333 0 14.666 -5 9.99902 -15l-125 -225l140 -255c5.33301 -10 2 -15 -10 -15h-60
c-12 0 -20.333 5 -25 15zM320.002 -95v-55c0 -4.66699 -0.833008 -9.5 -2.5 -14.5s-3.5 -8.83301 -5.5 -11.5l-2 -4l-40 -80c-4 -6.66699 -9 -10 -15 -10h-25c-6 0 -7.66699 3.33301 -5 10l45 90h-25c-10 0 -15 5 -15 15v60c0 10 5 15 15 15h60c10 0 15 -5 15 -15z" />
    <glyph glyph-name="Lacute" unicode="&#x139;" horiz-adv-x="640" 
d="M195 685v-595h410c10 0 15 -5 15 -15v-60c0 -10 -5 -15 -15 -15h-490c-10 -0 -15 5.33301 -15 16v669c0 10 5 15 15 15h65c10 0 15 -5 15 -15zM278 930l-90 -134.999c-6 -10 -12.667 -15 -20 -15h-40c-10.667 0 -14 5 -10 15l60 135c5.33301 10 12 15 20 15h70
c5.33301 0 9 -1.33301 11 -4s1.66699 -6.33398 -1 -11.001z" />
    <glyph glyph-name="lacute" unicode="&#x13a;" horiz-adv-x="245" 
d="M150 0h-55c-10 0 -15 5 -15 15v670c0 10 5 15 15 15h55c10 0 15 -5 15 -15v-670c0 -10 -5 -15 -15 -15zM252 930l-90 -134.999c-6 -10 -12.667 -15 -20 -15h-40c-10.667 0 -14 5 -10 15l60 135c5.33301 10 12 15 20 15h70c5.33301 0 9 -1.33301 11 -4
s1.66699 -6.33398 -1 -11.001z" />
    <glyph glyph-name="Lcommaaccent" unicode="&#x13b;" horiz-adv-x="640" 
d="M195 685v-595h410c10 0 15 -5 15 -15v-60c0 -10 -5 -15 -15 -15h-490c-10 -0 -15 5.33301 -15 16v669c0 10 5 15 15 15h65c10 0 15 -5 15 -15zM410 -105v-55c0 -4.66699 -0.833008 -9.5 -2.5 -14.5s-3.5 -8.83301 -5.5 -11.5l-2 -4l-40 -80c-4 -6.66699 -9 -10 -15 -10
h-25c-6 0 -7.66699 3.33301 -5 10l45 90h-25c-10 0 -15 5 -15 15v60c0 10 5 15 15 15h60c10 0 15 -5 15 -15z" />
    <glyph glyph-name="lcommaaccent" unicode="&#x13c;" horiz-adv-x="246" 
d="M151 0h-55c-10 0 -15 5 -15 15v670c0 10 5 15 15 15h55c10 0 15 -5 15 -15v-670c0 -10 -5 -15 -15 -15zM166 -105v-55c0 -4.66699 -0.833008 -9.5 -2.5 -14.5s-3.5 -8.83301 -5.5 -11.5l-2 -4l-40 -80c-4 -6.66699 -9 -10 -15 -10h-25c-6 0 -7.66699 3.33301 -5 10l45 90
h-25c-10 0 -15 5 -15 15v60c0 10 5 15 15 15h60c10 0 15 -5 15 -15z" />
    <glyph glyph-name="Lcaron" unicode="&#x13d;" horiz-adv-x="640" 
d="M195 685v-595h410c10 0 15 -5 15 -15v-60c0 -10 -5 -15 -15 -15h-490c-10 -0 -15 5.33301 -15 16v669c0 10 5 15 15 15h65c10 0 15 -5 15 -15zM370 685v-55c0 -4.66699 -0.833008 -9.5 -2.5 -14.5s-3.5 -8.83301 -5.5 -11.5l-2 -4l-40 -80c-4 -6.66699 -9 -10 -15 -10
h-25c-6 0 -7.66699 3.33301 -5 10l45 90h-25c-10 0 -15 5 -15 15v60c0 10 5 15 15 15h60c10 0 15 -5 15 -15z" />
    <glyph glyph-name="lcaron" unicode="&#x13e;" horiz-adv-x="290" 
d="M150 0h-55c-10 0 -15 5 -15 15v670c0 10 5 15 15 15h55c10 0 15 -5 15 -15v-670c0 -10 -5 -15 -15 -15zM330 685v-55c0 -4.66699 -0.833008 -9.5 -2.5 -14.5s-3.5 -8.83301 -5.5 -11.5l-2 -4l-40 -80c-4 -6.66699 -9 -10 -15 -10h-25c-6 0 -7.66699 3.33301 -5 10l45 90
h-25c-10 0 -15 5 -15 15v60c0 10 5 15 15 15h60c10 0 15 -5 15 -15z" />
    <glyph glyph-name="Lslash" unicode="&#x141;" horiz-adv-x="660" 
d="M120 375v310c0 10 5 15 15 15h65c10 0 15 -5 15 -15v-275l95 35c10 4 15 0.666992 15 -10v-45c0 -9.33301 -5 -16 -15 -20l-95 -35v-245h410c10 0 15 -5 15 -15v-60c0 -10 -5 -15 -15 -15h-490c-10 -0 -15 5.33301 -15 16v284l-95 -35c-10 -4 -15 -0.666992 -15 10v45
c0 9.33301 5 16 15 20z" />
    <glyph glyph-name="lslash" unicode="&#x142;" horiz-adv-x="305" 
d="M290 445c10 4 15 0.666992 15 -10v-45c0 -9.33301 -5 -16 -15 -20l-95 -35v-320c0 -10 -5 -15 -15 -15h-55c-10 0 -15 5 -15 15v290l-95 -35c-10 -4 -15 -0.666992 -15 10v45c0 9.33301 5 16 15 20l95 35v305c0 10 5 15 15 15h55c10 0 15 -5 15 -15v-275z" />
    <glyph glyph-name="Nacute" unicode="&#x143;" horiz-adv-x="780" 
d="M590 0c-14 0 -24 5 -30 15l-360 540h-5v-540c0 -10 -5 -15 -15 -15h-65c-10 0 -15 5 -15 15v670c0 10 5 15 15 15h75c14 0 24 -5 30 -15l360 -540h5v540c0 10 5 15 15 15h65c10 0 15 -5 15 -15v-670c0 -10 -5 -15 -15 -15h-75zM512 930l-90 -134.999
c-6 -10 -12.667 -15 -20 -15h-40c-10.667 0 -14 5 -10 15l60 135c5.33301 10 12 15 20 15h70c5.33301 0 9 -1.33301 11 -4s1.66699 -6.33398 -1 -11.001z" />
    <glyph glyph-name="nacute" unicode="&#x144;" horiz-adv-x="595" 
d="M280 520h75.001c52 0 91.667 -13.333 119 -40s41 -65 41 -115v-350c0 -10 -5 -15 -15 -15h-55c-10 0 -15 5 -15 15v350c0 22.667 -6.83301 40.834 -20.5 54.501s-31.834 20.5 -54.501 20.5h-85c-30 0 -55 -10 -75 -30s-30 -45 -30 -75v-320c0 -10 -5 -15 -15 -15h-55
c-10 0 -15 5 -15 15v480c0 10 5 15 15 15h55c10 0 15 -5 15 -15v-35h5c0.666992 1.33301 1.66699 3.5 3 6.5s5 7.83301 11 14.5s12.833 12.667 20.5 18s18.167 10.166 31.5 14.499s28 6.5 44 6.5zM431.001 740l-90.001 -134.999c-6 -10 -12.667 -15 -20 -15h-40
c-10.667 0 -14 5 -10 15l60 135c4.66699 10 11.334 15 20.001 15h70c5.33301 0 9 -1.33301 11 -4s1.66699 -6.33398 -1 -11.001z" />
    <glyph glyph-name="Ncommaaccent" unicode="&#x145;" horiz-adv-x="780" 
d="M590 0c-14 0 -24 5 -30 15l-360 540h-5v-540c0 -10 -5 -15 -15 -15h-65c-10 0 -15 5 -15 15v670c0 10 5 15 15 15h75c14 0 24 -5 30 -15l360 -540h5v540c0 10 5 15 15 15h65c10 0 15 -5 15 -15v-670c0 -10 -5 -15 -15 -15h-75zM440 -105v-55
c0 -4.66699 -0.833008 -9.5 -2.5 -14.5s-3.5 -8.83301 -5.5 -11.5l-2 -4l-40 -80c-4 -6.66699 -9 -10 -15 -10h-25c-6 0 -7.66699 3.33301 -5 10l45 90h-25c-10 0 -15 5 -15 15v60c0 10 5 15 15 15h60c10 0 15 -5 15 -15z" />
    <glyph glyph-name="ncommaaccent" unicode="&#x146;" horiz-adv-x="595" 
d="M280 520h75.001c52 0 91.667 -13.333 119 -40s41 -65 41 -115v-350c0 -10 -5 -15 -15 -15h-55c-10 0 -15 5 -15 15v350c0 22.667 -6.83301 40.834 -20.5 54.501s-31.834 20.5 -54.501 20.5h-85c-30 0 -55 -10 -75 -30s-30 -45 -30 -75v-320c0 -10 -5 -15 -15 -15h-55
c-10 0 -15 5 -15 15v480c0 10 5 15 15 15h55c10 0 15 -5 15 -15v-35h5c0.666992 1.33301 1.66699 3.5 3 6.5s5 7.83301 11 14.5s12.833 12.667 20.5 18s18.167 10.166 31.5 14.499s28 6.5 44 6.5zM350.001 -95v-55c0 -4.66699 -0.833008 -9.5 -2.5 -14.5
s-3.5 -8.83301 -5.5 -11.5l-2 -4l-40 -80c-4 -6.66699 -9 -10 -15 -10h-25c-6 0 -7.66699 3.33301 -5 10l45 90h-25c-10 0 -15 5 -15 15v60c0 10 5 15 15 15h60c10 0 15 -5 15 -15z" />
    <glyph glyph-name="Ncaron" unicode="&#x147;" horiz-adv-x="780" 
d="M590 0c-14 0 -24 5 -30 15l-360 540h-5v-540c0 -10 -5 -15 -15 -15h-65c-10 0 -15 5 -15 15v670c0 10 5 15 15 15h75c14 0 24 -5 30 -15l360 -540h5v540c0 10 5 15 15 15h65c10 0 15 -5 15 -15v-670c0 -10 -5 -15 -15 -15h-75zM423 780h-44.999c-8.66699 0 -17 5 -25 15
l-110 145c-3.33301 4.66699 -3.83301 8.33398 -1.5 11.001s6.16602 4 11.499 4h55c6.66699 0 13.334 -5 20.001 -15l70 -95h5l70 95c7.33301 10 14 15 20 15h55c5.33301 0 9.16602 -1.33301 11.499 -4s1.83301 -6.33398 -1.5 -11.001l-110 -145c-8 -10 -16.333 -15 -25 -15z
" />
    <glyph glyph-name="ncaron" unicode="&#x148;" horiz-adv-x="595" 
d="M280 520h75.001c52 0 91.667 -13.333 119 -40s41 -65 41 -115v-350c0 -10 -5 -15 -15 -15h-55c-10 0 -15 5 -15 15v350c0 22.667 -6.83301 40.834 -20.5 54.501s-31.834 20.5 -54.501 20.5h-85c-30 0 -55 -10 -75 -30s-30 -45 -30 -75v-320c0 -10 -5 -15 -15 -15h-55
c-10 0 -15 5 -15 15v480c0 10 5 15 15 15h55c10 0 15 -5 15 -15v-35h5c0.666992 1.33301 1.66699 3.5 3 6.5s5 7.83301 11 14.5s12.833 12.667 20.5 18s18.167 10.166 31.5 14.499s28 6.5 44 6.5zM320.001 590h-44.999c-8.66699 0 -17 5 -25 15l-110 145
c-3.33301 4.66699 -3.83301 8.33398 -1.5 11.001s6.16602 4 11.499 4h55c6 0 12.667 -5 20 -15l70 -95h5l70 95c6.66699 10 13.334 15 20.001 15h55c5.33301 0 9.16602 -1.33301 11.499 -4s1.83301 -6.33398 -1.5 -11.001l-110 -145c-8 -10 -16.333 -15 -25 -15z" />
    <glyph glyph-name="Omacron" unicode="&#x14c;" horiz-adv-x="790" 
d="M90 165v370c0 116.667 60 175 180 175h250c120 0 180 -58.333 180 -175v-370c0 -116.667 -60 -175 -180 -175h-250c-120 0 -180 58.333 -180 175zM605 165v370c0 56.667 -28.333 85 -85 85h-250c-56.667 0 -85 -28.333 -85 -85v-370c0 -56.667 28.333 -85 85 -85h250
c56.667 0 85 28.333 85 85zM535 875v-40c0 -10 -5 -15 -15 -15h-250c-10 0 -15 5 -15 15v40c0 10 5 15 15 15h250c10 0 15 -5 15 -15z" />
    <glyph glyph-name="omacron" unicode="&#x14d;" 
d="M430 145v220c0 22.667 -6.83301 40.834 -20.5 54.501s-31.834 20.5 -54.501 20.5h-125c-22.667 0 -40.834 -6.83301 -54.501 -20.5s-20.5 -31.834 -20.5 -54.501v-220c0 -22.667 6.83301 -40.834 20.5 -54.501s31.834 -20.5 54.501 -20.5h125
c22.667 0 40.834 6.83301 54.501 20.5s20.5 31.834 20.5 54.501zM515 365v-220c0 -50 -13.667 -88.333 -41 -115s-67 -40 -119 -40h-125c-52 0 -91.667 13.333 -119 40s-41 65 -41 115v220c0 50 13.667 88.333 41 115s67 40 119 40h125c52 0 91.667 -13.333 119 -40
s41 -65 41 -115zM430 685v-40c0 -10 -5 -15 -15 -15h-250c-10 0 -15 5 -15 15v40c0 10 5 15 15 15h250c10 0 15 -5 15 -15z" />
    <glyph glyph-name="Ohungarumlaut" unicode="&#x150;" horiz-adv-x="790" 
d="M90 165v370c0 116.667 60 175 180 175h250c120 0 180 -58.333 180 -175v-370c0 -116.667 -60 -175 -180 -175h-250c-120 0 -180 58.333 -180 175zM605 165v370c0 56.667 -28.333 85 -85 85h-250c-56.667 0 -85 -28.333 -85 -85v-370c0 -56.667 28.333 -85 85 -85h250
c56.667 0 85 28.333 85 85zM441 945l-90 -140c-6 -10 -12.667 -15 -20 -15h-30c-10.667 0 -14 5 -10 15l60 140c4 10 10.667 15 20 15h60c12.667 0 16 -5 10 -15zM596 945l-90 -140c-6 -10 -12.667 -15 -20 -15h-30c-10.667 0 -14 5 -10 15l60 140c4 10 10.667 15 20 15h60
c12.667 0 16 -5 10 -15z" />
    <glyph glyph-name="ohungarumlaut" unicode="&#x151;" 
d="M430 145v220c0 22.667 -6.83301 40.834 -20.5 54.501s-31.834 20.5 -54.501 20.5h-125c-22.667 0 -40.834 -6.83301 -54.501 -20.5s-20.5 -31.834 -20.5 -54.501v-220c0 -22.667 6.83301 -40.834 20.5 -54.501s31.834 -20.5 54.501 -20.5h125
c22.667 0 40.834 6.83301 54.501 20.5s20.5 31.834 20.5 54.501zM515 365v-220c0 -50 -13.667 -88.333 -41 -115s-67 -40 -119 -40h-125c-52 0 -91.667 13.333 -119 40s-41 65 -41 115v220c0 50 13.667 88.333 41 115s67 40 119 40h125c52 0 91.667 -13.333 119 -40
s41 -65 41 -115zM342 745l-90 -140c-6 -10 -12.667 -15 -20 -15h-30c-10.667 0 -14 5 -10 15l60 140c4 10 10.667 15 20 15h60c12.667 0 16 -5 10 -15zM497 745l-90 -140c-6 -10 -12.667 -15 -20 -15h-30c-10.667 0 -14 5 -10 15l60 140c4 10 10.667 15 20 15h60
c12.667 0 16 -5 10 -15z" />
    <glyph glyph-name="OE" unicode="&#x152;" horiz-adv-x="1070" 
d="M625 90h390c10 0 15 -5 15 -15v-60c0 -10 -4.66699 -15 -14 -15h-746c-120 -0 -180 58.333 -180 175v350c0 116.667 60 175 180 175h735c10 0 15 -5 15 -15v-60c0 -10 -4.66699 -15 -14 -15h-381v-210h290c10 0 15 -5 15 -15v-60c0 -10 -4.66699 -15 -14 -15h-291v-220z
M185 175c0 -56.667 28.333 -85 85 -85h260v520h-260c-56.667 0 -85 -28.333 -85 -85v-350z" />
    <glyph glyph-name="oe" unicode="&#x153;" horiz-adv-x="890" 
d="M405 145v220c0 22.667 -6.83301 40.834 -20.5 54.501s-31.834 20.5 -54.501 20.5h-100c-22.667 0 -40.834 -6.83301 -54.501 -20.5s-20.5 -31.834 -20.5 -54.501v-220c0 -22.667 6.83301 -40.834 20.5 -54.501s31.834 -20.5 54.501 -20.5h100
c22.667 0 40.834 6.83301 54.501 20.5s20.5 31.834 20.5 54.501zM490 300h245.002v65c0 22.667 -6.83301 40.834 -20.5 54.501s-31.834 20.5 -54.501 20.5h-95c-22.667 0 -40.834 -6.83301 -54.501 -20.5s-20.5 -31.834 -20.5 -54.501v-65zM330.002 -10h-100
c-52 0 -91.667 13.333 -119 40s-41 65 -41 115v220c0 50 13.667 88.333 41 115s67 40 119 40h100c25.333 0 48 -5 68 -15s33.667 -20 41 -30l11 -15h5c2.66699 4.66699 6.66699 10.334 12 17.001s17.5 15.5 36.5 26.5s39.5 16.5 61.5 16.5h95c52 0 91.667 -13.333 119 -40
s41 -65 41 -115v-130c0 -10 -5 -15 -15 -15h-315v-75c0 -22.667 6.83301 -40.834 20.5 -54.501s31.834 -20.5 54.501 -20.5h95c22.667 0 40.834 6.83301 54.501 20.5s20.5 31.834 20.5 54.501v5c0 10 5 15 15 15h55c10 0 15 -5 15 -15v-5c0 -50 -13.667 -88.333 -41 -115
s-67 -40 -119 -40h-95c-22 0 -42.167 5 -60.5 15s-31.166 20 -38.499 30l-11 15h-5c-2.66699 -4.66699 -6.83398 -10.334 -12.501 -17.001s-18.834 -15.5 -39.501 -26.5s-43.334 -16.5 -68.001 -16.5z" />
    <glyph glyph-name="Racute" unicode="&#x154;" horiz-adv-x="737" 
d="M535 250l129.998 -234.999c4.66699 -10 1.33398 -15 -9.99902 -15h-70c-11.333 0 -19.666 5 -24.999 15l-120 225h-245v-225c0 -10 -5 -15 -15 -15h-65c-10 0 -15 5 -15 15v670c0 10 5 15 15 15h355c120 0 180 -58.333 180 -175v-110c0 -28 -4 -52.833 -12 -74.5
s-17.667 -37.834 -29 -48.501s-22.5 -19.5 -33.5 -26.5s-20.5 -11.5 -28.5 -13.5zM194.998 330.001h275c56.667 0 85 28.333 85 85v110c0 56.667 -28.333 85 -85 85h-275v-280zM491.998 930.001l-90 -134.999c-6 -10 -12.667 -15 -20 -15h-40c-10.667 0 -14 5 -10 15l60 135
c5.33301 10 12 15 20 15h70c5.33301 0 9 -1.33301 11 -4s1.66699 -6.33398 -1 -11.001z" />
    <glyph glyph-name="racute" unicode="&#x155;" horiz-adv-x="360" 
d="M80 15v480.001c0 10 5 15 15 15h55c10 0 15 -5 15 -15v-35h5c0.666992 1.33301 1.66699 3.5 3 6.5s5 7.83301 11 14.5s12.833 12.667 20.5 18s18.167 10.166 31.5 14.499s28 6.5 44 6.5h55c10 0 15 -5 15 -15v-50c0 -10 -5 -15 -15 -15h-65c-30 0 -55 -10 -75 -30
s-30 -45 -30 -75v-320c0 -10 -5 -15 -15 -15h-55c-10 0 -15 5 -15 15zM342 740.001l-90 -134.999c-6 -10 -12.667 -15 -20 -15h-40c-10.667 0 -14 5 -10 15l60 135c5.33301 10 12 15 20 15h70c5.33301 0 9 -1.33301 11 -4s1.66699 -6.33398 -1 -11.001z" />
    <glyph glyph-name="Rcommaaccent" unicode="&#x156;" horiz-adv-x="737" 
d="M535 250l129.998 -234.999c4.66699 -10 1.33398 -15 -9.99902 -15h-70c-11.333 0 -19.666 5 -24.999 15l-120 225h-245v-225c0 -10 -5 -15 -15 -15h-65c-10 0 -15 5 -15 15v670c0 10 5 15 15 15h355c120 0 180 -58.333 180 -175v-110c0 -28 -4 -52.833 -12 -74.5
s-17.667 -37.834 -29 -48.501s-22.5 -19.5 -33.5 -26.5s-20.5 -11.5 -28.5 -13.5zM194.998 330.001h275c56.667 0 85 28.333 85 85v110c0 56.667 -28.333 85 -85 85h-275v-280zM419.998 -94.999v-55c0 -4.66699 -0.833008 -9.5 -2.5 -14.5s-3.5 -8.83301 -5.5 -11.5l-2 -4
l-40 -80c-4 -6.66699 -9 -10 -15 -10h-25c-6 0 -7.66699 3.33301 -5 10l45 90h-25c-10 0 -15 5 -15 15v60c0 10 5 15 15 15h60c10 0 15 -5 15 -15z" />
    <glyph glyph-name="rcommaaccent" unicode="&#x157;" horiz-adv-x="366" 
d="M86 15v480.001c0 10 5 15 15 15h55c10 0 15 -5 15 -15v-35h5c0.666992 1.33301 1.66699 3.5 3 6.5s5 7.83301 11 14.5s12.833 12.667 20.5 18s18.167 10.166 31.5 14.499s28 6.5 44 6.5h55c10 0 15 -5 15 -15v-50c0 -10 -5 -15 -15 -15h-65c-30 0 -55 -10 -75 -30
s-30 -45 -30 -75v-320c0 -10 -5 -15 -15 -15h-55c-10 0 -15 5 -15 15zM176 -94.999v-55c0 -4.66699 -0.833008 -9.5 -2.5 -14.5s-3.5 -8.83301 -5.5 -11.5l-2 -4l-40 -80c-4 -6.66699 -9 -10 -15 -10h-25c-6 0 -7.66699 3.33301 -5 10l45 90h-25c-10 0 -15 5 -15 15v60
c0 10 5 15 15 15h60c10 0 15 -5 15 -15z" />
    <glyph glyph-name="Rcaron" unicode="&#x158;" horiz-adv-x="737" 
d="M535 250l129.998 -234.999c4.66699 -10 1.33398 -15 -9.99902 -15h-70c-11.333 0 -19.666 5 -24.999 15l-120 225h-245v-225c0 -10 -5 -15 -15 -15h-65c-10 0 -15 5 -15 15v670c0 10 5 15 15 15h355c120 0 180 -58.333 180 -175v-110c0 -28 -4 -52.833 -12 -74.5
s-17.667 -37.834 -29 -48.501s-22.5 -19.5 -33.5 -26.5s-20.5 -11.5 -28.5 -13.5zM194.998 330.001h275c56.667 0 85 28.333 85 85v110c0 56.667 -28.333 85 -85 85h-275v-280zM391.998 780.001h-44.999c-8.66699 0 -17 5 -25 15l-110 145
c-3.33301 4.66699 -3.83301 8.33398 -1.5 11.001s6.16602 4 11.499 4h55c6 0 12.667 -5 20 -15l70 -95h5l70 95c6.66699 10 13.334 15 20.001 15h55c5.33301 0 9.16602 -1.33301 11.499 -4s1.83301 -6.33398 -1.5 -11.001l-110 -145c-8 -10 -16.333 -15 -25 -15z" />
    <glyph glyph-name="rcaron" unicode="&#x159;" horiz-adv-x="361" 
d="M85 15v480.001c0 10 5 15 15 15h55c10 0 15 -5 15 -15v-35h5c0.666992 1.33301 1.66699 3.5 3 6.5s5 7.83301 11 14.5s12.833 12.667 20.5 18s18.167 10.166 31.5 14.499s28 6.5 44 6.5h55c10 0 15 -5 15 -15v-50c0 -10 -5 -15 -15 -15h-65c-30 0 -55 -10 -75 -30
s-30 -45 -30 -75v-320c0 -10 -5 -15 -15 -15h-55c-10 0 -15 5 -15 15zM243 590.001h-44.999c-8.66699 0 -17 5 -25 15l-110 145c-3.33301 4.66699 -3.83301 8.33398 -1.5 11.001s6.16602 4 11.499 4h55c6.66699 0 13.334 -5 20.001 -15l70 -95h5l70 95
c7.33301 10 14 15 20 15h55c5.33301 0 9.16602 -1.33301 11.499 -4s1.83301 -6.33398 -1.5 -11.001l-110 -145c-8 -10 -16.333 -15 -25 -15z" />
    <glyph glyph-name="Sacute" unicode="&#x15a;" horiz-adv-x="710" 
d="M535 210c0 32 -18.333 53.667 -55 65l-300 95c-66.667 21.333 -100 64.666 -100 129.999v35c0 116.667 60 175 180 175h180c120 0 180 -58.333 180 -175v-40c0 -10 -5 -15 -15 -15h-65c-10 0 -15 5 -15 15v40c0 56.667 -28.333 85 -85 85h-180
c-56.667 0 -85 -28.333 -85 -85v-25c0 -32 18.333 -53.667 55 -65l300 -95c66.667 -21.333 100 -64.666 100 -129.999v-55c0 -116.667 -60 -175 -180 -175h-200c-120 0 -180 58.333 -180 175v40c0 10 5 15 15 15h65c10 0 15 -5 15 -15v-40c0 -56.667 28.333 -85 85 -85h200
c56.667 0 85 28.333 85 85v45zM482 930l-90 -134.999c-6 -10 -12.667 -15 -20 -15h-40c-10.667 0 -14 5 -10 15l60 135c5.33301 10 12 15 20 15h70c5.33301 0 9 -1.33301 11 -4s1.66699 -6.33398 -1 -11.001z" />
    <glyph glyph-name="sacute" unicode="&#x15b;" horiz-adv-x="540" 
d="M60 365v10c0 96.667 50 145 150 145h100c52 0 91.667 -13.333 119 -40s41 -65 41 -115v-10c0 -10 -5 -15 -15 -15h-55c-10 0 -15 5 -15 15v10c0 22.667 -6.83301 40.834 -20.5 54.501s-31.834 20.5 -54.501 20.5h-100c-20 0 -35.833 -5.83301 -47.5 -17.5
s-17.5 -27.5 -17.5 -47.5v-5c0 -20 11.667 -33.333 35 -40l220 -70c53.333 -16.667 80 -53.334 80 -110.001v-15c0 -96.667 -50 -145 -150 -145h-120c-52 0 -91.667 13.333 -119 40s-41 65 -41 115v10c0 10 5 15 15 15h55c10 0 15 -5 15 -15v-10
c0 -22.667 6.83301 -40.834 20.5 -54.501s31.834 -20.5 54.501 -20.5h120c20 0 35.833 5.83301 47.5 17.5s17.5 27.5 17.5 47.5v10c0 20 -11.667 33.333 -35 40l-220 70c-53.333 16.667 -80 53.334 -80 110.001zM391 740l-90.001 -134.999c-6 -10 -12.667 -15 -20 -15h-40
c-10.667 0 -14 5 -10 15l60 135c4.66699 10 11.334 15 20.001 15h70c5.33301 0 9 -1.33301 11 -4s1.66699 -6.33398 -1 -11.001z" />
    <glyph glyph-name="Scedilla" unicode="&#x15e;" horiz-adv-x="710" 
d="M295 -200h75c10 0 18.333 3.33301 25 10s10 15 10 25v10c0 10 -3.33301 18.333 -10 25s-15 10 -25 10h-65c-10 0 -15 5 -15 15v35c0 6 0.833008 11.5 2.5 16.5s3.5 8.5 5.5 10.5l2 3l20 30h-70c-120 0 -180 58.333 -180 175v40c0 10 5 15 15 15h65c10 0 15 -5 15 -15v-40
c0 -56.667 28.333 -85 85 -85h200c56.667 0 85 28.333 85 85v45c0 32 -18.333 53.667 -55 65l-300 95c-66.667 21.333 -100 64.666 -100 129.999v35c0 116.667 60 175 180 175h180c120 0 180 -58.333 180 -175v-40c0 -10 -5 -15 -15 -15h-65c-10 0 -15 5 -15 15v40
c0 56.667 -28.333 85 -85 85h-180c-56.667 0 -85 -28.333 -85 -85v-25c0 -32 18.333 -53.667 55 -65l300 -95c66.667 -21.333 100 -64.666 100 -129.999v-55c0 -116.667 -60 -175 -180 -175h-75l-30 -50h25c27.333 0 50 -9 68 -27s27 -40.667 27 -68v-10
c0 -27.333 -9 -50 -27 -68s-40.667 -27 -68 -27h-75c-10 0 -15 5 -15 15v30c0 10 5 15 15 15z" />
    <glyph glyph-name="scedilla" unicode="&#x15f;" horiz-adv-x="540" 
d="M215 -200h75c10 0 18.333 3.33301 25 10s10 15 10 25v10c0 10 -3.33301 18.333 -10 25s-15 10 -25 10h-65c-10 0 -15 5 -15 15v35c0 6 0.833008 11.5 2.5 16.5s3.5 8.5 5.5 10.5l2 3l20 30h-30c-52 0 -91.667 13.333 -119 40s-41 65 -41 115v10c0 10 5 15 15 15h55
c10 0 15 -5 15 -15v-10c0 -22.667 6.83301 -40.834 20.5 -54.501s31.834 -20.5 54.501 -20.5h120c20 0 35.833 5.83301 47.5 17.5s17.5 27.5 17.5 47.5v10c0 20 -11.667 33.333 -35 40l-220 70c-53.333 16.667 -80 53.334 -80 110.001v10c0 96.667 50 145 150 145h100
c52 0 91.667 -13.333 119 -40s41 -65 41 -115v-10c0 -10 -5 -15 -15 -15h-55c-10 0 -15 5 -15 15v10c0 22.667 -6.83301 40.834 -20.5 54.501s-31.834 20.5 -54.501 20.5h-100c-20 0 -35.833 -5.83301 -47.5 -17.5s-17.5 -27.5 -17.5 -47.5v-5c0 -20 11.667 -33.333 35 -40
l220 -70c53.333 -16.667 80 -53.334 80 -110.001v-15c0 -96.667 -50 -145 -150 -145h-35l-30 -50h25c27.333 0 50 -9 68 -27s27 -40.667 27 -68v-10c0 -27.333 -9 -50 -27 -68s-40.667 -27 -68 -27h-75c-10 0 -15 5 -15 15v30c0 10 5 15 15 15z" />
    <glyph glyph-name="Scaron" unicode="&#x160;" horiz-adv-x="710" 
d="M535 210c0 32 -18.333 53.667 -55 65l-300 95c-66.667 21.333 -100 64.666 -100 129.999v35c0 116.667 60 175 180 175h180c120 0 180 -58.333 180 -175v-40c0 -10 -5 -15 -15 -15h-65c-10 0 -15 5 -15 15v40c0 56.667 -28.333 85 -85 85h-180
c-56.667 0 -85 -28.333 -85 -85v-25c0 -32 18.333 -53.667 55 -65l300 -95c66.667 -21.333 100 -64.666 100 -129.999v-55c0 -116.667 -60 -175 -180 -175h-200c-120 0 -180 58.333 -180 175v40c0 10 5 15 15 15h65c10 0 15 -5 15 -15v-40c0 -56.667 28.333 -85 85 -85h200
c56.667 0 85 28.333 85 85v45zM377 780h-44.999c-8.66699 0 -17 5 -25 15l-110 145c-3.33301 4.66699 -3.83301 8.33398 -1.5 11.001s6.16602 4 11.499 4h55c6.66699 0 13.334 -5 20.001 -15l70 -95h5l70 95c7.33301 10 14 15 20 15h55
c5.33301 0 9.16602 -1.33301 11.499 -4s1.83301 -6.33398 -1.5 -11.001l-110 -145c-8 -10 -16.333 -15 -25 -15z" />
    <glyph glyph-name="scaron" unicode="&#x161;" horiz-adv-x="540" 
d="M60 365v10c0 96.667 50 145 150 145h100c52 0 91.667 -13.333 119 -40s41 -65 41 -115v-10c0 -10 -5 -15 -15 -15h-55c-10 0 -15 5 -15 15v10c0 22.667 -6.83301 40.834 -20.5 54.501s-31.834 20.5 -54.501 20.5h-100c-20 0 -35.833 -5.83301 -47.5 -17.5
s-17.5 -27.5 -17.5 -47.5v-5c0 -20 11.667 -33.333 35 -40l220 -70c53.333 -16.667 80 -53.334 80 -110.001v-15c0 -96.667 -50 -145 -150 -145h-120c-52 0 -91.667 13.333 -119 40s-41 65 -41 115v10c0 10 5 15 15 15h55c10 0 15 -5 15 -15v-10
c0 -22.667 6.83301 -40.834 20.5 -54.501s31.834 -20.5 54.501 -20.5h120c20 0 35.833 5.83301 47.5 17.5s17.5 27.5 17.5 47.5v10c0 20 -11.667 33.333 -35 40l-220 70c-53.333 16.667 -80 53.334 -80 110.001zM283 590h-44.998c-8.66699 0 -17 5 -25 15l-110 145
c-3.33301 4.66699 -3.83301 8.33398 -1.5 11.001s6.16602 4 11.499 4h55c6 0 12.667 -5 20 -15l70 -95h5l70 95c7.33301 10 14 15 20 15h55c5.33301 0 9.16602 -1.33301 11.499 -4s1.83301 -6.33398 -1.5 -11.001l-110 -145c-8 -10 -16.333 -15 -25 -15z" />
    <glyph glyph-name="Tcommaaccent" unicode="&#x162;" 
d="M340 610v-595c0 -10 -5 -15 -15 -15h-65c-10 0 -15 5 -15 15v595h-220c-10 0 -15 5 -15 15v60c0 10 5 15 15 15h535c10 0 15 -5 15 -15v-60c0 -10 -5 -15 -15 -15h-220zM340 -95v-55c0 -4.66699 -0.833008 -9.5 -2.5 -14.5s-3.5 -8.83301 -5.5 -11.5l-2 -4l-40 -80
c-4 -6.66699 -9 -10 -15 -10h-25c-6 0 -7.66699 3.33301 -5 10l45 90h-25c-10 0 -15 5 -15 15v60c0 10 5 15 15 15h60c10 0 15 -5 15 -15z" />
    <glyph glyph-name="tcommaaccent" unicode="&#x163;" horiz-adv-x="400" 
d="M45 510h75v105c0 10 5 15 15 15h55c10 0 15 -5 15 -15v-105h100c10 0 15 -5 15 -15v-50c0 -10 -5 -15 -15 -15h-100v-280c0 -20 6.66699 -36.667 20 -50s30 -20 50 -20h60c10 0 15 -5 15 -15v-50c0 -10 -5 -15 -15 -15h-60c-50 0 -88.333 13 -115 39s-40 63 -40 111v280
h-75c-10 0 -15 5 -15 15v50c0 10 5 15 15 15zM290 -105v-55c0 -4.66699 -0.833008 -9.5 -2.5 -14.5s-3.5 -8.83301 -5.5 -11.5l-2 -4l-40 -80c-4 -6.66699 -9 -10 -15 -10h-25c-6 0 -7.66699 3.33301 -5 10l45 90h-25c-10 0 -15 5 -15 15v60c0 10 5 15 15 15h60
c10 0 15 -5 15 -15z" />
    <glyph glyph-name="Tcaron" unicode="&#x164;" 
d="M340 610v-595c0 -10 -5 -15 -15 -15h-65c-10 0 -15 5 -15 15v595h-220c-10 0 -15 5 -15 15v60c0 10 5 15 15 15h535c10 0 15 -5 15 -15v-60c0 -10 -5 -15 -15 -15h-220zM313 780h-44.999c-8.66699 0 -17 5 -25 15l-110 145
c-3.33301 4.66699 -3.83301 8.33398 -1.5 11.001s6.16602 4 11.499 4h55c6.66699 0 13.334 -5 20.001 -15l70 -95h5l70 95c7.33301 10 14 15 20 15h55c5.33301 0 9.16602 -1.33301 11.499 -4s1.83301 -6.33398 -1.5 -11.001l-110 -145c-8 -10 -16.333 -15 -25 -15z" />
    <glyph glyph-name="tcaron" unicode="&#x165;" horiz-adv-x="400" 
d="M45 510h75v105c0 10 5 15 15 15h55c10 0 15 -5 15 -15v-105h100c10 0 15 -5 15 -15v-50c0 -10 -5 -15 -15 -15h-100v-280c0 -20 6.66699 -36.667 20 -50s30 -20 50 -20h60c10 0 15 -5 15 -15v-50c0 -10 -5 -15 -15 -15h-60c-50 0 -88.333 13 -115 39s-40 63 -40 111v280
h-75c-10 0 -15 5 -15 15v50c0 10 5 15 15 15zM440 685v-55c0 -4.66699 -0.833008 -9.5 -2.5 -14.5s-3.5 -8.83301 -5.5 -11.5l-2 -4l-40 -80c-4 -6.66699 -9 -10 -15 -10h-25c-6 0 -7.66699 3.33301 -5 10l45 90h-25c-10 0 -15 5 -15 15v60c0 10 5 15 15 15h60
c10 0 15 -5 15 -15z" />
    <glyph glyph-name="Umacron" unicode="&#x16a;" horiz-adv-x="780" 
d="M680 685v-520c0 -116.667 -60 -175 -180 -175h-220c-120 0 -180 58.333 -180 175v520c0 10 5 15 15 15h65c10 0 15 -5 15 -15v-520c0 -56.667 28.333 -85 85 -85h220c56.667 0 85 28.333 85 85v520c0 10 5 15 15 15h65c10 0 15 -5 15 -15zM530 875v-40
c0 -10 -5 -15 -15 -15h-250c-10 0 -15 5 -15 15v40c0 10 5 15 15 15h250c10 0 15 -5 15 -15z" />
    <glyph glyph-name="umacron" unicode="&#x16b;" horiz-adv-x="595" 
d="M315 -10h-75.001c-52 0 -91.667 13.333 -119 40s-41 65 -41 115v350c0 10 5 15 15 15h55c10 0 15 -5 15 -15v-350c0 -22.667 6.83301 -40.834 20.5 -54.501s31.834 -20.5 54.501 -20.5h85c30 0 55 10 75 30s30 45 30 75v320c0 10 5 15 15 15h55c10 0 15 -5 15 -15v-480
c0 -10 -5 -15 -15 -15h-55c-10 0 -15 5 -15 15v35h-5c-0.666992 -1.33301 -1.66699 -3.5 -3 -6.5s-5 -7.83301 -11 -14.5s-12.833 -12.667 -20.5 -18s-18.167 -10.166 -31.5 -14.499s-28 -6.5 -44 -6.5zM439.999 685v-40c0 -10 -5 -15 -15 -15h-250c-10 0 -15 5 -15 15v40
c0 10 5 15 15 15h250c10 0 15 -5 15 -15z" />
    <glyph glyph-name="Uring" unicode="&#x16e;" horiz-adv-x="780" 
d="M680 685v-520c0 -116.667 -60 -175 -180 -175h-220c-120 0 -180 58.333 -180 175v520c0 10 5 15 15 15h65c10 0 15 -5 15 -15v-520c0 -56.667 28.333 -85 85 -85h220c56.667 0 85 28.333 85 85v520c0 10 5 15 15 15h65c10 0 15 -5 15 -15zM340 890v-25
c0 -26.667 13.333 -40 40 -40h20c26.667 0 40 13.333 40 40v25c0 26.667 -13.333 40 -40 40h-20c-26.667 0 -40 -13.333 -40 -40zM280 865v25c0 28 9.16699 50.833 27.5 68.5s42.5 26.5 72.5 26.5h20c30 0 54.167 -8.83301 72.5 -26.5s27.5 -40.5 27.5 -68.5v-25
c0 -28 -9.16699 -50.833 -27.5 -68.5s-42.5 -26.5 -72.5 -26.5h-20c-30 0 -54.167 8.83301 -72.5 26.5s-27.5 40.5 -27.5 68.5z" />
    <glyph glyph-name="uring" unicode="&#x16f;" horiz-adv-x="595" 
d="M315 -10h-75.001c-52 0 -91.667 13.333 -119 40s-41 65 -41 115v350c0 10 5 15 15 15h55c10 0 15 -5 15 -15v-350c0 -22.667 6.83301 -40.834 20.5 -54.501s31.834 -20.5 54.501 -20.5h85c30 0 55 10 75 30s30 45 30 75v320c0 10 5 15 15 15h55c10 0 15 -5 15 -15v-480
c0 -10 -5 -15 -15 -15h-55c-10 0 -15 5 -15 15v35h-5c-0.666992 -1.33301 -1.66699 -3.5 -3 -6.5s-5 -7.83301 -11 -14.5s-12.833 -12.667 -20.5 -18s-18.167 -10.166 -31.5 -14.499s-28 -6.5 -44 -6.5zM249.999 700v-25c0 -26.667 13.333 -40 40 -40h20
c26.667 0 40 13.333 40 40v25c0 26.667 -13.333 40 -40 40h-20c-26.667 0 -40 -13.333 -40 -40zM189.999 675v25c0 28 9.16699 50.833 27.5 68.5s42.5 26.5 72.5 26.5h20c30 0 54.167 -8.83301 72.5 -26.5s27.5 -40.5 27.5 -68.5v-25c0 -28 -9.16699 -50.833 -27.5 -68.5
s-42.5 -26.5 -72.5 -26.5h-20c-30 0 -54.167 8.83301 -72.5 26.5s-27.5 40.5 -27.5 68.5z" />
    <glyph glyph-name="Uhungarumlaut" unicode="&#x170;" horiz-adv-x="780" 
d="M680 685v-520c0 -116.667 -60 -175 -180 -175h-220c-120 0 -180 58.333 -180 175v520c0 10 5 15 15 15h65c10 0 15 -5 15 -15v-520c0 -56.667 28.333 -85 85 -85h220c56.667 0 85 28.333 85 85v520c0 10 5 15 15 15h65c10 0 15 -5 15 -15zM432 935l-90 -140
c-6 -10 -12.667 -15 -20 -15h-30c-10.667 0 -14 5 -10 15l60 140c4 10 10.667 15 20 15h60c12.667 0 16 -5 10 -15zM587 935l-90 -140c-6 -10 -12.667 -15 -20 -15h-30c-10.667 0 -14 5 -10 15l60 140c4 10 10.667 15 20 15h60c12.667 0 16 -5 10 -15z" />
    <glyph glyph-name="uhungarumlaut" unicode="&#x171;" horiz-adv-x="595" 
d="M315 -10h-75.001c-52 0 -91.667 13.333 -119 40s-41 65 -41 115v350c0 10 5 15 15 15h55c10 0 15 -5 15 -15v-350c0 -22.667 6.83301 -40.834 20.5 -54.501s31.834 -20.5 54.501 -20.5h85c30 0 55 10 75 30s30 45 30 75v320c0 10 5 15 15 15h55c10 0 15 -5 15 -15v-480
c0 -10 -5 -15 -15 -15h-55c-10 0 -15 5 -15 15v35h-5c-0.666992 -1.33301 -1.66699 -3.5 -3 -6.5s-5 -7.83301 -11 -14.5s-12.833 -12.667 -20.5 -18s-18.167 -10.166 -31.5 -14.499s-28 -6.5 -44 -6.5zM336.999 735l-90 -140c-6 -10 -12.667 -15 -20 -15h-30
c-10.667 0 -14 5 -10 15l60 140c4 10 10.667 15 20 15h60c12.667 0 16 -5 10 -15zM491.999 735l-90 -140c-6 -10 -12.667 -15 -20 -15h-30c-10.667 0 -14 5 -10 15l60 140c4 10 10.667 15 20 15h60c12.667 0 16 -5 10 -15z" />
    <glyph glyph-name="Uogonek" unicode="&#x172;" horiz-adv-x="780" 
d="M680 685l-0.000976562 -520c0 -116.667 -60 -175 -180 -175h-50c-2.66699 -1.33301 -6 -3.16602 -10 -5.49902s-11.167 -7.5 -21.5 -15.5s-19.5 -16.167 -27.5 -24.5s-15.167 -18.333 -21.5 -30s-9.5 -23.167 -9.5 -34.5c0 -12.667 4.33301 -23.334 13 -32.001
s19.334 -13 32.001 -13h50c10 0 15 -5 15 -15v-35c0 -10 -5 -15 -15 -15h-50c-32 0 -57.5 9.16699 -76.5 27.5s-28.5 42.5 -28.5 72.5c0 20.667 7.5 41 22.5 61s30.167 35 45.5 45l22 14h-110c-120 0 -180 58.333 -180 175v520c0 10 5 15 15 15h65c10 0 15 -5 15 -15v-520
c0 -56.667 28.333 -85 85 -85h220c56.667 0 85 28.333 85 85v520c0 10 5 15 15 15h65c10 0 15 -5 15 -15z" />
    <glyph glyph-name="uogonek" unicode="&#x173;" horiz-adv-x="595" 
d="M315 -10l-75 0.00390625c-52 0 -91.667 13.333 -119 40s-41 65 -41 115v350c0 10 5 15 15 15h55c10 0 15 -5 15 -15v-350c0 -22.667 6.83301 -40.834 20.5 -54.501s31.834 -20.5 54.501 -20.5h85c30 0 55 10 75 30s30 45 30 75v320c0 10 5 15 15 15h55c10 0 15 -5 15 -15
v-480c0 -10 -5 -15 -15 -15l-11.5 -6c-5 -2.66699 -13.833 -8 -26.5 -16s-23.834 -16.5 -33.501 -25.5s-18.5 -20 -26.5 -33s-12 -26.167 -12 -39.5c0 -12.667 4.33301 -23.334 13 -32.001s19.334 -13 32.001 -13h50c10 0 15 -5 15 -15v-35c0 -10 -5 -15 -15 -15h-50
c-32 0 -57.5 9.16699 -76.5 27.5s-28.5 42.5 -28.5 72.5c0 16.667 3.66699 32.667 11 48s16 27.666 26 36.999s20.167 17.666 30.5 24.999s19.166 12.666 26.499 15.999l11 4c-3.33301 4 -5 9 -5 15v35h-5c-0.666992 -1.33301 -1.66699 -3.5 -3 -6.5s-5 -7.83301 -11 -14.5
s-12.833 -12.667 -20.5 -18s-18.167 -10.166 -31.5 -14.499s-28 -6.5 -44 -6.5z" />
    <glyph glyph-name="Ydieresis" unicode="&#x178;" horiz-adv-x="644" 
d="M122 685l200 -340l200 340c6 10 14.333 15 25 15h75c12 0 15.333 -5 10 -15l-265 -440v-231c0 -9.33301 -5 -14 -15 -14h-60c-10 0 -15 4.66699 -15 14v231l-265 440c-5.33301 10 -2 15 10 15h75c10.667 0 19 -5 25 -15zM260 810h-60c-10 0 -15 5 -15 15v60
c0 10 5 15 15 15h60c10 0 15 -5 15 -15v-60c0 -10 -5 -15 -15 -15zM440 810h-60c-10 0 -15 5 -15 15v60c0 10 5 15 15 15h60c10 0 15 -5 15 -15v-60c0 -10 -5 -15 -15 -15z" />
    <glyph glyph-name="Zacute" unicode="&#x179;" horiz-adv-x="630" 
d="M40 80c0 13.333 3.33301 23.333 10 30l420 495v5h-405c-10 0 -15 5 -15 15v60c0 10 5 15 15 15h510c10 0 15 -5 15 -15v-65c0 -13.333 -3.33301 -23.333 -10 -30l-420 -495v-5h415c10 0 15 -5 15 -15v-60c0 -10 -5 -15 -15 -15h-520c-10 0 -15 5 -15 15v65zM444 930
l-90 -134.999c-6 -10 -12.667 -15 -20 -15h-40c-10.667 0 -14 5 -10 15l60 135c5.33301 10 12 15 20 15h70c5.33301 0 9 -1.33301 11 -4s1.66699 -6.33398 -1 -11.001z" />
    <glyph glyph-name="zacute" unicode="&#x17a;" horiz-adv-x="470" 
d="M335 425v5h-280c-10 0 -15 5 -15 15v50c0 10 5 15 15 15h370c10 0 15 -5 15 -15v-55c0 -13.333 -3.33301 -23.333 -10 -30l-295 -325v-5h290c10 0 15 -5 15 -15v-50c0 -10 -5 -15 -15 -15h-380c-10 0 -15 5 -15 15v55c0 13.333 3.33301 23.333 10 30zM362 730
l-90 -134.999c-6 -10 -12.667 -15 -20 -15h-40c-10.667 0 -14 5 -10 15l60 135c5.33301 10 12 15 20 15h70c5.33301 0 9 -1.33301 11 -4s1.66699 -6.33398 -1 -11.001z" />
    <glyph glyph-name="Zdotaccent" unicode="&#x17b;" horiz-adv-x="630" 
d="M40 80c0 13.333 3.33301 23.333 10 30l420 495v5h-405c-10 0 -15 5 -15 15v60c0 10 5 15 15 15h510c10 0 15 -5 15 -15v-65c0 -13.333 -3.33301 -23.333 -10 -30l-420 -495v-5h415c10 0 15 -5 15 -15v-60c0 -10 -5 -15 -15 -15h-520c-10 0 -15 5 -15 15v65zM345 810h-60
c-10 0 -15 5 -15 15v60c0 10 5 15 15 15h60c10 0 15 -5 15 -15v-60c0 -10 -5 -15 -15 -15z" />
    <glyph glyph-name="zdotaccent" unicode="&#x17c;" horiz-adv-x="470" 
d="M335 425v5h-280c-10 0 -15 5 -15 15v50c0 10 5 15 15 15h370c10 0 15 -5 15 -15v-55c0 -13.333 -3.33301 -23.333 -10 -30l-295 -325v-5h290c10 0 15 -5 15 -15v-50c0 -10 -5 -15 -15 -15h-380c-10 0 -15 5 -15 15v55c0 13.333 3.33301 23.333 10 30zM275 620h-60
c-10 0 -15 5 -15 15v60c0 10 5 15 15 15h60c10 0 15 -5 15 -15v-60c0 -10 -5 -15 -15 -15z" />
    <glyph glyph-name="Zcaron" unicode="&#x17d;" horiz-adv-x="630" 
d="M40 80c0 13.333 3.33301 23.333 10 30l420 495v5h-405c-10 0 -15 5 -15 15v60c0 10 5 15 15 15h510c10 0 15 -5 15 -15v-65c0 -13.333 -3.33301 -23.333 -10 -30l-420 -495v-5h415c10 0 15 -5 15 -15v-60c0 -10 -5 -15 -15 -15h-520c-10 0 -15 5 -15 15v65zM343 780
h-44.999c-8.66699 0 -17 5 -25 15l-110 145c-3.33301 4.66699 -3.83301 8.33398 -1.5 11.001s6.16602 4 11.499 4h55c6.66699 0 13.334 -5 20.001 -15l70 -95h5l70 95c7.33301 10 14 15 20 15h55c5.33301 0 9.16602 -1.33301 11.499 -4s1.83301 -6.33398 -1.5 -11.001
l-110 -145c-8 -10 -16.333 -15 -25 -15z" />
    <glyph glyph-name="zcaron" unicode="&#x17e;" horiz-adv-x="470" 
d="M335 425v5h-280c-10 0 -15 5 -15 15v50c0 10 5 15 15 15h370c10 0 15 -5 15 -15v-55c0 -13.333 -3.33301 -23.333 -10 -30l-295 -325v-5h290c10 0 15 -5 15 -15v-50c0 -10 -5 -15 -15 -15h-380c-10 0 -15 5 -15 15v55c0 13.333 3.33301 23.333 10 30zM268 580h-44.999
c-8.66699 0 -17 5 -25 15l-110 145c-3.33301 4.66699 -3.83301 8.33398 -1.5 11.001s6.16602 4 11.499 4h55c6 0 12.667 -5 20 -15l70 -95h5l70 95c6.66699 10 13.334 15 20.001 15h55c5.33301 0 9.16602 -1.33301 11.499 -4s1.83301 -6.33398 -1.5 -11.001l-110 -145
c-8 -10 -16.333 -15 -25 -15z" />
    <glyph glyph-name="florin" unicode="&#x192;" horiz-adv-x="360" 
d="M215 400v-450c0 -48 -13.333 -85 -40 -111s-65 -39 -115 -39h-55c-10 0 -15 5 -15 15v50c0 10 5 15 15 15h55c20 0 36.667 6.66699 50 20s20 30 20 50v450h-75c-10 0 -15 5 -15 15v50c0 10 5 15 15 15h75v70c0 48 13.333 85 40 111s65 39 115 39h60c10 0 15 -5 15 -15
v-50c0 -10 -5 -15 -15 -15h-60c-20 0 -36.667 -6.66699 -50 -20s-20 -30 -20 -50v-70h100c10 0 15 -5 15 -15v-50c0 -10 -5 -15 -15 -15h-100z" />
    <glyph glyph-name="Scommaaccent" unicode="&#x218;" horiz-adv-x="710" 
d="M535 210c0 32 -18.333 53.667 -55 65l-300 95c-66.667 21.333 -100 64.666 -100 129.999v35c0 116.667 60 175 180 175h180c120 0 180 -58.333 180 -175v-40c0 -10 -5 -15 -15 -15h-65c-10 0 -15 5 -15 15v40c0 56.667 -28.333 85 -85 85h-180
c-56.667 0 -85 -28.333 -85 -85v-25c0 -32 18.333 -53.667 55 -65l300 -95c66.667 -21.333 100 -64.666 100 -129.999v-55c0 -116.667 -60 -175 -180 -175h-200c-120 0 -180 58.333 -180 175v40c0 10 5 15 15 15h65c10 0 15 -5 15 -15v-40c0 -56.667 28.333 -85 85 -85h200
c56.667 0 85 28.333 85 85v45zM410 -95v-55c0 -4.66699 -0.833008 -9.5 -2.5 -14.5s-3.5 -8.83301 -5.5 -11.5l-2 -4l-40 -80c-4 -6.66699 -9 -10 -15 -10h-25c-6 0 -7.66699 3.33301 -5 10l45 90h-25c-10 0 -15 5 -15 15v60c0 10 5 15 15 15h60c10 0 15 -5 15 -15z" />
    <glyph glyph-name="scommaaccent" unicode="&#x219;" horiz-adv-x="540" 
d="M60 365v10c0 96.667 50 145 150 145h100c52 0 91.667 -13.333 119 -40s41 -65 41 -115v-10c0 -10 -5 -15 -15 -15h-55c-10 0 -15 5 -15 15v10c0 22.667 -6.83301 40.834 -20.5 54.501s-31.834 20.5 -54.501 20.5h-100c-20 0 -35.833 -5.83301 -47.5 -17.5
s-17.5 -27.5 -17.5 -47.5v-5c0 -20 11.667 -33.333 35 -40l220 -70c53.333 -16.667 80 -53.334 80 -110.001v-15c0 -96.667 -50 -145 -150 -145h-120c-52 0 -91.667 13.333 -119 40s-41 65 -41 115v10c0 10 5 15 15 15h55c10 0 15 -5 15 -15v-10
c0 -22.667 6.83301 -40.834 20.5 -54.501s31.834 -20.5 54.501 -20.5h120c20 0 35.833 5.83301 47.5 17.5s17.5 27.5 17.5 47.5v10c0 20 -11.667 33.333 -35 40l-220 70c-53.333 16.667 -80 53.334 -80 110.001zM320 -95v-55c0 -4.66699 -0.833008 -9.5 -2.5 -14.5
s-3.5 -8.83301 -5.5 -11.5l-2 -4l-40 -80c-4 -6.66699 -9 -10 -15 -10h-25c-6 0 -7.66699 3.33301 -5 10l45 90h-25c-10 0 -15 5 -15 15v60c0 10 5 15 15 15h60c10 0 15 -5 15 -15z" />
    <glyph glyph-name="afii57929" unicode="&#x2bc;" horiz-adv-x="156" 
d="M126 685v-55c0 -4.66699 -0.833008 -9.5 -2.5 -14.5s-3.5 -8.83301 -5.5 -11.5l-2 -4l-40 -80c-4 -6.66699 -9 -10 -15 -10h-25c-6 0 -7.66699 3.33301 -5 10l45 90h-25c-10 0 -15 5 -15 15v60c0 10 5 15 15 15h60c10 0 15 -5 15 -15z" />
    <glyph glyph-name="circumflex" unicode="&#x2c6;" horiz-adv-x="381" 
d="M168 700h44.998c8.66699 0 17 -5 25 -15l110 -145c3.33301 -4.66699 3.83301 -8.33398 1.5 -11.001s-6.16602 -4 -11.499 -4h-55c-6 0 -12.667 5 -20 15l-70 95h-5l-70 -95c-7.33301 -10 -14 -15 -20 -15h-55c-5.33301 0 -9.16602 1.33301 -11.499 4
s-1.83301 6.33398 1.5 11.001l110 145c8 10 16.333 15 25 15z" />
    <glyph glyph-name="caron" unicode="&#x2c7;" horiz-adv-x="381" 
d="M213 525h-44.999c-8.66699 0 -17 5 -25 15l-110 145c-3.33301 4.66699 -3.83301 8.33398 -1.5 11.001s6.16602 4 11.499 4h55c6.66699 0 13.334 -5 20.001 -15l70 -95h5l70 95c7.33301 10 14 15 20 15h55c5.33301 0 9.16602 -1.33301 11.499 -4
s1.83301 -6.33398 -1.5 -11.001l-110 -145c-8 -10 -16.333 -15 -25 -15z" />
    <glyph glyph-name="breve" unicode="&#x2d8;" horiz-adv-x="345" 
d="M200 550h-55c-37.333 0 -65.833 9.5 -85.5 28.5s-29.5 46.167 -29.5 81.5v25c0 10 5 15 15 15h45c10 0 15 -5 15 -15v-25c0 -26.667 13.333 -40 40 -40h55c26.667 0 40 13.333 40 40v25c0 10 5 15 15 15h45c10 0 15 -5 15 -15v-25c0 -35.333 -9.83301 -62.5 -29.5 -81.5
s-48.167 -28.5 -85.5 -28.5z" />
    <glyph glyph-name="dotaccent" unicode="&#x2d9;" horiz-adv-x="150" 
d="M105 610h-60c-10 0 -15 5 -15 15v60c0 10 5 15 15 15h60c10 0 15 -5 15 -15v-60c0 -10 -5 -15 -15 -15z" />
    <glyph glyph-name="ring" unicode="&#x2da;" horiz-adv-x="280" 
d="M90 605v-25c0 -26.667 13.333 -40 40 -40h20c26.667 0 40 13.333 40 40v25c0 26.667 -13.333 40 -40 40h-20c-26.667 0 -40 -13.333 -40 -40zM30 580v25c0 28 9.16699 50.833 27.5 68.5s42.5 26.5 72.5 26.5h20c30 0 54.167 -8.83301 72.5 -26.5s27.5 -40.5 27.5 -68.5
v-25c0 -28 -9.16699 -50.833 -27.5 -68.5s-42.5 -26.5 -72.5 -26.5h-20c-30 0 -54.167 8.83301 -72.5 26.5s-27.5 40.5 -27.5 68.5z" />
    <glyph glyph-name="ogonek" unicode="&#x2db;" horiz-adv-x="230" 
d="M140 0l59.998 0.00390625l-11.5 -6c-5 -2.66699 -13.833 -8 -26.5 -16s-23.834 -16.5 -33.501 -25.5s-18.5 -20 -26.5 -33s-12 -26.167 -12 -39.5c0 -12.667 4.33301 -23.334 13 -32.001s19.334 -13 32.001 -13h50c10 0 15 -5 15 -15v-35c0 -10 -5 -15 -15 -15h-50
c-32 0 -57.5 9.16699 -76.5 27.5s-28.5 42.5 -28.5 72.5c0 16.667 3.83301 32.667 11.5 48s16.834 27.666 27.501 36.999s21.334 17.666 32.001 24.999s19.667 12.666 27 15.999z" />
    <glyph glyph-name="tilde" unicode="&#x2dc;" horiz-adv-x="330" 
d="M230 555c-16 0 -30.667 4.16699 -44 12.5s-23.5 17.5 -30.5 27.5s-14.167 19.167 -21.5 27.5s-13.666 12.5 -18.999 12.5c-4.66699 0 -9.16699 -2.16699 -13.5 -6.5s-6.5 -8.83301 -6.5 -13.5v-45c0 -10 -5 -15 -15 -15h-35c-10 0 -15 5 -15 15v60
c0 20 6.66699 36.667 20 50s30 20 50 20c16 0 30.667 -4.16699 44 -12.5s23.5 -17.5 30.5 -27.5s14.167 -19.167 21.5 -27.5s13.666 -12.5 18.999 -12.5c4.66699 0 9.16699 2 13.5 6s6.5 8.66699 6.5 14v45c0 10 5 15 15 15h35c10 0 15 -5 15 -15v-60
c0 -20 -6.66699 -36.667 -20 -50s-30 -20 -50 -20z" />
    <glyph glyph-name="hungarumlaut" unicode="&#x2dd;" horiz-adv-x="370" 
d="M182 685l-90 -140c-6 -10 -12.667 -15 -20 -15h-30c-10.667 0 -14 5 -10 15l60 140c4 10 10.667 15 20 15h60c12.667 0 16 -5 10 -15zM337 685l-90 -140c-6 -10 -12.667 -15 -20 -15h-30c-10.667 0 -14 5 -10 15l60 140c4 10 10.667 15 20 15h60c12.667 0 16 -5 10 -15z
" />
    <glyph glyph-name="afii10023" unicode="&#x401;" horiz-adv-x="680" 
d="M195 90h430c10 0 15 -5 15 -15v-60c0 -10 -4.66699 -15 -14 -15h-511c-10 0 -15 5 -15 15v669c0 10.667 5 16 15 16h500c10 0 15 -5 15 -15v-60c0 -10 -4.66699 -15 -14 -15h-421v-210h330c10 0 15 -5 15 -15v-60c0 -10 -4.66699 -15 -14 -15h-331v-220zM305 800h-60
c-10 0 -15 5 -15 15v60c0 10 5 15 15 15h60c10 0 15 -5 15 -15v-60c0 -10 -5 -15 -15 -15zM485 800h-60c-10 0 -15 5 -15 15v60c0 10 5 15 15 15h60c10 0 15 -5 15 -15v-60c0 -10 -5 -15 -15 -15z" />
    <glyph glyph-name="afii10051" unicode="&#x402;" horiz-adv-x="755" 
d="M590 130v125c0 56.667 -28.333 85 -85 85h-235v-325c0 -10 -5 -15 -15 -15h-65c-10 0 -15 5 -15 15v595h-160c-10 0 -15 5 -15 15v60c0 10 5 15 15 15h425c10 0 15 -5 15 -15v-60c0 -10 -5 -15 -15 -15h-170v-180h235c120 0 180 -58.333 180 -175v-125
c0 -100 -51.667 -150 -155 -150h-70c-10 0 -15 5 -15 15v60c0 10 5 15 15 15h70c40 0 60 20 60 60z" />
    <glyph glyph-name="afii10052" unicode="&#x403;" horiz-adv-x="580" 
d="M195 610v-595c0 -10 -5 -15 -15 -15h-65c-10 0 -15 5 -15 15v669c0 10.667 5 16 15 16h450c10 0 15 -5 15 -15v-60c0 -10 -5 -15 -15 -15h-370zM469 930l-90.001 -134.999c-6 -10 -12.667 -15 -20 -15h-40c-10.667 0 -14 5 -10 15l60 135c4.66699 10 11.334 15 20.001 15
h70c5.33301 0 9 -1.33301 11 -4s1.66699 -6.33398 -1 -11.001z" />
    <glyph glyph-name="afii10053" unicode="&#x404;" horiz-adv-x="750" 
d="M90 165v370c0 116.667 60 175 180 175h230c120 0 180 -58.333 180 -175v-40c0 -10 -5 -15 -15 -15h-65c-10 0 -15 5 -15 15v40c0 56.667 -28.333 85 -85 85h-230c-56.667 0 -85 -28.333 -85 -85v-135h240c10 0 15 -5 15 -15v-60c0 -10 -5 -15 -15 -15h-240v-145
c0 -56.667 28.333 -85 85 -85h230c56.667 0 85 28.333 85 85v40c0 10 5 15 15 15h65c10 0 15 -5 15 -15v-40c0 -116.667 -60 -175 -180 -175h-230c-120 0 -180 58.333 -180 175z" />
    <glyph glyph-name="afii10054" unicode="&#x405;" horiz-adv-x="710" 
d="M535 210c0 32 -18.333 53.667 -55 65l-300 95c-66.667 21.333 -100 64.666 -100 129.999v35c0 116.667 60 175 180 175h180c120 0 180 -58.333 180 -175v-40c0 -10 -5 -15 -15 -15h-65c-10 0 -15 5 -15 15v40c0 56.667 -28.333 85 -85 85h-180
c-56.667 0 -85 -28.333 -85 -85v-25c0 -32 18.333 -53.667 55 -65l300 -95c66.667 -21.333 100 -64.666 100 -129.999v-55c0 -116.667 -60 -175 -180 -175h-200c-120 0 -180 58.333 -180 175v40c0 10 5 15 15 15h65c10 0 15 -5 15 -15v-40c0 -56.667 28.333 -85 85 -85h200
c56.667 0 85 28.333 85 85v45z" />
    <glyph glyph-name="afii10055" unicode="&#x406;" horiz-adv-x="295" 
d="M100 15v670c0 10 5 15 15 15h65c10 0 15 -5 15 -15v-670c0 -10 -5 -15 -15 -15h-65c-10 0 -15 5 -15 15z" />
    <glyph glyph-name="afii10056" unicode="&#x407;" horiz-adv-x="290" 
d="M100 15v670c0 10 5 15 15 15h65c10 0 15 -5 15 -15v-670c0 -10 -5 -15 -15 -15h-65c-10 0 -15 5 -15 15zM85 790h-60c-10 0 -15 5 -15 15v60c0 10 5 15 15 15h60c10 0 15 -5 15 -15v-60c0 -10 -5 -15 -15 -15zM265 790h-60c-10 0 -15 5 -15 15v60c0 10 5 15 15 15h60
c10 0 15 -5 15 -15v-60c0 -10 -5 -15 -15 -15z" />
    <glyph glyph-name="afii10057" unicode="&#x408;" horiz-adv-x="660" 
d="M560 685v-520c0 -116.667 -60 -175 -180 -175h-160c-120 0 -180 58.333 -180 175v60c0 10 5 15 15 15h65c10 0 15 -5 15 -15v-60c0 -56.667 28.333 -85 85 -85h160c56.667 0 85 28.333 85 85v520c0 10 5 15 15 15h65c10 0 15 -5 15 -15z" />
    <glyph glyph-name="afii10058" unicode="&#x409;" horiz-adv-x="1115" 
d="M620 480h234.998c120 0 180 -58.333 180 -175v-130c0 -116.667 -60 -175 -180 -175h-315c-10 0 -15 5 -15 15v595h-210l-100 -455c-12.667 -58 -32.667 -100 -60 -126s-65.666 -39 -114.999 -39h-25c-10 0 -15 5 -15 15v60c0 10 5 15 15 15h25
c42.667 0 69.334 25 80.001 75l115 530c2 10 10.333 15 25 15h346c9.33301 0 14 -5 14 -15v-205zM854.998 390h-235v-300h235c56.667 0 85 28.333 85 85v130c0 56.667 -28.333 85 -85 85z" />
    <glyph glyph-name="afii10059" unicode="&#x40a;" horiz-adv-x="1125" 
d="M620 440h245c120 0 180 -58.333 180 -175v-90c0 -116.667 -60 -175 -180 -175h-325c-10 0 -15 5 -15 15v335h-330v-335c0 -10 -5 -15 -15 -15h-65c-10 0 -15 5 -15 15v670c0 10 5 15 15 15h65c10 0 15 -5 15 -15v-245h330v245c0 10 5 15 15 15h65c10 0 15 -5 15 -15v-245
zM865 350h-245v-260h245c56.667 0 85 28.333 85 85v90c0 56.667 -28.333 85 -85 85z" />
    <glyph glyph-name="afii10060" unicode="&#x40b;" horiz-adv-x="775" 
d="M270 610v-180h235c120 0 180 -58.333 180 -175v-240c0 -10 -5 -15 -15 -15h-65c-10 0 -15 5 -15 15v240c0 56.667 -28.333 85 -85 85h-235v-325c0 -10 -5 -15 -15 -15h-65c-10 0 -15 5 -15 15v595h-160c-10 0 -15 5 -15 15v60c0 10 5 15 15 15h425c10 0 15 -5 15 -15v-60
c0 -10 -5 -15 -15 -15h-170z" />
    <glyph glyph-name="afii10061" unicode="&#x40c;" horiz-adv-x="692" 
d="M195 320v-305c0 -10 -5 -15 -15 -15h-65c-10 0 -15 5 -15 15v670c0 10 5 15 15 15h65c10 0 15 -5 15 -15v-275h190l150 275c4.66699 10 13 15 25 15h70c12 0 15.333 -5 10 -15l-175 -315l195 -355c5.33301 -10 2 -15 -10 -15h-70c-12 0 -20.333 5 -25 15l-165 305h-195z
M485 930l-90.001 -134.999c-6 -10 -12.667 -15 -20 -15h-40c-10.667 0 -14 5 -10 15l60 135c4.66699 10 11.334 15 20.001 15h70c5.33301 0 9 -1.33301 11 -4s1.66699 -6.33398 -1 -11.001z" />
    <glyph glyph-name="afii10062" unicode="&#x40e;" horiz-adv-x="624" 
d="M272 160l-260 525c-5.33301 10 -2 15 10 15h70c12 0 20.333 -5 25 -15l200 -415h5l185 415c4 10 12.333 15 25 15h70c10.667 0 14 -5 10 -15l-240 -525c-26 -56.667 -54.833 -99.167 -86.5 -127.5s-69.5 -42.5 -113.5 -42.5h-30c-10 0 -15 5 -15 15v60c0 10 5 15 15 15
h30c24 0 43.5 6.16699 58.5 18.5s28.833 32.833 41.5 61.5zM295 870h60c15.333 0 27.5 4.66699 36.5 14s13.5 21.333 13.5 36v15c0 10 5 15 15 15h55c10 0 15 -5 15 -15v-25c0 -80 -41.667 -120 -125 -120h-80c-83.333 0 -125 40 -125 120v25c0 10 5 15 15 15h55
c10 0 15 -5 15 -15v-15c0 -14.667 4.5 -26.667 13.5 -36s21.167 -14 36.5 -14z" />
    <glyph glyph-name="afii10145" unicode="&#x40f;" horiz-adv-x="765" 
d="M335 0h-220c-10 0 -15 5 -15 15v670c0 10 5 15 15 15h65c10 0 15 -5 15 -15v-595h375v596c0 9.33301 5 14 15 14h65c10 0 15 -5 15 -15v-670c0 -10 -5 -15 -15 -15h-220v-115c0 -10 -5 -15 -15 -15h-65c-10 0 -15 5 -15 15v115z" />
    <glyph glyph-name="afii10017" unicode="&#x410;" horiz-adv-x="664" 
d="M212 270h240l-118 320h-4zM487 180h-309.998l-60 -165c-4 -10 -12.333 -15 -25 -15h-70c-10.667 0 -14 5 -10 15l260 670c5.33301 10 13.666 15 24.999 15h70c11.333 0 19.666 -5 24.999 -15l260 -670c4 -10 0.666992 -15 -10 -15h-70c-12.667 0 -21 5 -25 15z" />
    <glyph glyph-name="afii10018" unicode="&#x411;" horiz-adv-x="730" 
d="M480 350h-285v-260h285c56.667 0 85 28.333 85 85v90c0 56.667 -28.333 85 -85 85zM195 440h285c120 0 180 -58.333 180 -175v-90c0 -116.667 -60 -175 -180 -175h-365c-10 0 -15 5 -15 15v670c0 10 5 15 15 15h480c10 0 15 -5 15 -15v-60c0 -10 -4.66699 -15 -14 -15
h-401v-170z" />
    <glyph glyph-name="afii10019" unicode="&#x412;" horiz-adv-x="730" 
d="M525 505v20c0 56.667 -28.333 85 -85 85h-245v-190h245c56.667 0 85 28.333 85 85zM660 245v-70.002c0 -116.667 -60 -175 -180 -175h-365c-10 0 -15 5 -15 15v670c0 10 4.66699 15 14 15h326c120 0 180 -58.333 180 -175v-20c0 -29.333 -6.33301 -54 -19 -74
s-25 -32.667 -37 -38l-19 -8v-5c3.33301 -0.666992 7.5 -1.66699 12.5 -3s14.167 -5.16602 27.5 -11.499s25 -14 35 -23s19.167 -22.167 27.5 -39.5s12.5 -36.666 12.5 -57.999zM565 174.998v70c0 56.667 -28.333 85 -85 85h-285v-240h285c56.667 0 85 28.333 85 85z" />
    <glyph glyph-name="afii10020" unicode="&#x413;" horiz-adv-x="580" 
d="M195 610v-595c0 -10 -5 -15 -15 -15h-65c-10 0 -15 5 -15 15v669c0 10.667 5 16 15 16h450c10 0 15 -5 15 -15v-60c0 -10 -5 -15 -15 -15h-370z" />
    <glyph glyph-name="afii10021" unicode="&#x414;" horiz-adv-x="720" 
d="M280 610l-115 -520h355v520h-240zM220 700h380c10 0 15 -5 15 -15v-595h60c10 0 15 -5 15 -15v-190c0 -10 -5 -15 -15 -15h-65c-10 0 -15 5 -15 15v115h-500v-115c0 -10 -5 -15 -15 -15h-65c-10 0 -15 5 -15 15v190c0 10 5 15 15 15h55l130 595c2 10 8.66699 15 20 15z
" />
    <glyph glyph-name="afii10022" unicode="&#x415;" horiz-adv-x="680" 
d="M195 90h430c10 0 15 -5 15 -15v-60c0 -10 -4.66699 -15 -14 -15h-511c-10 0 -15 5 -15 15v669c0 10.667 5 16 15 16h500c10 0 15 -5 15 -15v-60c0 -10 -4.66699 -15 -14 -15h-421v-210h330c10 0 15 -5 15 -15v-60c0 -10 -4.66699 -15 -14 -15h-331v-220z" />
    <glyph glyph-name="afii10024" unicode="&#x416;" horiz-adv-x="989" 
d="M542 685v-275h140l150 275c5.33301 10 13.666 15 24.999 15h70c11.333 0 14.666 -5 9.99902 -15l-175 -315l195 -355c4.66699 -10 1.33398 -15 -9.99902 -15h-70c-11.333 0 -19.666 5 -24.999 15l-165 305h-145v-305c0 -10 -5 -15 -15 -15h-65c-10 0 -15 5 -15 15v305
h-145l-165 -305c-4.66699 -10 -13 -15 -25 -15h-70c-12 0 -15.333 5 -10 15l195 355l-175 315c-5.33301 10 -2 15 10 15h70c12 0 20.333 -5 25 -15l150 -275h140v275c0 10 5 15 15 15h65c10 0 15 -5 15 -15z" />
    <glyph glyph-name="afii10025" unicode="&#x417;" horiz-adv-x="700" 
d="M450 80c56.667 0 84.999 28.3311 84.999 84.998v65c0 56.667 -28.333 85 -85 85h-145c-10 0 -15 5.33301 -15 16v59c0 10 5 15 15 15h135c56.667 0 85 28.333 85 85v45c0 56.667 -28.333 85 -85 85h-190c-56.667 0 -85 -28.333 -85 -85v-40c0 -10 -5 -15 -15 -15h-65
c-10 0 -15 5 -15 15v40c0 116.667 60 175 180 175h190c120 0 180 -58.333 180 -175v-45c0 -29.333 -7.5 -54 -22.5 -74s-30.167 -32.667 -45.5 -38l-22 -8v-5c2.66699 -0.666992 6.33398 -1.66699 11.001 -3s12.667 -5.16602 24 -11.499s21.333 -14 30 -23
s16.667 -22.167 24 -39.5s11 -36.666 11 -57.999v-65c0 -116.667 -60 -175 -180 -175h-210c-120 0 -180 58.333 -180 175v40c0 10 5 15 15 15h65c10 0 15 -5 15 -15v-40c0 -56.667 28.333 -85 85 -85h210z" />
    <glyph glyph-name="afii10026" unicode="&#x418;" horiz-adv-x="780" 
d="M590 700h75c10 0 15 -5 15 -15v-670c0 -10 -5 -15 -15 -15h-65c-10 0 -15 5 -15 15v540h-5l-360 -540c-6 -10 -16 -15 -30 -15h-75c-10 0 -15 5 -15 15v670c0 10 5 15 15 15h65c10 0 15 -5 15 -15v-540h5l360 540c6 10 16 15 30 15z" />
    <glyph glyph-name="afii10027" unicode="&#x419;" horiz-adv-x="780" 
d="M360 870h60c14.667 0 26.667 4.66699 36 14s14 21.333 14 36v15c0 10 5 15 15 15h55c10 0 15 -5 15 -15v-25c0 -80 -41.667 -120 -125 -120h-80c-83.333 0 -125 40 -125 120v25c0 10 5 15 15 15h55c10 0 15 -5 15 -15v-15c0 -14.667 4.66699 -26.667 14 -36
s21.333 -14 36 -14zM590 700h75c10 0 15 -5 15 -15v-670c0 -10 -5 -15 -15 -15h-65c-10 0 -15 5 -15 15v540h-5l-360 -540c-6 -10 -16 -15 -30 -15h-75c-10 0 -15 5 -15 15v670c0 10 5 15 15 15h65c10 0 15 -5 15 -15v-540h5l360 540c6 10 16 15 30 15z" />
    <glyph glyph-name="afii10028" unicode="&#x41a;" horiz-adv-x="692" 
d="M195 320v-305c0 -10 -5 -15 -15 -15h-65c-10 0 -15 5 -15 15v670c0 10 5 15 15 15h65c10 0 15 -5 15 -15v-275h190l150 275c4.66699 10 13 15 25 15h70c12 0 15.333 -5 10 -15l-175 -315l195 -355c5.33301 -10 2 -15 -10 -15h-70c-12 0 -20.333 5 -25 15l-165 305h-195z
" />
    <glyph glyph-name="afii10029" unicode="&#x41b;" horiz-adv-x="750" 
d="M15 80h24.998c42.667 0 69.334 25 80.001 75l115 530c2 10 10.333 15 25 15h376c9.33301 0 14 -5 14 -15v-670c0 -10 -5 -15 -15 -15h-65c-10 0 -15 5 -15 15v595h-240l-100 -455c-12.667 -58 -32.667 -100 -60 -126s-65.666 -39 -114.999 -39h-25c-10 0 -15 5 -15 15v60
c0 10 5 15 15 15z" />
    <glyph glyph-name="afii10030" unicode="&#x41c;" horiz-adv-x="970" 
d="M500 0h-30c-14.667 0 -24.667 5 -30 15l-240 505h-5v-505c0 -10 -5 -15 -15 -15h-65c-10 0 -15 5 -15 15v670c0 10 5 15 15 15h75c14.667 0 24.667 -5 30 -15l263 -555h4l263 555c5.33301 10 15.333 15 30 15h75c10 0 15 -5 15 -15v-670c0 -10 -5 -15 -15 -15h-65
c-10 0 -15 5 -15 15v505h-5l-240 -505c-5.33301 -10 -15.333 -15 -30 -15z" />
    <glyph glyph-name="afii10031" unicode="&#x41d;" horiz-adv-x="760" 
d="M565 400v285c0 10 5 15 15 15h65c10 0 15 -5 15 -15v-670c0 -10 -5 -15 -15 -15h-65c-10 0 -15 4.66699 -15 14v296h-370v-295c0 -10 -5 -15 -15 -15h-65c-10 0 -15 5 -15 15v670c0 10 5 15 15 15h65c10 0 15 -5 15 -15v-285h370z" />
    <glyph glyph-name="afii10032" unicode="&#x41e;" horiz-adv-x="790" 
d="M90 165v370c0 116.667 60 175 180 175h250c120 0 180 -58.333 180 -175v-370c0 -116.667 -60 -175 -180 -175h-250c-120 0 -180 58.333 -180 175zM605 165v370c0 56.667 -28.333 85 -85 85h-250c-56.667 0 -85 -28.333 -85 -85v-370c0 -56.667 28.333 -85 85 -85h250
c56.667 0 85 28.333 85 85z" />
    <glyph glyph-name="afii10033" unicode="&#x41f;" horiz-adv-x="760" 
d="M115 700h530c10 0 15 -5 15 -15v-670c0 -10 -5 -15 -15 -15h-65c-10 0 -15 5 -15 15v595h-370v-595c0 -10 -5 -15 -15 -15h-65c-10 0 -15 5 -15 15v670c0 10 5 15 15 15z" />
    <glyph glyph-name="afii10034" unicode="&#x420;" horiz-adv-x="730" 
d="M195 310h285c56.667 0 85 28.333 85 85v130c0 56.667 -28.333 85 -85 85h-285v-300zM480 220h-285v-205c0 -10 -5 -15 -15 -15h-65c-10 0 -15 5 -15 15v670c0 10 5 15 15 15h365c120 0 180 -58.333 180 -175v-130c0 -116.667 -60 -175 -180 -175z" />
    <glyph glyph-name="afii10035" unicode="&#x421;" horiz-adv-x="750" 
d="M90 165v370c0 116.667 60 175 180 175h230c120 0 180 -58.333 180 -175v-40c0 -10 -5 -15 -15 -15h-65c-10 0 -15 5 -15 15v40c0 56.667 -28.333 85 -85 85h-230c-56.667 0 -85 -28.333 -85 -85v-370c0 -56.667 28.333 -85 85 -85h230c56.667 0 85 28.333 85 85v40
c0 10 5 15 15 15h65c10 0 15 -5 15 -15v-40c0 -116.667 -60 -175 -180 -175h-230c-120 0 -180 58.333 -180 175z" />
    <glyph glyph-name="afii10036" unicode="&#x422;" 
d="M340 610v-595c0 -10 -5 -15 -15 -15h-65c-10 0 -15 5 -15 15v595h-220c-10 0 -15 5 -15 15v60c0 10 5 15 15 15h535c10 0 15 -5 15 -15v-60c0 -10 -5 -15 -15 -15h-220z" />
    <glyph glyph-name="afii10037" unicode="&#x423;" horiz-adv-x="624" 
d="M272 160l-260 525c-5.33301 10 -2 15 10 15h70c12 0 20.333 -5 25 -15l200 -415h5l185 415c4 10 12.333 15 25 15h70c10.667 0 14 -5 10 -15l-240 -525c-26 -56.667 -54.833 -99.167 -86.5 -127.5s-69.5 -42.5 -113.5 -42.5h-30c-10 0 -15 5 -15 15v60c0 10 5 15 15 15
h30c24 0 43.5 6.16699 58.5 18.5s28.833 32.833 41.5 61.5z" />
    <glyph glyph-name="afii10038" unicode="&#x424;" horiz-adv-x="935" 
d="M175 485v-260c0 -56.667 28.333 -85 85 -85h160v430h-160c-56.667 0 -85 -28.333 -85 -85zM435 760h65c10 0 15 -5 15 -15v-85h160c120 0 180 -58.333 180 -175v-260c0 -116.667 -60 -175 -180 -175h-160v-85c0 -10 -5 -15 -15 -15h-65c-10 0 -15 5 -15 15v85h-160
c-120 0 -180 58.333 -180 175v260c0 116.667 60 175 180 175h160v85c0 10 5 15 15 15zM760 225v260c0 56.667 -28.333 85 -85 85h-160v-430h160c56.667 0 85 28.333 85 85z" />
    <glyph glyph-name="afii10039" unicode="&#x425;" horiz-adv-x="646" 
d="M323 445l160.002 240c7.33301 10 15.666 15 24.999 15h80c5.33301 0 9 -1.5 11 -4.5s1.66699 -6.5 -1 -10.5l-215 -315l240 -355c2.66699 -4.66699 3 -8.33398 1 -11.001s-5.66699 -4 -11 -4h-80c-10 0 -18.333 5 -25 15l-185 280l-185 -280
c-6.66699 -10 -15 -15 -25 -15h-80c-5.33301 0 -9 1.33301 -11 4s-1.66699 6.33398 1 11.001l240 355l-215 315c-2.66699 4 -3 7.5 -1 10.5s5.66699 4.5 11 4.5h80c9.33301 0 17.666 -5 24.999 -15z" />
    <glyph glyph-name="afii10040" unicode="&#x426;" horiz-adv-x="754" 
d="M580 0l-465 0.000976562c-10 0 -15 5 -15 15v670c0 10 5 15 15 15h65c10 0 15 -5 15 -15v-595h350v595c0 10 5 15 15 15h65c10 0 15 -5 15 -15v-610l100 -110c6.66699 -6.66699 6.66699 -13.334 0 -20.001l-50 -45c-7.33301 -6 -14 -6 -20 0z" />
    <glyph glyph-name="afii10041" unicode="&#x427;" horiz-adv-x="730" 
d="M535 330v355c0 10 5 15 15 15h65c10 0 15 -5 15 -15v-670c0 -10 -5 -15 -15 -15h-65c-10 0 -15 5 -15 15v225h-265c-120 0 -180 58.333 -180 175v270c0 10 5 15 15 15h65c10 0 15 -5 15 -15v-270c0 -56.667 28.333 -85 85 -85h265z" />
    <glyph glyph-name="afii10042" unicode="&#x428;" horiz-adv-x="1015" 
d="M900 0h-785c-10 0 -15 5 -15 15v670c0 10 5 15 15 15h65c10 0 15 -5 15 -15v-595h265v595c0 10 5 15 15 15h65c10 0 15 -5 15 -15v-595h265v595c0 10 5 15 15 15h65c10 0 15 -5 15 -15v-670c0 -10 -5 -15 -15 -15z" />
    <glyph glyph-name="afii10043" unicode="&#x429;" horiz-adv-x="1029" 
d="M1015 -55l-50 -44.999c-7.33301 -6 -14 -6 -20 0l-90 100h-740c-10 0 -15 5 -15 15v670c0 10 5 15 15 15h65c10 0 15 -5 15 -15v-595h265v595c0 10 5 15 15 15h65c10 0 15 -5 15 -15v-595h265v595c0 10 5 15 15 15h65c10 0 15 -5 15 -15v-610l100 -110
c6.66699 -6.66699 6.66699 -13.334 0 -20.001z" />
    <glyph glyph-name="afii10044" unicode="&#x42a;" horiz-adv-x="750" 
d="M255 480h235c120 0 180 -58.333 180 -175v-130c0 -116.667 -60 -175 -180 -175h-315c-10 0 -15 5 -15 15v595h-145c-10 0 -15 5 -15 15v60c0 10 5 15 15 15h225c10 0 15 -5 15 -15v-205zM490 390h-235v-300h235c56.667 0 85 28.333 85 85v130c0 56.667 -28.333 85 -85 85
z" />
    <glyph glyph-name="afii10045" unicode="&#x42b;" horiz-adv-x="915" 
d="M430 390h-235v-300h235c56.667 0 85 28.333 85 85v130c0 56.667 -28.333 85 -85 85zM195 480h235c120 0 180 -58.333 180 -175v-130c0 -116.667 -60 -175 -180 -175h-315c-10 0 -15 5 -15 15v670c0 10 5 15 15 15h65c10 0 15 -5 15 -15v-205zM815 685v-670
c0 -10 -5 -15 -15 -15h-65c-10 0 -15 5 -15 15v670c0 10 5 15 15 15h65c10 0 15 -5 15 -15z" />
    <glyph glyph-name="afii10046" unicode="&#x42c;" horiz-adv-x="730" 
d="M470 390h-275v-300h275c56.667 0 85 28.333 85 85v130c0 56.667 -28.333 85 -85 85zM195 480h275c120 0 180 -58.333 180 -175v-130c0 -116.667 -60 -175 -180 -175h-355c-10 0 -15 5 -15 15v670c0 10 5 15 15 15h65c10 0 15 -5 15 -15v-205z" />
    <glyph glyph-name="afii10047" unicode="&#x42d;" horiz-adv-x="750" 
d="M660 535v-370c0 -116.667 -60 -175 -180 -175h-230c-120 0 -180 58.333 -180 175v40c0 10 5 15 15 15h65c10 0 15 -5 15 -15v-40c0 -56.667 28.333 -85 85 -85h230c56.667 0 85 28.333 85 85v145h-240c-10 0 -15 5 -15 15v60c0 10 5 15 15 15h240v135
c0 56.667 -28.333 85 -85 85h-230c-56.667 0 -85 -28.333 -85 -85v-40c0 -10 -5 -15 -15 -15h-65c-10 0 -15 5 -15 15v40c0 116.667 60 175 180 175h230c120 0 180 -58.333 180 -175z" />
    <glyph glyph-name="afii10048" unicode="&#x42e;" horiz-adv-x="1005" 
d="M915 535v-370c0 -116.667 -60 -175 -180 -175h-200c-120 0 -180 58.333 -180 175v135h-160v-285c0 -10 -5 -15 -15 -15h-65c-10 0 -15 5 -15 15v670c0 10 5 15 15 15h65c10 0 15 -5 15 -15v-295h160v145c0 116.667 60 175 180 175h200c120 0 180 -58.333 180 -175z
M450 535v-370c0 -56.667 28.333 -85 85 -85h200c56.667 0 85 28.333 85 85v370c0 56.667 -28.333 85 -85 85h-200c-56.667 0 -85 -28.333 -85 -85z" />
    <glyph glyph-name="afii10049" unicode="&#x42f;" horiz-adv-x="737" 
d="M72 15l130 234.999l-12.5 2.5c-5 1 -14.167 5.16699 -27.5 12.5s-25 16.333 -35 27s-19.167 26.834 -27.5 48.501s-12.5 46.5 -12.5 74.5v110c0 116.667 60 175 180 175h355c10 0 15 -5 15 -15v-670c0 -10 -5 -15 -15 -15h-65c-10 0 -15 5 -15 15v225h-245l-120 -225
c-4.66699 -10 -13 -15 -25 -15h-70c-12 0 -15.333 5 -10 15zM267 329.999h275v280h-275c-56.667 0 -85 -28.333 -85 -85v-110c0 -56.667 28.333 -85 85 -85z" />
    <glyph glyph-name="afii10065" unicode="&#x430;" horiz-adv-x="560" 
d="M60 135l0.00195312 19.999c0 96.667 50 145 150 145h185v65c0 22.667 -6.83301 40.834 -20.5 54.501s-31.834 20.5 -54.501 20.5h-70c-22.667 0 -40.834 -6.83301 -54.501 -20.5s-20.5 -31.834 -20.5 -54.501c0 -10 -5 -15 -15 -15h-55c-10 0 -15 5 -15 15
c0 50 13.667 88.333 41 115s67 40 119 40h70c52 0 91.667 -13.333 119 -40s41 -65 41 -115v-350c0 -10 -5 -15 -15 -15h-55c-10 0 -15 5 -15 15v35h-5c-0.666992 -1.33301 -1.66699 -3.5 -3 -6.5s-5 -7.83301 -11 -14.5s-12.833 -12.667 -20.5 -18
s-18.167 -10.166 -31.5 -14.499s-28 -6.5 -44 -6.5h-70c-100 0 -150 48.333 -150 145zM145.002 154.999v-20c0 -20 5.83301 -35.833 17.5 -47.5s27.5 -17.5 47.5 -17.5h80c30 0 55 10 75 30s30 45 30 75v45h-185c-20 0 -35.833 -5.83301 -47.5 -17.5
s-17.5 -27.5 -17.5 -47.5z" />
    <glyph glyph-name="afii10066" unicode="&#x431;" horiz-adv-x="560" 
d="M155 350l-0.000976562 -205.001c0 -22.667 6.83301 -40.834 20.5 -54.501s31.834 -20.5 54.501 -20.5h110c22.667 0 40.834 6.83301 54.501 20.5s20.5 31.834 20.5 54.501v130c0 22.667 -6.83301 40.834 -20.5 54.501s-31.834 20.5 -54.501 20.5h-185zM69.999 144.999
l0.000976562 325c0 100.667 53.333 155.667 160 165l120 10c30 3.33301 45 18.333 45 45v5c0 10 5 15 15 15h55c10 0 15 -5 15 -15v-5c0 -42 -10.333 -73.333 -31 -94s-53.667 -32.667 -99 -36l-120 -10c-22.667 -2 -40.834 -10.167 -54.501 -24.5
s-20.5 -32.833 -20.5 -55.5v-40h185c52 0 91.667 -13.333 119 -40s41 -65 41 -115v-130c0 -50 -13.667 -88.333 -41 -115s-67 -40 -119 -40h-110c-52 0 -91.667 13.333 -119 40s-41 65 -41 115z" />
    <glyph glyph-name="afii10067" unicode="&#x432;" horiz-adv-x="555" 
d="M165 80h190c20 0 35.833 5.83301 47.5 17.5s17.5 27.5 17.5 47.5v10c0 20 -5.83301 35.833 -17.5 47.5s-27.5 17.5 -47.5 17.5h-190v-140zM165 300h160c20 0 35.833 5.83301 47.5 17.5s17.5 27.5 17.5 47.5s-5.83301 35.833 -17.5 47.5s-27.5 17.5 -47.5 17.5h-160v-130z
M355 0h-260c-10 0 -15 5 -15 15v480c0 10 5 15 15 15h230c100 0 150 -48.333 150 -145c0 -24 -5.5 -43.833 -16.5 -59.5s-21.833 -25.5 -32.5 -29.5l-16 -6v-5l10.5 -2.5c4.33301 -1 11.833 -4 22.5 -9s20.167 -11.167 28.5 -18.5s16 -18 23 -32s10.5 -30 10.5 -48v-10
c0 -96.667 -50 -145 -150 -145z" />
    <glyph glyph-name="afii10068" unicode="&#x433;" horiz-adv-x="440" 
d="M150 0h-55c-10 0 -15 5 -15 15v480c0 10 5 15 15 15h330c10 0 15 -5 15 -15v-50c0 -10 -5 -15 -15 -15h-260v-415c0 -10 -5 -15 -15 -15z" />
    <glyph glyph-name="afii10069" unicode="&#x434;" horiz-adv-x="560" 
d="M380 80v350h-165l-70 -350h235zM465 495v-415h50c10 0 15 -5 15 -15v-160c0 -10 -5 -15 -15 -15h-55c-10 0 -15 5 -15 15v95h-360v-95c0 -10 -5 -15 -15 -15h-55c-10 0 -15 5 -15 15v160c0 10 5 15 15 15h45l85 415c2 10 10.333 15 25 15h280c10 0 15 -5 15 -15z" />
    <glyph glyph-name="afii10070" unicode="&#x435;" horiz-adv-x="580" 
d="M155 300h270.002v65c0 22.667 -6.83301 40.834 -20.5 54.501s-31.834 20.5 -54.501 20.5h-120c-22.667 0 -40.834 -6.83301 -54.501 -20.5s-20.5 -31.834 -20.5 -54.501v-65zM495.002 220h-340.002v-75c0 -22.667 6.83301 -40.834 20.5 -54.501
s31.834 -20.5 54.501 -20.5h120c22.667 0 40.834 6.83301 54.501 20.5s20.5 31.834 20.5 54.501v5c0 10 5 15 15 15h55c10 0 15 -5 15 -15v-5c0 -50 -13.667 -88.333 -41 -115s-67 -40 -119 -40h-120c-52 0 -91.667 13.333 -119 40s-41 65 -41 115v220
c0 50 13.667 88.333 41 115s67 40 119 40h120c52 0 91.667 -13.333 119 -40s41 -65 41 -115v-130c0 -10 -5 -15 -15 -15z" />
    <glyph glyph-name="afii10072" unicode="&#x436;" horiz-adv-x="739" 
d="M622 15l-115 215h-95v-215c0 -10 -5 -15 -15 -15h-55c-10 0 -15 5 -15 15v215h-95l-115 -215c-4.66699 -10 -13 -15 -25 -15h-60c-12 0 -15.333 5 -10 15l140 255l-125 225c-4.66699 10 -1.33398 15 9.99902 15h60c11.333 0 19.666 -5 24.999 -15l100 -185h95v185
c0 10 5 15 15 15h55c10 0 15 -5 15 -15v-185h95l100 185c4.66699 10 13 15 25 15h60c12 0 15.333 -5 10 -15l-125 -225l140 -255c4.66699 -10 1.33398 -15 -9.99902 -15h-60c-11.333 0 -19.666 5 -24.999 15z" />
    <glyph glyph-name="afii10073" unicode="&#x437;" horiz-adv-x="550" 
d="M340 -10l-130.001 0.00195312c-52 0 -91.667 13.333 -119 40s-41 65 -41 115v25c0 10 5 15 15 15h55c10 0 15 -5 15 -15v-25c0 -22.667 6.83301 -40.834 20.5 -54.501s31.834 -20.5 54.501 -20.5h130c20 0 35.833 5.83301 47.5 17.5s17.5 27.5 17.5 47.5v20
c0 20 -5.83301 35.833 -17.5 47.5s-27.5 17.5 -47.5 17.5h-85c-10 0 -15 5 -15 15v50c0 10 5 15 15 15h75c20 0 35.833 5.83301 47.5 17.5s17.5 27.5 17.5 47.5v10c0 20 -5.83301 35.833 -17.5 47.5s-27.5 17.5 -47.5 17.5h-110c-22.667 0 -40.834 -6.83301 -54.501 -20.5
s-20.5 -31.834 -20.5 -54.501v-25c0 -10 -5 -15 -15 -15h-55c-10 0 -15 5 -15 15v25c0 50 13.667 88.333 41 115s67 40 119 40h110c100 0 150 -48.333 150 -145v-10c0 -24 -6.33301 -43.833 -19 -59.5s-25 -25.5 -37 -29.5l-19 -6v-5c2 -0.666992 5 -1.5 9 -2.5
s10.833 -4 20.5 -9s18.334 -11.167 26.001 -18.5s14.5 -18 20.5 -32s9 -30 9 -48v-20c0 -96.667 -50 -145 -150 -145z" />
    <glyph glyph-name="afii10074" unicode="&#x438;" horiz-adv-x="595" 
d="M440 510h60c10 0 15 -5 15 -15v-480c0 -10 -5 -15 -15 -15h-55c-10 0 -15 5 -15 15v365h-5l-240 -365c-6 -10 -16 -15 -30 -15h-60c-10 0 -15 5 -15 15v480c0 10 5 15 15 15h55c10 0 15 -5 15 -15v-365h5l240 365c6 10 16 15 30 15z" />
    <glyph glyph-name="afii10075" unicode="&#x439;" horiz-adv-x="595" 
d="M325 590h-55c-37.333 0 -65.833 9.5 -85.5 28.5s-29.5 46.167 -29.5 81.5v25c0 10 5 15 15 15h45c10 0 15 -5 15 -15v-25c0 -26.667 13.333 -40 40 -40h55c26.667 0 40 13.333 40 40v25c0 10 5 15 15 15h45c10 0 15 -5 15 -15v-25c0 -35.333 -9.83301 -62.5 -29.5 -81.5
s-48.167 -28.5 -85.5 -28.5zM440 510h60c10 0 15 -5 15 -15v-480c0 -10 -5 -15 -15 -15h-55c-10 0 -15 5 -15 15v365h-5l-240 -365c-6 -10 -16 -15 -30 -15h-60c-10 0 -15 5 -15 15v480c0 10 5 15 15 15h55c10 0 15 -5 15 -15v-365h5l240 365c6 10 16 15 30 15z" />
    <glyph glyph-name="afii10076" unicode="&#x43a;" horiz-adv-x="522" 
d="M405 15l-114.998 215h-125v-215c0 -10 -5 -15 -15 -15h-55c-10 0 -15 5 -15 15v480c0 10 5 15 15 15h55c10 0 15 -5 15 -15v-185h125l100 185c5.33301 10 13.666 15 24.999 15h60c11.333 0 14.666 -5 9.99902 -15l-125 -225l140 -255c5.33301 -10 2 -15 -10 -15h-60
c-12 0 -20.333 5 -25 15z" />
    <glyph glyph-name="afii10077" unicode="&#x43b;" horiz-adv-x="575" 
d="M245 430l-59.999 -295c-10 -50.667 -27.167 -87.5 -51.5 -110.5s-58.833 -34.5 -103.5 -34.5h-15c-10 0 -15 5 -15 15v50c0 10 5 15 15 15h15c17.333 0 32.166 5.66699 44.499 17s20.833 27.333 25.5 48l75 360c2 10 10.333 15 25 15h280c10 0 15 -5 15 -15v-480
c0 -10 -5 -15 -15 -15h-55c-10 0 -15 5 -15 15v415h-165z" />
    <glyph glyph-name="afii10078" unicode="&#x43c;" horiz-adv-x="735" 
d="M365 110h5l180 385c5.33301 10 15.333 15 30 15h60c10 0 15 -5 15 -15v-480c0 -10 -5 -15 -15 -15h-55c-10 0 -15 5 -15 15v330h-5l-155 -330c-5.33301 -10 -15.333 -15 -30 -15h-25c-15.333 0 -25.333 5 -30 15l-155 330h-5v-330c0 -10 -5 -15 -15 -15h-55
c-10 0 -15 5 -15 15v480c0 10 5 15 15 15h60c15.333 0 25.333 -5 30 -15z" />
    <glyph glyph-name="afii10079" unicode="&#x43d;" 
d="M420 220h-255v-205c0 -10 -5 -15 -15 -15h-55c-10 0 -15 5 -15 15v480c0 10 5 15 15 15h55c10 0 15 -5 15 -15v-200h255v200c0 10 5 15 15 15h55c10 0 15 -5 15 -15v-480c0 -10 -5 -15 -15 -15h-55c-10 0 -15 5 -15 15v205z" />
    <glyph glyph-name="afii10080" unicode="&#x43e;" 
d="M430 145v220c0 22.667 -6.83301 40.834 -20.5 54.501s-31.834 20.5 -54.501 20.5h-125c-22.667 0 -40.834 -6.83301 -54.501 -20.5s-20.5 -31.834 -20.5 -54.501v-220c0 -22.667 6.83301 -40.834 20.5 -54.501s31.834 -20.5 54.501 -20.5h125
c22.667 0 40.834 6.83301 54.501 20.5s20.5 31.834 20.5 54.501zM515 365v-220c0 -50 -13.667 -88.333 -41 -115s-67 -40 -119 -40h-125c-52 0 -91.667 13.333 -119 40s-41 65 -41 115v220c0 50 13.667 88.333 41 115s67 40 119 40h125c52 0 91.667 -13.333 119 -40
s41 -65 41 -115z" />
    <glyph glyph-name="afii10081" unicode="&#x43f;" 
d="M490 0h-55c-10 0 -15 5 -15 15v415h-255v-415c0 -10 -5 -15 -15 -15h-55c-10 0 -15 5 -15 15v480c0 10 5 15 15 15h395c10 0 15 -5 15 -15v-480c0 -10 -5 -15 -15 -15z" />
    <glyph glyph-name="afii10082" unicode="&#x440;" 
d="M165 80l190 -0.00195312c22.667 0 40.834 6.83301 54.501 20.5s20.5 31.834 20.5 54.501v210c0 22.667 -6.83301 40.834 -20.5 54.501s-31.834 20.5 -54.501 20.5h-85c-30 0 -55 -10 -75 -30s-30 -45 -30 -75v-255zM355 -0.00195312l-190 0.000976562v-175
c0 -10 -5 -15 -15 -15h-55c-10 0 -15 5 -15 15v670c0 10 5 15 15 15h55c10 0 15 -5 15 -15v-35h5c0.666992 1.33301 1.66699 3.5 3 6.5s5 7.83301 11 14.5s12.833 12.667 20.5 18s18.167 10.166 31.5 14.499s28 6.5 44 6.5h75c52 0 91.667 -13.333 119 -40s41 -65 41 -115
v-210c0 -50 -13.667 -88.333 -41 -115s-67 -40 -119 -40z" />
    <glyph glyph-name="afii10083" unicode="&#x441;" horiz-adv-x="565" 
d="M155 365v-220c0 -22.667 6.83301 -40.834 20.5 -54.501s31.834 -20.5 54.501 -20.5h115c22.667 0 40.834 6.83301 54.501 20.5s20.5 31.834 20.5 54.501v25c0 10 5 15 15 15h55c10 0 15 -5 15 -15v-25c0 -50 -13.667 -88.333 -41 -115s-67 -40 -119 -40h-115
c-52 0 -91.667 13.333 -119 40s-41 65 -41 115v220c0 50 13.667 88.333 41 115s67 40 119 40h115c52 0 91.667 -13.333 119 -40s41 -65 41 -115v-25c0 -10 -5 -15 -15 -15h-55c-10 0 -15 5 -15 15v25c0 22.667 -6.83301 40.834 -20.5 54.501s-31.834 20.5 -54.501 20.5h-115
c-22.667 0 -40.834 -6.83301 -54.501 -20.5s-20.5 -31.834 -20.5 -54.501z" />
    <glyph glyph-name="afii10084" unicode="&#x442;" horiz-adv-x="445" 
d="M250 0h-55c-10 0 -15 5 -15 15v415h-155c-10 0 -15 5 -15 15v50c0 10 5 15 15 15h395c10 0 15 -5 15 -15v-50c0 -10 -5 -15 -15 -15h-155v-415c0 -10 -5 -15 -15 -15z" />
    <glyph glyph-name="afii10085" unicode="&#x443;" horiz-adv-x="509" 
d="M257 120l140.002 375c4 10 12.333 15 25 15h60c10.667 0 14 -5 10 -15l-195 -495c-27.333 -70 -55.5 -119.167 -84.5 -147.5s-65.833 -42.5 -110.5 -42.5h-20c-10 0 -15 5 -15 15v50c0 10 5 15 15 15h20c25.333 0 46.166 8.33301 62.499 25s32.166 45 47.499 85l-195 495
c-4 10 -0.666992 15 10 15h60c12.667 0 21 -5 25 -15l140 -375h5z" />
    <glyph glyph-name="afii10086" unicode="&#x444;" horiz-adv-x="755" 
d="M230 510h105v175c0 10 5 15 15 15h55c10 0 15 -5 15 -15v-175h105c52 0 91.667 -13.333 119 -40s41 -65 41 -115v-200c0 -50 -13.667 -88.333 -41 -115s-67 -40 -119 -40h-105v-175c0 -10 -5 -15 -15 -15h-55c-10 0 -15 5 -15 15v175h-105c-52 -0 -91.667 13.333 -119 40
s-41 65 -41 115v200c0 50 13.667 88.333 41 115s67 40 119 40zM335 430l-105 0.00195312c-22.667 0 -40.834 -6.83301 -54.501 -20.5s-20.5 -31.834 -20.5 -54.501v-200c0 -22.667 6.83301 -40.834 20.5 -54.501s31.834 -20.5 54.501 -20.5h105v350zM420 80.002
l105 -0.00195312c22.667 0 40.834 6.83301 54.501 20.5s20.5 31.834 20.5 54.501v200c0 22.667 -6.83301 40.834 -20.5 54.501s-31.834 20.5 -54.501 20.5h-105v-350z" />
    <glyph glyph-name="afii10087" unicode="&#x445;" horiz-adv-x="476" 
d="M128 495l110 -170l110 170c6 10 14.333 15 25 15h60c12.667 0 16 -5 10 -15l-150 -230l165 -250c2.66699 -4.66699 3 -8.33398 1 -11.001s-5.66699 -4 -11 -4h-60c-10.667 0 -19 5 -25 15l-125 190l-125 -190c-6 -10 -14.333 -15 -25 -15h-60
c-5.33301 0 -9 1.33301 -11 4s-1.66699 6.33398 1 11.001l165 250l-150 230c-6 10 -2.66699 15 10 15h60c10.667 0 19 -5 25 -15z" />
    <glyph glyph-name="afii10088" unicode="&#x446;" horiz-adv-x="589" 
d="M435 0l-340 0.000976562c-10 0 -15 5 -15 15v480c0 10 5 15 15 15h55c10 0 15 -5 15 -15v-415h245v415c0 10 5 15 15 15h55c10 0 15 -5 15 -15v-430l90 -100c6.66699 -6.66699 6.66699 -13.334 0 -20.001l-45 -40c-7.33301 -6 -14 -6 -20 0z" />
    <glyph glyph-name="afii10089" unicode="&#x447;" horiz-adv-x="565" 
d="M155 495l-0.000976562 -169.999c0 -22.667 6.83301 -40.834 20.5 -54.501s31.834 -20.5 54.501 -20.5h170v245c0 10 5 15 15 15h55c10 0 15 -5 15 -15v-480c0 -10 -5 -15 -15 -15h-55c-10 0 -15 5 -15 15v155h-170c-52 0 -91.667 13.333 -119 40s-41 65 -41 115v170
c0 10 5 15 15 15h55c10 0 15 -5 15 -15z" />
    <glyph glyph-name="afii10090" unicode="&#x448;" horiz-adv-x="805" 
d="M95 510h55c10 0 15 -5 15 -15v-415h195v415c0 10 5 15 15 15h55c10 0 15 -5 15 -15v-415h195v415c0 10 5 15 15 15h55c10 0 15 -5 15 -15v-480c0 -10 -5 -15 -15 -15h-615c-10 0 -15 5 -15 15v480c0 10 5 15 15 15z" />
    <glyph glyph-name="afii10091" unicode="&#x449;" horiz-adv-x="819" 
d="M665 0l-570 0.000976562c-10 0 -15 5 -15 15v480c0 10 5 15 15 15h55c10 0 15 -5 15 -15v-415h195v415c0 10 5 15 15 15h55c10 0 15 -5 15 -15v-415h195v415c0 10 5 15 15 15h55c10 0 15 -5 15 -15v-430l90 -100c6.66699 -6.66699 6.66699 -13.334 0 -20.001l-45 -40
c-7.33301 -6 -14 -6 -20 0z" />
    <glyph glyph-name="afii10092" unicode="&#x44a;" 
d="M375 0h-225c-10 0 -15 5 -15 15v415h-120c-10 0 -15 5 -15 15v50c0 10 5 15 15 15h190c10 0 15 -5 15 -15v-155h155c100 0 150 -48.333 150 -145v-50c0 -96.667 -50 -145 -150 -145zM375 80c20 0 35.833 5.83301 47.5 17.5s17.5 27.5 17.5 47.5v50
c0 20 -5.83301 35.833 -17.5 47.5s-27.5 17.5 -47.5 17.5h-155v-180h155z" />
    <glyph glyph-name="afii10093" unicode="&#x44b;" horiz-adv-x="720" 
d="M320 80c20 0 35.833 5.83301 47.5 17.5s17.5 27.5 17.5 47.5v50c0 20 -5.83301 35.833 -17.5 47.5s-27.5 17.5 -47.5 17.5h-155v-180h155zM320 0h-225c-10 0 -15 5 -15 15v480c0 10 5 15 15 15h55c10 0 15 -5 15 -15v-155h155c100 0 150 -48.333 150 -145v-50
c0 -96.667 -50 -145 -150 -145zM640 495v-480c0 -10 -5 -15 -15 -15h-55c-10 0 -15 5 -15 15v480c0 10 5 15 15 15h55c10 0 15 -5 15 -15z" />
    <glyph glyph-name="afii10094" unicode="&#x44c;" horiz-adv-x="550" 
d="M340 80c20 0 35.833 5.83301 47.5 17.5s17.5 27.5 17.5 47.5v50c0 20 -5.83301 35.833 -17.5 47.5s-27.5 17.5 -47.5 17.5h-175v-180h175zM340 0h-245c-10 0 -15 5 -15 15v480c0 10 5 15 15 15h55c10 0 15 -5 15 -15v-155h175c100 0 150 -48.333 150 -145v-50
c0 -96.667 -50 -145 -150 -145z" />
    <glyph glyph-name="afii10095" unicode="&#x44d;" horiz-adv-x="565" 
d="M410 145v75h-135c-10 0 -15 5 -15 15v50c0 10 5 15 15 15h135v65c0 22.667 -6.83301 40.834 -20.5 54.501s-31.834 20.5 -54.501 20.5h-115c-22.667 0 -40.834 -6.83301 -54.501 -20.5s-20.5 -31.834 -20.5 -54.501v-25c0 -10 -5 -15 -15 -15h-55c-10 0 -15 5 -15 15v25
c0 50 13.667 88.333 41 115s67 40 119 40h115c52 0 91.667 -13.333 119 -40s41 -65 41 -115v-220c0 -50 -13.667 -88.333 -41 -115s-67 -40 -119 -40h-115c-52 0 -91.667 13.333 -119 40s-41 65 -41 115v25c0 10 5 15 15 15h55c10 0 15 -5 15 -15v-25
c0 -22.667 6.83301 -40.834 20.5 -54.501s31.834 -20.5 54.501 -20.5h115c22.667 0 40.834 6.83301 54.501 20.5s20.5 31.834 20.5 54.501z" />
    <glyph glyph-name="afii10096" unicode="&#x44e;" horiz-adv-x="780" 
d="M710 365v-220c0 -50 -13.667 -88.333 -41 -115s-67 -40 -119 -40h-100c-52 0 -91.667 13.333 -119 40s-41 65 -41 115v75h-125v-205c0 -10 -5 -15 -15 -15h-55c-10 0 -15 5 -15 15v480c0 10 5 15 15 15h55c10 0 15 -5 15 -15v-200h125v70c0 50 13.667 88.333 41 115
s67 40 119 40h100c52 0 91.667 -13.333 119 -40s41 -65 41 -115zM625 145v220c0 22.667 -6.83301 40.834 -20.5 54.501s-31.834 20.5 -54.501 20.5h-100c-22.667 0 -40.834 -6.83301 -54.501 -20.5s-20.5 -31.834 -20.5 -54.501v-220
c0 -22.667 6.83301 -40.834 20.5 -54.501s31.834 -20.5 54.501 -20.5h100c22.667 0 40.834 6.83301 54.501 20.5s20.5 31.834 20.5 54.501z" />
    <glyph glyph-name="afii10097" unicode="&#x44f;" horiz-adv-x="543" 
d="M203 510h244.999c10 0 15 -5 15 -15v-480c0 -10 -5 -15 -15 -15h-55c-10 0 -15 5 -15 15v155h-145l-85 -155c-5.33301 -10 -13.666 -15 -24.999 -15h-60c-12.667 0 -16 5 -10 15l90 165l-10 2.5c-4 1 -11.167 4.5 -21.5 10.5s-19.5 13.5 -27.5 22.5
s-15.167 22.167 -21.5 39.5s-9.5 37.333 -9.5 60v50c0 96.667 50 145 150 145zM202.999 430c-20 0 -35.833 -5.83301 -47.5 -17.5s-17.5 -27.5 -17.5 -47.5v-50c0 -20 5.83301 -35.833 17.5 -47.5s27.5 -17.5 47.5 -17.5h175v180h-175z" />
    <glyph glyph-name="afii10071" unicode="&#x451;" horiz-adv-x="580" 
d="M225 610h-60c-10 0 -15 5 -15 15v60c0 10 5 15 15 15h60c10 0 15 -5 15 -15v-60c0 -10 -5 -15 -15 -15zM405 610h-60c-10 0 -15 5 -15 15v60c0 10 5 15 15 15h60c10 0 15 -5 15 -15v-60c0 -10 -5 -15 -15 -15zM155 300h270.002v65c0 22.667 -6.83301 40.834 -20.5 54.501
s-31.834 20.5 -54.501 20.5h-120c-22.667 0 -40.834 -6.83301 -54.501 -20.5s-20.5 -31.834 -20.5 -54.501v-65zM495.002 220h-340.002v-75c0 -22.667 6.83301 -40.834 20.5 -54.501s31.834 -20.5 54.501 -20.5h120c22.667 0 40.834 6.83301 54.501 20.5
s20.5 31.834 20.5 54.501v5c0 10 5 15 15 15h55c10 0 15 -5 15 -15v-5c0 -50 -13.667 -88.333 -41 -115s-67 -40 -119 -40h-120c-52 0 -91.667 13.333 -119 40s-41 65 -41 115v220c0 50 13.667 88.333 41 115s67 40 119 40h120c52 0 91.667 -13.333 119 -40s41 -65 41 -115
v-130c0 -10 -5 -15 -15 -15z" />
    <glyph glyph-name="afii10099" unicode="&#x452;" horiz-adv-x="595" 
d="M440 120l0.000976562 144.999c0 22.667 -6.83301 40.834 -20.5 54.501s-31.834 20.5 -54.501 20.5h-190v-325c0 -10 -5 -15 -15 -15h-55c-10 0 -15 5 -15 15v505h-75c-10 0 -15 5 -15 15v50c0 10 5 15 15 15h75v85c0 10 5 15 15 15h55c10 0 15 -5 15 -15v-85h100
c10 0 15 -5 15 -15v-50c0 -10 -5 -15 -15 -15h-100v-100h190c52 0 91.667 -13.333 119 -40s41 -65 41 -115v-145c0 -48 -13.333 -85 -40 -111s-65 -39 -115 -39h-35c-10 0 -15 5 -15 15v50c0 10 5 15 15 15h35c20 0 36.667 6.66699 50 20s20 30 20 50z" />
    <glyph glyph-name="afii10100" unicode="&#x453;" horiz-adv-x="440" 
d="M150 0h-55c-10 0 -15 5 -15 15v480c0 10 5 15 15 15h330c10 0 15 -5 15 -15v-50c0 -10 -5 -15 -15 -15h-260v-415c0 -10 -5 -15 -15 -15zM391 730l-90.001 -134.999c-6 -10 -12.667 -15 -20 -15h-40c-10.667 0 -14 5 -10 15l60 135c4.66699 10 11.334 15 20.001 15h70
c5.33301 0 9 -1.33301 11 -4s1.66699 -6.33398 -1 -11.001z" />
    <glyph glyph-name="afii10101" unicode="&#x454;" horiz-adv-x="565" 
d="M155 220v-75c0 -22.667 6.83301 -40.834 20.5 -54.501s31.834 -20.5 54.501 -20.5h115c22.667 0 40.834 6.83301 54.501 20.5s20.5 31.834 20.5 54.501v25c0 10 5 15 15 15h55c10 0 15 -5 15 -15v-25c0 -50 -13.667 -88.333 -41 -115s-67 -40 -119 -40h-115
c-52 0 -91.667 13.333 -119 40s-41 65 -41 115v220c0 50 13.667 88.333 41 115s67 40 119 40h115c52 0 91.667 -13.333 119 -40s41 -65 41 -115v-25c0 -10 -5 -15 -15 -15h-55c-10 0 -15 5 -15 15v25c0 22.667 -6.83301 40.834 -20.5 54.501s-31.834 20.5 -54.501 20.5h-115
c-22.667 0 -40.834 -6.83301 -54.501 -20.5s-20.5 -31.834 -20.5 -54.501v-65h135c10 0 15 -5 15 -15v-50c0 -10 -5 -15 -15 -15h-135z" />
    <glyph glyph-name="afii10102" unicode="&#x455;" horiz-adv-x="540" 
d="M60 365v10c0 96.667 50 145 150 145h100c52 0 91.667 -13.333 119 -40s41 -65 41 -115v-10c0 -10 -5 -15 -15 -15h-55c-10 0 -15 5 -15 15v10c0 22.667 -6.83301 40.834 -20.5 54.501s-31.834 20.5 -54.501 20.5h-100c-20 0 -35.833 -5.83301 -47.5 -17.5
s-17.5 -27.5 -17.5 -47.5v-5c0 -20 11.667 -33.333 35 -40l220 -70c53.333 -16.667 80 -53.334 80 -110.001v-15c0 -96.667 -50 -145 -150 -145h-120c-52 0 -91.667 13.333 -119 40s-41 65 -41 115v10c0 10 5 15 15 15h55c10 0 15 -5 15 -15v-10
c0 -22.667 6.83301 -40.834 20.5 -54.501s31.834 -20.5 54.501 -20.5h120c20 0 35.833 5.83301 47.5 17.5s17.5 27.5 17.5 47.5v10c0 20 -11.667 33.333 -35 40l-220 70c-53.333 16.667 -80 53.334 -80 110.001z" />
    <glyph glyph-name="afii10103" unicode="&#x456;" horiz-adv-x="245" 
d="M95 700h55c10 0 15 -5 15 -15v-55c0 -10 -5 -15 -15 -15h-55c-10 0 -15 5 -15 15v55c0 10 5 15 15 15zM150 0h-55c-10 0 -15 5 -15 15v480c0 10 5 15 15 15h55c10 0 15 -5 15 -15v-480c0 -10 -5 -15 -15 -15z" />
    <glyph glyph-name="afii10104" unicode="&#x457;" horiz-adv-x="250" 
d="M150 0h-55c-10 0 -15 5 -15 15v480c0 10 5 15 15 15h55c10 0 15 -5 15 -15v-480c0 -10 -5 -15 -15 -15zM65 610h-60c-10 0 -15 5 -15 15v60c0 10 5 15 15 15h60c10 0 15 -5 15 -15v-60c0 -10 -5 -15 -15 -15zM245 610h-60c-10 0 -15 5 -15 15v60c0 10 5 15 15 15h60
c10 0 15 -5 15 -15v-60c0 -10 -5 -15 -15 -15z" />
    <glyph glyph-name="afii10105" unicode="&#x458;" horiz-adv-x="245" 
d="M165 495v-545c0 -48 -13.333 -85 -40 -111s-65 -39 -115 -39h-55c-10 0 -15 5 -15 15v50c0 10 5 15 15 15h55c20 0 36.667 6.66699 50 20s20 30 20 50v545c0 10 5 15 15 15h55c10 0 15 -5 15 -15zM95 700h55c10 0 15 -5 15 -15v-55c0 -10 -5 -15 -15 -15h-55
c-10 0 -15 5 -15 15v55c0 10 5 15 15 15z" />
    <glyph glyph-name="afii10106" unicode="&#x459;" horiz-adv-x="840" 
d="M630 0h-214.999c-10 0 -15 5 -15 15v415h-155l-60 -295c-10 -50.667 -27.167 -87.5 -51.5 -110.5s-58.833 -34.5 -103.5 -34.5h-15c-10 0 -15 5 -15 15v50c0 10 5 15 15 15h15c17.333 0 32.166 5.66699 44.499 17s20.833 27.333 25.5 48l75 360c2 10 10.333 15 25 15h270
c10 0 15 -5 15 -15v-155h145c100 0 150 -48.333 150 -145v-50c0 -96.667 -50 -145 -150 -145zM630.001 80c20 0 35.833 5.83301 47.5 17.5s17.5 27.5 17.5 47.5v50c0 20 -5.83301 35.833 -17.5 47.5s-27.5 17.5 -47.5 17.5h-145v-180h145z" />
    <glyph glyph-name="afii10107" unicode="&#x45a;" horiz-adv-x="820" 
d="M380 495c0 10 5 15 15 15h55c10 0 15 -5 15 -15v-165h145c100 0 150 -48.333 150 -145v-40c0 -96.667 -50 -145 -150 -145h-215c-10 0 -15 5 -15 15v235h-215v-235c0 -10 -5 -15 -15 -15h-55c-10 0 -15 5 -15 15v480c0 10 5 15 15 15h55c10 0 15 -5 15 -15v-165h215v165z
M610 80c20 0 35.833 5.83301 47.5 17.5s17.5 27.5 17.5 47.5v40c0 20 -5.83301 35.833 -17.5 47.5s-27.5 17.5 -47.5 17.5h-145v-170h145z" />
    <glyph glyph-name="afii10108" unicode="&#x45b;" horiz-adv-x="605" 
d="M15 600l75.001 -0.000976562v85c0 10 5 15 15 15h55c10 0 15 -5 15 -15v-85h100c10 0 15 -5 15 -15v-50c0 -10 -5 -15 -15 -15h-100v-100h190c52 0 91.667 -13.333 119 -40s41 -65 41 -115v-250c0 -10 -5 -15 -15 -15h-55c-10 0 -15 5 -15 15v250
c0 22.667 -6.83301 40.834 -20.5 54.501s-31.834 20.5 -54.501 20.5h-190v-325c0 -10 -5 -15 -15 -15h-55c-10 0 -15 5 -15 15v505h-75c-10 0 -15 5 -15 15v50c0 10 5 15 15 15z" />
    <glyph glyph-name="afii10109" unicode="&#x45c;" horiz-adv-x="522" 
d="M405 15l-114.998 215h-125v-215c0 -10 -5 -15 -15 -15h-55c-10 0 -15 5 -15 15v480c0 10 5 15 15 15h55c10 0 15 -5 15 -15v-185h125l100 185c5.33301 10 13.666 15 24.999 15h60c11.333 0 14.666 -5 9.99902 -15l-125 -225l140 -255c5.33301 -10 2 -15 -10 -15h-60
c-12 0 -20.333 5 -25 15zM400.002 730l-90 -134.999c-6 -10 -12.667 -15 -20 -15h-40c-10.667 0 -14 5 -10 15l60 135c5.33301 10 12 15 20 15h70c5.33301 0 9 -1.33301 11 -4s1.66699 -6.33398 -1 -11.001z" />
    </font>
</defs>
</svg>
